Aarav SemiBold.ufo
<glyph name="exclam" format="1">
  <advance width="258"/>
  <unicode hex="0021"/>
  <outline>
    <contour>
      <point x="128" y="124" type="curve" smooth="yes"/>
      <point x="110" y="123"/>
      <point x="96" y="108"/>
      <point x="84" y="107" type="curve" smooth="yes"/>
      <point x="71" y="106"/>
      <point x="60" y="79"/>
      <point x="60" y="44" type="curve" smooth="yes"/>
      <point x="60" y="34"/>
      <point x="78" y="-14"/>
      <point x="110" y="-14" type="curve" smooth="yes"/>
      <point x="154" y="-14"/>
      <point x="198" y="26"/>
      <point x="198" y="50" type="curve" smooth="yes"/>
      <point x="198" y="72"/>
      <point x="154" y="124"/>
    </contour>
    <contour>
      <point x="128" y="739" type="curve" smooth="yes"/>
      <point x="103" y="739"/>
      <point x="68" y="701"/>
      <point x="68" y="672" type="curve" smooth="yes"/>
      <point x="68" y="606"/>
      <point x="86" y="539"/>
      <point x="81" y="477" type="curve" smooth="yes"/>
      <point x="79" y="452"/>
      <point x="73" y="281"/>
      <point x="73" y="244" type="curve" smooth="yes"/>
      <point x="73" y="215"/>
      <point x="102" y="200"/>
      <point x="120" y="200" type="curve" smooth="yes"/>
      <point x="159" y="200"/>
      <point x="183" y="243"/>
      <point x="183" y="303" type="curve" smooth="yes"/>
      <point x="183" y="368"/>
      <point x="178" y="423"/>
      <point x="178" y="479" type="curve" smooth="yes"/>
      <point x="178" y="546"/>
      <point x="195" y="609"/>
      <point x="195" y="673" type="curve" smooth="yes"/>
      <point x="195" y="701"/>
      <point x="157" y="739"/>
    </contour>
  </outline>
</glyph>
<glyph name="quotedbl" format="1">
  <advance width="357"/>
  <unicode hex="0022"/>
  <outline>
    <contour>
      <point x="78" y="721" type="curve" smooth="yes"/>
      <point x="50" y="720"/>
      <point x="29" y="685"/>
      <point x="34" y="660" type="curve" smooth="yes"/>
      <point x="41" y="614"/>
      <point x="37" y="569"/>
      <point x="37" y="528" type="curve" smooth="yes"/>
      <point x="37" y="501"/>
      <point x="62" y="477"/>
      <point x="91" y="477" type="curve" smooth="yes"/>
      <point x="123" y="477"/>
      <point x="139" y="506"/>
      <point x="139" y="532" type="curve" smooth="yes"/>
      <point x="139" y="557"/>
      <point x="134" y="579"/>
      <point x="134" y="598" type="curve" smooth="yes"/>
      <point x="134" y="622"/>
      <point x="145" y="646"/>
      <point x="145" y="668" type="curve" smooth="yes"/>
      <point x="145" y="697"/>
      <point x="113" y="721"/>
    </contour>
    <contour>
      <point x="266" y="730" type="curve" smooth="yes"/>
      <point x="238" y="730"/>
      <point x="214" y="708"/>
      <point x="214" y="680" type="curve"/>
      <point x="213" y="638"/>
      <point x="221" y="592"/>
      <point x="209" y="553" type="curve" smooth="yes"/>
      <point x="199" y="517"/>
      <point x="221" y="482"/>
      <point x="255" y="482" type="curve" smooth="yes"/>
      <point x="289" y="482"/>
      <point x="311" y="511"/>
      <point x="311" y="539" type="curve" smooth="yes"/>
      <point x="311" y="571"/>
      <point x="315" y="617"/>
      <point x="315" y="632" type="curve" smooth="yes"/>
      <point x="315" y="645"/>
      <point x="324" y="661"/>
      <point x="325" y="673" type="curve" smooth="yes"/>
      <point x="325" y="687"/>
      <point x="303" y="730"/>
    </contour>
  </outline>
</glyph>
<glyph name="numbersign" format="1">
  <advance width="735"/>
  <unicode hex="0023"/>
  <outline>
    <contour>
      <point x="574" y="658" type="curve" smooth="yes"/>
      <point x="554" y="658"/>
      <point x="538" y="668"/>
      <point x="514" y="592" type="curve" smooth="yes"/>
      <point x="504" y="564"/>
      <point x="495" y="537"/>
      <point x="481" y="510" type="curve"/>
      <point x="452" y="510"/>
      <point x="418" y="507"/>
      <point x="385" y="507" type="curve"/>
      <point x="399" y="538"/>
      <point x="411" y="565"/>
      <point x="417" y="572" type="curve" smooth="yes"/>
      <point x="427" y="583"/>
      <point x="431" y="609"/>
      <point x="431" y="630" type="curve" smooth="yes"/>
      <point x="431" y="644"/>
      <point x="418" y="671"/>
      <point x="397" y="671" type="curve" smooth="yes"/>
      <point x="355" y="671"/>
      <point x="324" y="641"/>
      <point x="302" y="584" type="curve" smooth="yes"/>
      <point x="293" y="560"/>
      <point x="282" y="535"/>
      <point x="275" y="507" type="curve"/>
      <point x="239" y="508"/>
      <point x="205" y="512"/>
      <point x="165" y="512" type="curve" smooth="yes"/>
      <point x="133" y="512"/>
      <point x="112" y="495"/>
      <point x="105" y="466" type="curve" smooth="yes"/>
      <point x="96" y="442"/>
      <point x="104" y="405"/>
      <point x="141" y="405" type="curve" smooth="yes"/>
      <point x="173" y="405"/>
      <point x="202" y="409"/>
      <point x="240" y="411" type="curve"/>
      <point x="230" y="387"/>
      <point x="220" y="358"/>
      <point x="195" y="298" type="curve" smooth="yes"/>
      <point x="193" y="294"/>
      <point x="191" y="289"/>
      <point x="187" y="282" type="curve"/>
      <point x="159" y="282"/>
      <point x="130" y="285"/>
      <point x="99" y="285" type="curve" smooth="yes"/>
      <point x="44" y="285"/>
      <point x="33" y="256"/>
      <point x="33" y="237" type="curve" smooth="yes"/>
      <point x="33" y="202"/>
      <point x="64" y="182"/>
      <point x="91" y="182" type="curve" smooth="yes"/>
      <point x="95" y="182"/>
      <point x="107" y="182"/>
      <point x="145" y="184" type="curve" smooth="yes"/>
      <point x="125" y="143"/>
      <point x="90" y="92"/>
      <point x="90" y="46" type="curve" smooth="yes"/>
      <point x="90" y="7"/>
      <point x="111" y="-16"/>
      <point x="153" y="-16" type="curve" smooth="yes"/>
      <point x="174" y="-16"/>
      <point x="198" y="-2"/>
      <point x="198" y="20" type="curve" smooth="yes"/>
      <point x="198" y="34"/>
      <point x="201" y="45"/>
      <point x="208" y="69" type="curve" smooth="yes"/>
      <point x="222" y="107"/>
      <point x="238" y="145"/>
      <point x="254" y="186" type="curve"/>
      <point x="282" y="187"/>
      <point x="315" y="188"/>
      <point x="335" y="188" type="curve" smooth="yes"/>
      <point x="357" y="188" type="line"/>
      <point x="328" y="114"/>
      <point x="323" y="101"/>
      <point x="302" y="61" type="curve" smooth="yes"/>
      <point x="280" y="21"/>
      <point x="312" y="-6"/>
      <point x="351" y="-6" type="curve" smooth="yes"/>
      <point x="409" y="-6"/>
      <point x="401" y="31"/>
      <point x="417" y="76" type="curve" smooth="yes"/>
      <point x="424" y="99"/>
      <point x="424" y="99"/>
      <point x="457" y="183" type="curve"/>
      <point x="511" y="181"/>
      <point x="554" y="178"/>
      <point x="563" y="178" type="curve" smooth="yes"/>
      <point x="592" y="178"/>
      <point x="628" y="202"/>
      <point x="628" y="237" type="curve" smooth="yes"/>
      <point x="628" y="261"/>
      <point x="616" y="281"/>
      <point x="568" y="281" type="curve" smooth="yes"/>
      <point x="538" y="281"/>
      <point x="520" y="281"/>
      <point x="497" y="280" type="curve"/>
      <point x="509" y="313"/>
      <point x="502" y="293"/>
      <point x="504" y="299" type="curve" smooth="yes"/>
      <point x="517" y="335"/>
      <point x="535" y="377"/>
      <point x="551" y="416" type="curve"/>
      <point x="631" y="416" type="line" smooth="yes"/>
      <point x="654" y="416"/>
      <point x="693" y="430"/>
      <point x="700" y="470" type="curve" smooth="yes"/>
      <point x="707" y="506"/>
      <point x="676" y="521"/>
      <point x="638" y="521" type="curve"/>
      <point x="625" y="521"/>
      <point x="615" y="520"/>
      <point x="594" y="518" type="curve"/>
      <point x="606" y="545"/>
      <point x="618" y="574"/>
      <point x="622" y="579" type="curve"/>
      <point x="646" y="601"/>
      <point x="610" y="658"/>
    </contour>
    <contour>
      <point x="447" y="416" type="curve"/>
      <point x="431" y="370"/>
      <point x="416" y="334"/>
      <point x="401" y="297" type="curve" smooth="yes"/>
      <point x="399" y="294"/>
      <point x="395" y="283"/>
      <point x="392" y="278" type="curve"/>
      <point x="286" y="282"/>
      <point x="176" y="286"/>
      <point x="71" y="290" type="curve" smooth="yes"/>
      <point x="291" y="278" type="line"/>
      <point x="293" y="282"/>
      <point x="294" y="286"/>
      <point x="295" y="291" type="curve" smooth="yes"/>
      <point x="317" y="345"/>
      <point x="333" y="385"/>
      <point x="346" y="415" type="curve"/>
      <point x="371" y="415"/>
      <point x="404" y="416"/>
    </contour>
  </outline>
</glyph>
<glyph name="dollar" format="1">
  <advance width="528"/>
  <unicode hex="0024"/>
  <outline>
    <contour>
      <point x="285" y="764" type="curve" smooth="yes"/>
      <point x="256" y="764"/>
      <point x="214" y="745"/>
      <point x="214" y="713" type="curve" smooth="yes"/>
      <point x="214" y="687"/>
      <point x="216" y="683"/>
      <point x="218" y="628" type="curve"/>
      <point x="126" y="596"/>
      <point x="60" y="531"/>
      <point x="60" y="475" type="curve" smooth="yes"/>
      <point x="60" y="374"/>
      <point x="149" y="351"/>
      <point x="219" y="338" type="curve"/>
      <point x="218" y="269"/>
      <point x="217" y="234"/>
      <point x="216" y="204" type="curve"/>
      <point x="174" y="206"/>
      <point x="154" y="221"/>
      <point x="141" y="232" type="curve" smooth="yes"/>
      <point x="119" y="253"/>
      <point x="116" y="279"/>
      <point x="79" y="279" type="curve" smooth="yes"/>
      <point x="44" y="279"/>
      <point x="30" y="251"/>
      <point x="30" y="223" type="curve" smooth="yes"/>
      <point x="30" y="180"/>
      <point x="102" y="126"/>
      <point x="213" y="121" type="curve"/>
      <point x="212" y="103"/>
      <point x="212" y="90"/>
      <point x="212" y="85" type="curve" smooth="yes"/>
      <point x="212" y="42"/>
      <point x="200" y="35"/>
      <point x="200" y="23" type="curve" smooth="yes"/>
      <point x="200" y="6"/>
      <point x="224" y="-13"/>
      <point x="249" y="-13" type="curve" smooth="yes"/>
      <point x="283" y="-13"/>
      <point x="306" y="15"/>
      <point x="306" y="49" type="curve" smooth="yes"/>
      <point x="306" y="127" type="line"/>
      <point x="427" y="148"/>
      <point x="488" y="215"/>
      <point x="488" y="273" type="curve" smooth="yes"/>
      <point x="488" y="379"/>
      <point x="386" y="401"/>
      <point x="305" y="417" type="curve"/>
      <point x="305" y="445" type="line" smooth="yes"/>
      <point x="305" y="461"/>
      <point x="306" y="515"/>
      <point x="307" y="547" type="curve"/>
      <point x="354" y="544"/>
      <point x="335" y="497"/>
      <point x="381" y="497" type="curve" smooth="yes"/>
      <point x="415" y="497"/>
      <point x="428" y="525"/>
      <point x="428" y="555" type="curve" smooth="yes"/>
      <point x="428" y="586"/>
      <point x="392" y="645"/>
      <point x="327" y="645" type="curve" smooth="yes"/>
      <point x="324" y="645"/>
      <point x="318" y="645"/>
      <point x="309" y="643" type="curve"/>
      <point x="309" y="676" type="line" smooth="yes"/>
      <point x="309" y="698"/>
      <point x="314" y="716"/>
      <point x="314" y="735" type="curve" smooth="yes"/>
      <point x="314" y="750"/>
      <point x="296" y="764"/>
    </contour>
    <contour>
      <point x="374" y="275" type="curve" smooth="yes"/>
      <point x="374" y="238"/>
      <point x="349" y="221"/>
      <point x="305" y="212" type="curve"/>
      <point x="305" y="322" type="line"/>
      <point x="344" y="314"/>
      <point x="374" y="302"/>
    </contour>
    <contour>
      <point x="168" y="479" type="curve" smooth="yes"/>
      <point x="168" y="501"/>
      <point x="190" y="519"/>
      <point x="221" y="534" type="curve"/>
      <point x="221" y="496" type="line" smooth="yes"/>
      <point x="221" y="464"/>
      <point x="220" y="452"/>
      <point x="220" y="436" type="curve" smooth="yes"/>
      <point x="183" y="448"/>
      <point x="168" y="460"/>
    </contour>
  </outline>
</glyph>
<glyph name="percent" format="1">
  <advance width="838"/>
  <unicode hex="0025"/>
  <outline>
    <contour>
      <point x="539" y="726" type="curve" smooth="yes"/>
      <point x="499" y="726"/>
      <point x="466" y="695"/>
      <point x="446" y="638" type="curve" smooth="yes"/>
      <point x="384" y="463"/>
      <point x="375" y="444"/>
      <point x="324" y="319" type="curve" smooth="yes"/>
      <point x="271" y="189"/>
      <point x="212" y="100"/>
      <point x="212" y="53" type="curve" smooth="yes"/>
      <point x="212" y="6"/>
      <point x="246" y="-11"/>
      <point x="277" y="-11" type="curve" smooth="yes"/>
      <point x="298" y="-11"/>
      <point x="324" y="3"/>
      <point x="324" y="26" type="curve" smooth="yes"/>
      <point x="324" y="44"/>
      <point x="319" y="58"/>
      <point x="324" y="76" type="curve" smooth="yes"/>
      <point x="347" y="154"/>
      <point x="384" y="227"/>
      <point x="412" y="301" type="curve" smooth="yes"/>
      <point x="489" y="492"/>
      <point x="547" y="612"/>
      <point x="560" y="627" type="curve" smooth="yes"/>
      <point x="571" y="639"/>
      <point x="576" y="671"/>
      <point x="575" y="692" type="curve" smooth="yes"/>
      <point x="574" y="701"/>
      <point x="555" y="726"/>
    </contour>
    <contour>
      <point x="539" y="348" type="curve" smooth="yes"/>
      <point x="512" y="347"/>
      <point x="475" y="332"/>
      <point x="474" y="301" type="curve"/>
      <point x="460" y="295"/>
      <point x="451" y="285"/>
      <point x="451" y="266" type="curve" smooth="yes"/>
      <point x="451" y="249"/>
      <point x="457" y="236"/>
      <point x="468" y="227" type="curve"/>
      <point x="463" y="204"/>
      <point x="458" y="181"/>
      <point x="458" y="159" type="curve" smooth="yes"/>
      <point x="458" y="73"/>
      <point x="497" y="2"/>
      <point x="578" y="2" type="curve" smooth="yes"/>
      <point x="698" y="2"/>
      <point x="784" y="121"/>
      <point x="784" y="180" type="curve" smooth="yes"/>
      <point x="784" y="271"/>
      <point x="700" y="320"/>
      <point x="640" y="320" type="curve" smooth="yes"/>
      <point x="621" y="320"/>
      <point x="606" y="318"/>
      <point x="592" y="316" type="curve"/>
      <point x="582" y="339"/>
      <point x="561" y="348"/>
    </contour>
    <contour>
      <point x="686" y="182" type="curve" smooth="yes"/>
      <point x="686" y="145"/>
      <point x="630" y="100"/>
      <point x="587" y="100" type="curve" smooth="yes"/>
      <point x="570" y="100"/>
      <point x="556" y="121"/>
      <point x="556" y="155" type="curve" smooth="yes"/>
      <point x="556" y="175"/>
      <point x="559" y="198"/>
      <point x="568" y="222" type="curve"/>
      <point x="602" y="224"/>
      <point x="686" y="227"/>
    </contour>
    <contour>
      <point x="41" y="523" type="curve" smooth="yes"/>
      <point x="41" y="418"/>
      <point x="105" y="354"/>
      <point x="164" y="354" type="curve" smooth="yes"/>
      <point x="276" y="354"/>
      <point x="347" y="453"/>
      <point x="347" y="514" type="curve" smooth="yes"/>
      <point x="347" y="592"/>
      <point x="286" y="706"/>
      <point x="158" y="706" type="curve" smooth="yes"/>
      <point x="120" y="706"/>
      <point x="98" y="668"/>
      <point x="68" y="664" type="curve" smooth="yes"/>
      <point x="55" y="662"/>
      <point x="29" y="641"/>
      <point x="29" y="609" type="curve" smooth="yes"/>
      <point x="29" y="594"/>
      <point x="38" y="578"/>
      <point x="50" y="578" type="curve"/>
      <point x="43" y="560"/>
      <point x="41" y="542"/>
    </contour>
    <contour>
      <point x="187" y="605" type="curve" smooth="yes"/>
      <point x="217" y="605"/>
      <point x="250" y="584"/>
      <point x="250" y="539" type="curve" smooth="yes"/>
      <point x="250" y="480"/>
      <point x="198" y="450"/>
      <point x="180" y="450" type="curve" smooth="yes"/>
      <point x="161" y="450"/>
      <point x="132" y="471"/>
      <point x="132" y="515" type="curve" smooth="yes"/>
      <point x="132" y="567"/>
      <point x="177" y="575"/>
      <point x="177" y="594" type="curve" smooth="yes"/>
      <point x="177" y="603" type="line"/>
      <point x="180" y="605"/>
      <point x="184" y="605"/>
    </contour>
  </outline>
</glyph>
<glyph name="ampersand" format="1">
  <advance width="607"/>
  <unicode hex="0026"/>
  <outline>
    <contour>
      <point x="508" y="-48" type="curve" smooth="yes"/>
      <point x="537" y="-47"/>
      <point x="566" y="-22"/>
      <point x="563" y="7" type="curve" smooth="yes"/>
      <point x="561" y="36"/>
      <point x="534" y="58"/>
      <point x="513" y="75" type="curve" smooth="yes"/>
      <point x="505" y="81"/>
      <point x="497" y="89"/>
      <point x="491" y="97" type="curve"/>
      <point x="534" y="154"/>
      <point x="559" y="222"/>
      <point x="559" y="291" type="curve" smooth="yes"/>
      <point x="559" y="303"/>
      <point x="547" y="339"/>
      <point x="523" y="339" type="curve" smooth="yes"/>
      <point x="510" y="339"/>
      <point x="466" y="326"/>
      <point x="464" y="294" type="curve" smooth="yes"/>
      <point x="461" y="254"/>
      <point x="452" y="210"/>
      <point x="425" y="175" type="curve"/>
      <point x="376" y="234"/>
      <point x="327" y="302"/>
      <point x="290" y="360" type="curve"/>
      <point x="362" y="405"/>
      <point x="428" y="451"/>
      <point x="428" y="529" type="curve" smooth="yes"/>
      <point x="428" y="607"/>
      <point x="349" y="702"/>
      <point x="258" y="702" type="curve" smooth="yes"/>
      <point x="179" y="702"/>
      <point x="107" y="594"/>
      <point x="107" y="545" type="curve" smooth="yes"/>
      <point x="107" y="506"/>
      <point x="122" y="457"/>
      <point x="157" y="393" type="curve"/>
      <point x="85" y="349"/>
      <point x="28" y="300"/>
      <point x="28" y="205" type="curve" smooth="yes"/>
      <point x="28" y="116"/>
      <point x="88" y="-1"/>
      <point x="296" y="-1" type="curve" smooth="yes"/>
      <point x="336" y="-1"/>
      <point x="373" y="10"/>
      <point x="412" y="30" type="curve" smooth="yes"/>
      <point x="419" y="21"/>
      <point x="429" y="5"/>
      <point x="443" y="-14" type="curve" smooth="yes"/>
      <point x="462" y="-39"/>
      <point x="496" y="-48"/>
    </contour>
    <contour>
      <point x="279" y="100" type="curve" smooth="yes"/>
      <point x="183" y="100"/>
      <point x="130" y="161"/>
      <point x="130" y="200" type="curve" smooth="yes"/>
      <point x="130" y="246"/>
      <point x="159" y="276"/>
      <point x="206" y="308" type="curve"/>
      <point x="243" y="251"/>
      <point x="292" y="184"/>
      <point x="346" y="112" type="curve"/>
      <point x="325" y="103"/>
      <point x="296" y="100"/>
    </contour>
    <contour>
      <point x="209" y="543" type="curve" smooth="yes"/>
      <point x="209" y="572"/>
      <point x="240" y="591"/>
      <point x="260" y="591" type="curve" smooth="yes"/>
      <point x="296" y="591"/>
      <point x="323" y="554"/>
      <point x="323" y="535" type="curve" smooth="yes"/>
      <point x="323" y="503"/>
      <point x="292" y="480"/>
      <point x="243" y="444" type="curve"/>
      <point x="221" y="491"/>
      <point x="209" y="517"/>
    </contour>
  </outline>
</glyph>
<glyph name="quotesingle" format="1">
  <advance width="179"/>
  <unicode hex="0027"/>
  <outline>
    <contour>
      <point x="90" y="720" type="curve" smooth="yes"/>
      <point x="60" y="720"/>
      <point x="39" y="699"/>
      <point x="39" y="674" type="curve" smooth="yes"/>
      <point x="39" y="621"/>
      <point x="34" y="581"/>
      <point x="34" y="539" type="curve" smooth="yes"/>
      <point x="34" y="493"/>
      <point x="58" y="472"/>
      <point x="87" y="472" type="curve" smooth="yes"/>
      <point x="118" y="472"/>
      <point x="136" y="503"/>
      <point x="136" y="532" type="curve" smooth="yes"/>
      <point x="136" y="569"/>
      <point x="140" y="597"/>
      <point x="140" y="626" type="curve" smooth="yes"/>
      <point x="140" y="638"/>
      <point x="148" y="655"/>
      <point x="148" y="667" type="curve" smooth="yes"/>
      <point x="148" y="683"/>
      <point x="125" y="720"/>
    </contour>
  </outline>
</glyph>
<glyph name="parenleft" format="1">
  <advance width="440"/>
  <unicode hex="0028"/>
  <outline>
    <contour>
      <point x="301" y="737" type="curve" smooth="yes"/>
      <point x="284" y="737"/>
      <point x="256" y="726"/>
      <point x="234" y="692" type="curve" smooth="yes"/>
      <point x="133" y="548"/>
      <point x="45" y="380"/>
      <point x="45" y="201" type="curve" smooth="yes"/>
      <point x="45" y="-9"/>
      <point x="128" y="-143"/>
      <point x="259" y="-143" type="curve" smooth="yes"/>
      <point x="326" y="-143"/>
      <point x="370" y="-116"/>
      <point x="370" y="-93" type="curve" smooth="yes"/>
      <point x="370" y="-45"/>
      <point x="311" y="-56"/>
      <point x="285" y="-56" type="curve" smooth="yes"/>
      <point x="214" y="-56"/>
      <point x="144" y="16"/>
      <point x="144" y="193" type="curve" smooth="yes"/>
      <point x="144" y="359"/>
      <point x="264" y="596"/>
      <point x="290" y="596" type="curve" smooth="yes"/>
      <point x="303" y="596"/>
      <point x="315" y="581"/>
      <point x="328" y="581" type="curve" smooth="yes"/>
      <point x="349" y="581"/>
      <point x="375" y="618"/>
      <point x="375" y="636" type="curve" smooth="yes"/>
      <point x="375" y="651"/>
      <point x="359" y="737"/>
    </contour>
  </outline>
</glyph>
<glyph name="parenright" format="1">
  <advance width="421"/>
  <unicode hex="0029"/>
  <outline>
    <contour>
      <point x="98" y="734" type="curve" smooth="yes"/>
      <point x="65" y="734"/>
      <point x="42" y="705"/>
      <point x="42" y="679" type="curve" smooth="yes"/>
      <point x="42" y="653"/>
      <point x="68" y="629"/>
      <point x="98" y="614" type="curve" smooth="yes"/>
      <point x="142" y="593"/>
      <point x="270" y="378"/>
      <point x="270" y="229" type="curve" smooth="yes"/>
      <point x="270" y="96"/>
      <point x="209" y="8"/>
      <point x="100" y="-54" type="curve" smooth="yes"/>
      <point x="55" y="-79"/>
      <point x="79" y="-131"/>
      <point x="133" y="-131" type="curve" smooth="yes"/>
      <point x="178" y="-131"/>
      <point x="372" y="-12"/>
      <point x="372" y="244" type="curve" smooth="yes"/>
      <point x="372" y="382"/>
      <point x="276" y="576"/>
      <point x="189" y="668" type="curve"/>
      <point x="177" y="700"/>
      <point x="124" y="734"/>
    </contour>
  </outline>
</glyph>
<glyph name="asterisk" format="1">
  <advance width="423"/>
  <unicode hex="002A"/>
  <outline>
    <contour>
      <point x="381" y="484" type="curve" smooth="yes"/>
      <point x="381" y="528"/>
      <point x="316" y="537"/>
      <point x="282" y="555" type="curve" smooth="yes"/>
      <point x="276" y="558"/>
      <point x="272" y="559"/>
      <point x="269" y="561" type="curve"/>
      <point x="283" y="573"/>
      <point x="304" y="582"/>
      <point x="314" y="587" type="curve" smooth="yes"/>
      <point x="337" y="601"/>
      <point x="373" y="619"/>
      <point x="373" y="644" type="curve" smooth="yes"/>
      <point x="373" y="675"/>
      <point x="348" y="685"/>
      <point x="329" y="685" type="curve" smooth="yes"/>
      <point x="319" y="685"/>
      <point x="307" y="682"/>
      <point x="301" y="678" type="curve" smooth="yes"/>
      <point x="288" y="669"/>
      <point x="268" y="647"/>
      <point x="244" y="631" type="curve"/>
      <point x="244" y="660"/>
      <point x="256" y="675"/>
      <point x="256" y="695" type="curve" smooth="yes"/>
      <point x="256" y="712"/>
      <point x="232" y="740"/>
      <point x="206" y="740" type="curve" smooth="yes"/>
      <point x="171" y="740"/>
      <point x="161" y="709"/>
      <point x="161" y="677" type="curve" smooth="yes"/>
      <point x="161" y="669"/>
      <point x="164" y="650"/>
      <point x="166" y="628" type="curve"/>
      <point x="126" y="654"/>
      <point x="106" y="672"/>
      <point x="89" y="672" type="curve" smooth="yes"/>
      <point x="59" y="672"/>
      <point x="44" y="654"/>
      <point x="44" y="636" type="curve" smooth="yes"/>
      <point x="44" y="617"/>
      <point x="53" y="605"/>
      <point x="67" y="597" type="curve" smooth="yes"/>
      <point x="81" y="585"/>
      <point x="120" y="567"/>
      <point x="135" y="558" type="curve"/>
      <point x="132" y="556"/>
      <point x="129" y="555"/>
      <point x="124" y="552" type="curve" smooth="yes"/>
      <point x="95" y="537"/>
      <point x="47" y="522"/>
      <point x="47" y="487" type="curve" smooth="yes"/>
      <point x="47" y="463"/>
      <point x="64" y="441"/>
      <point x="88" y="441" type="curve" smooth="yes"/>
      <point x="116" y="441"/>
      <point x="150" y="473"/>
      <point x="170" y="490" type="curve"/>
      <point x="170" y="458"/>
      <point x="168" y="444"/>
      <point x="171" y="422" type="curve" smooth="yes"/>
      <point x="174" y="373"/>
      <point x="203" y="365"/>
      <point x="215" y="365" type="curve" smooth="yes"/>
      <point x="244" y="365"/>
      <point x="258" y="396"/>
      <point x="258" y="416" type="curve" smooth="yes"/>
      <point x="258" y="431"/>
      <point x="248" y="459"/>
      <point x="246" y="495" type="curve"/>
      <point x="258" y="482" type="line"/>
      <point x="292" y="458"/>
      <point x="317" y="440"/>
      <point x="339" y="440" type="curve" smooth="yes"/>
      <point x="367" y="440"/>
      <point x="381" y="453"/>
    </contour>
  </outline>
</glyph>
<glyph name="plus" format="1">
  <advance width="695"/>
  <unicode hex="002B"/>
  <outline>
    <contour>
      <point x="87" y="336" type="curve" smooth="yes"/>
      <point x="87" y="290"/>
      <point x="113" y="272"/>
      <point x="147" y="272" type="curve" smooth="yes"/>
      <point x="170" y="272"/>
      <point x="235" y="276"/>
      <point x="292" y="281" type="curve"/>
      <point x="284" y="218"/>
      <point x="277" y="159"/>
      <point x="277" y="126" type="curve" smooth="yes"/>
      <point x="277" y="83"/>
      <point x="315" y="47"/>
      <point x="343" y="47" type="curve" smooth="yes"/>
      <point x="368" y="47"/>
      <point x="394" y="83"/>
      <point x="394" y="101" type="curve" smooth="yes"/>
      <point x="394" y="121"/>
      <point x="393" y="128"/>
      <point x="393" y="134" type="curve" smooth="yes"/>
      <point x="393" y="161"/>
      <point x="399" y="226"/>
      <point x="407" y="290" type="curve"/>
      <point x="447" y="290"/>
      <point x="479" y="287"/>
      <point x="510" y="287" type="curve" smooth="yes"/>
      <point x="529" y="287"/>
      <point x="544" y="281"/>
      <point x="559" y="281" type="curve" smooth="yes"/>
      <point x="582" y="281"/>
      <point x="609" y="306"/>
      <point x="609" y="339" type="curve" smooth="yes"/>
      <point x="609" y="352"/>
      <point x="599" y="399"/>
      <point x="569" y="399" type="curve" smooth="yes"/>
      <point x="552" y="399"/>
      <point x="536" y="393"/>
      <point x="520" y="393" type="curve" smooth="yes"/>
      <point x="503" y="393"/>
      <point x="466" y="391"/>
      <point x="419" y="389" type="curve"/>
      <point x="424" y="435"/>
      <point x="434" y="478"/>
      <point x="434" y="520" type="curve" smooth="yes"/>
      <point x="434" y="560"/>
      <point x="412" y="601"/>
      <point x="376" y="601" type="curve" smooth="yes"/>
      <point x="356" y="601"/>
      <point x="311" y="573"/>
      <point x="311" y="534" type="curve" smooth="yes"/>
      <point x="311" y="482"/>
      <point x="312" y="463"/>
      <point x="312" y="445" type="curve" smooth="yes"/>
      <point x="312" y="430"/>
      <point x="310" y="407"/>
      <point x="307" y="383" type="curve"/>
      <point x="296" y="382"/>
      <point x="278" y="381"/>
      <point x="265" y="381" type="curve" smooth="yes"/>
      <point x="231" y="381"/>
      <point x="189" y="387"/>
      <point x="146" y="387" type="curve" smooth="yes"/>
      <point x="127" y="387"/>
      <point x="87" y="374"/>
    </contour>
  </outline>
</glyph>
<glyph name="comma" format="1">
  <advance width="188"/>
  <unicode hex="002C"/>
  <outline>
    <contour>
      <point x="36" y="10" type="curve" smooth="yes"/>
      <point x="21" y="-54"/>
      <point x="-2" y="-98"/>
      <point x="-2" y="-109" type="curve" smooth="yes"/>
      <point x="-2" y="-135"/>
      <point x="14" y="-148"/>
      <point x="40" y="-148" type="curve" smooth="yes"/>
      <point x="57" y="-148"/>
      <point x="84" y="-142"/>
      <point x="94" y="-108" type="curve" smooth="yes"/>
      <point x="107" y="-65"/>
      <point x="115" y="-43"/>
      <point x="129" y="-17" type="curve" smooth="yes"/>
      <point x="145" y="11"/>
      <point x="159" y="32"/>
      <point x="159" y="60" type="curve" smooth="yes"/>
      <point x="159" y="100"/>
      <point x="139" y="113"/>
      <point x="102" y="113" type="curve" smooth="yes"/>
      <point x="45" y="113"/>
      <point x="43" y="40"/>
    </contour>
  </outline>
</glyph>
<glyph name="hyphen" format="1">
  <advance width="460"/>
  <unicode hex="002D"/>
  <outline>
    <contour>
      <point x="419" y="291" type="curve" smooth="yes"/>
      <point x="419" y="325"/>
      <point x="397" y="348"/>
      <point x="349" y="348" type="curve" smooth="yes"/>
      <point x="325" y="348"/>
      <point x="303" y="345"/>
      <point x="281" y="345" type="curve" smooth="yes"/>
      <point x="280" y="345"/>
      <point x="167" y="344"/>
      <point x="109" y="338" type="curve"/>
      <point x="62" y="335"/>
      <point x="44" y="310"/>
      <point x="44" y="281" type="curve" smooth="yes"/>
      <point x="44" y="247"/>
      <point x="76" y="227"/>
      <point x="103" y="227" type="curve" smooth="yes"/>
      <point x="137" y="227"/>
      <point x="151" y="239"/>
      <point x="299" y="239" type="curve" smooth="yes"/>
      <point x="324" y="239"/>
      <point x="345" y="229"/>
      <point x="367" y="229" type="curve" smooth="yes"/>
      <point x="388" y="229"/>
      <point x="419" y="257"/>
    </contour>
  </outline>
</glyph>
<glyph name="period" format="1">
  <advance width="201"/>
  <unicode hex="002E"/>
  <outline>
    <contour>
      <point x="102" y="120" type="curve" smooth="yes"/>
      <point x="68" y="120"/>
      <point x="44" y="107"/>
      <point x="40" y="79" type="curve" smooth="yes"/>
      <point x="38" y="61"/>
      <point x="30" y="47"/>
      <point x="30" y="30" type="curve" smooth="yes"/>
      <point x="30" y="9"/>
      <point x="42" y="-15"/>
      <point x="78" y="-15" type="curve" smooth="yes"/>
      <point x="84" y="-15"/>
      <point x="124" y="-14"/>
      <point x="138" y="2" type="curve" smooth="yes"/>
      <point x="154" y="21"/>
      <point x="171" y="35"/>
      <point x="171" y="54" type="curve" smooth="yes"/>
      <point x="171" y="96"/>
      <point x="133" y="120"/>
    </contour>
  </outline>
</glyph>
<glyph name="slash" format="1">
  <advance width="451"/>
  <unicode hex="002F"/>
  <outline>
    <contour>
      <point x="354" y="741" type="curve" smooth="yes"/>
      <point x="322" y="741"/>
      <point x="292" y="719"/>
      <point x="292" y="695" type="curve" smooth="yes"/>
      <point x="292" y="673"/>
      <point x="289" y="650"/>
      <point x="283" y="635" type="curve" smooth="yes"/>
      <point x="282" y="632"/>
      <point x="171" y="309"/>
      <point x="152" y="263" type="curve" smooth="yes"/>
      <point x="68" y="56"/>
      <point x="47" y="20"/>
      <point x="14" y="-20" type="curve" smooth="yes"/>
      <point x="8" y="-26"/>
      <point x="-3" y="-45"/>
      <point x="-3" y="-76" type="curve" smooth="yes"/>
      <point x="-3" y="-97"/>
      <point x="24" y="-129"/>
      <point x="59" y="-129" type="curve" smooth="yes"/>
      <point x="119" y="-129"/>
      <point x="164" y="28"/>
      <point x="184" y="70" type="curve" smooth="yes"/>
      <point x="227" y="161"/>
      <point x="377" y="582"/>
      <point x="382" y="599" type="curve" smooth="yes"/>
      <point x="390" y="626"/>
      <point x="414" y="651"/>
      <point x="414" y="678" type="curve" smooth="yes"/>
      <point x="414" y="712"/>
      <point x="384" y="741"/>
    </contour>
  </outline>
</glyph>
<glyph name="zero" format="1">
  <advance width="560"/>
  <unicode hex="0030"/>
  <outline>
    <contour>
      <point x="225" y="716" type="curve" smooth="yes"/>
      <point x="183" y="716"/>
      <point x="108" y="686"/>
      <point x="108" y="645" type="curve" smooth="yes"/>
      <point x="108" y="614"/>
      <point x="123" y="587"/>
      <point x="144" y="587" type="curve" smooth="yes"/>
      <point x="159" y="587"/>
      <point x="170" y="590"/>
      <point x="183" y="594" type="curve" smooth="yes"/>
      <point x="198" y="599"/>
      <point x="213" y="604"/>
      <point x="229" y="604" type="curve" smooth="yes"/>
      <point x="359" y="604"/>
      <point x="420" y="412"/>
      <point x="420" y="318" type="curve" smooth="yes"/>
      <point x="420" y="209"/>
      <point x="351" y="88"/>
      <point x="250" y="88" type="curve" smooth="yes"/>
      <point x="187" y="88"/>
      <point x="137" y="158"/>
      <point x="137" y="248" type="curve" smooth="yes"/>
      <point x="137" y="358"/>
      <point x="166" y="422"/>
      <point x="191" y="459" type="curve" smooth="yes"/>
      <point x="203" y="477"/>
      <point x="212" y="491"/>
      <point x="212" y="506" type="curve" smooth="yes"/>
      <point x="212" y="533"/>
      <point x="194" y="574"/>
      <point x="145" y="574" type="curve"/>
      <point x="84" y="574"/>
      <point x="30" y="451"/>
      <point x="30" y="266" type="curve" smooth="yes"/>
      <point x="30" y="125"/>
      <point x="109" y="-17"/>
      <point x="260" y="-17" type="curve" smooth="yes"/>
      <point x="460" y="-17"/>
      <point x="530" y="219"/>
      <point x="530" y="305" type="curve" smooth="yes"/>
      <point x="530" y="539"/>
      <point x="365" y="716"/>
    </contour>
  </outline>
</glyph>
<glyph name="one" format="1">
  <advance width="330"/>
  <unicode hex="0031"/>
  <outline>
    <contour>
      <point x="156" y="730" type="curve" smooth="yes"/>
      <point x="122" y="730"/>
      <point x="98" y="694"/>
      <point x="98" y="671" type="curve" smooth="yes"/>
      <point x="98" y="663"/>
      <point x="100" y="652"/>
      <point x="103" y="640" type="curve" smooth="yes"/>
      <point x="110" y="611"/>
      <point x="115" y="568"/>
      <point x="115" y="515" type="curve" smooth="yes"/>
      <point x="115" y="469"/>
      <point x="112" y="391"/>
      <point x="109" y="320" type="curve" smooth="yes"/>
      <point x="107" y="268"/>
      <point x="106" y="229"/>
      <point x="106" y="208" type="curve" smooth="yes"/>
      <point x="106" y="181"/>
      <point x="112" y="157"/>
      <point x="112" y="130" type="curve" smooth="yes"/>
      <point x="112" y="111"/>
      <point x="101" y="94"/>
      <point x="101" y="73" type="curve" smooth="yes"/>
      <point x="101" y="47"/>
      <point x="140" y="-5"/>
      <point x="171" y="-5" type="curve" smooth="yes"/>
      <point x="195" y="-5"/>
      <point x="243" y="19"/>
      <point x="243" y="46" type="curve" smooth="yes"/>
      <point x="243" y="94"/>
      <point x="217" y="135"/>
      <point x="217" y="182" type="curve" smooth="yes"/>
      <point x="217" y="201"/>
      <point x="223" y="333"/>
      <point x="229" y="450" type="curve" smooth="yes"/>
      <point x="234" y="546"/>
      <point x="237" y="636"/>
      <point x="237" y="649" type="curve" smooth="yes"/>
      <point x="237" y="683"/>
      <point x="188" y="730"/>
    </contour>
  </outline>
</glyph>
<glyph name="two" format="1">
  <advance width="540"/>
  <unicode hex="0032"/>
  <outline>
    <contour>
      <point x="271" y="730" type="curve" smooth="yes"/>
      <point x="178" y="730"/>
      <point x="85" y="707"/>
      <point x="85" y="649" type="curve" smooth="yes"/>
      <point x="85" y="618"/>
      <point x="102" y="563"/>
      <point x="138" y="563" type="curve" smooth="yes"/>
      <point x="180" y="563"/>
      <point x="183" y="603"/>
      <point x="209" y="615" type="curve" smooth="yes"/>
      <point x="221" y="620"/>
      <point x="252" y="625"/>
      <point x="279" y="625" type="curve" smooth="yes"/>
      <point x="310" y="625"/>
      <point x="361" y="600"/>
      <point x="361" y="516" type="curve" smooth="yes"/>
      <point x="361" y="406"/>
      <point x="213" y="269"/>
      <point x="119" y="187" type="curve" smooth="yes"/>
      <point x="94" y="166"/>
      <point x="68" y="137"/>
      <point x="42" y="121" type="curve" smooth="yes"/>
      <point x="31" y="114"/>
      <point x="6" y="110"/>
      <point x="6" y="83" type="curve" smooth="yes"/>
      <point x="6" y="46"/>
      <point x="31" y="-8"/>
      <point x="79" y="-8" type="curve" smooth="yes"/>
      <point x="174" y="-8"/>
      <point x="259" y="5"/>
      <point x="345" y="5" type="curve" smooth="yes"/>
      <point x="404" y="5"/>
      <point x="428" y="4"/>
      <point x="456" y="4" type="curve" smooth="yes"/>
      <point x="494" y="4"/>
      <point x="508" y="45"/>
      <point x="508" y="65" type="curve" smooth="yes"/>
      <point x="508" y="108"/>
      <point x="479" y="131"/>
      <point x="453" y="131" type="curve" smooth="yes"/>
      <point x="432" y="131"/>
      <point x="415" y="112"/>
      <point x="387" y="111" type="curve" smooth="yes"/>
      <point x="377" y="110"/>
      <point x="243" y="105"/>
      <point x="167" y="101" type="curve"/>
      <point x="196" y="131"/>
      <point x="224" y="156"/>
      <point x="258" y="186" type="curve" smooth="yes"/>
      <point x="356" y="270"/>
      <point x="478" y="377"/>
      <point x="478" y="522" type="curve" smooth="yes"/>
      <point x="478" y="649"/>
      <point x="397" y="730"/>
    </contour>
  </outline>
</glyph>
<glyph name="three" format="1">
  <advance width="567"/>
  <unicode hex="0033"/>
  <outline>
    <contour>
      <point x="256" y="721" type="curve" smooth="yes"/>
      <point x="172" y="721"/>
      <point x="63" y="712"/>
      <point x="63" y="641" type="curve" smooth="yes"/>
      <point x="63" y="595"/>
      <point x="98" y="561"/>
      <point x="126" y="561" type="curve" smooth="yes"/>
      <point x="158" y="561"/>
      <point x="166" y="598"/>
      <point x="187" y="611" type="curve" smooth="yes"/>
      <point x="196" y="617"/>
      <point x="235" y="620"/>
      <point x="255" y="620" type="curve" smooth="yes"/>
      <point x="325" y="620"/>
      <point x="350" y="596"/>
      <point x="350" y="567" type="curve" smooth="yes"/>
      <point x="350" y="461"/>
      <point x="219" y="409"/>
      <point x="158" y="402" type="curve" smooth="yes"/>
      <point x="124" y="397"/>
      <point x="112" y="369"/>
      <point x="112" y="351" type="curve" smooth="yes"/>
      <point x="112" y="337"/>
      <point x="143" y="280"/>
      <point x="174" y="280" type="curve" smooth="yes"/>
      <point x="184" y="280"/>
      <point x="192" y="284"/>
      <point x="204" y="289" type="curve" smooth="yes"/>
      <point x="220" y="298"/>
      <point x="245" y="310"/>
      <point x="294" y="310" type="curve" smooth="yes"/>
      <point x="341" y="310"/>
      <point x="428" y="251"/>
      <point x="428" y="194" type="curve" smooth="yes"/>
      <point x="428" y="135"/>
      <point x="351" y="85"/>
      <point x="259" y="85" type="curve" smooth="yes"/>
      <point x="213" y="85"/>
      <point x="159" y="92"/>
      <point x="143" y="98" type="curve"/>
      <point x="117" y="105"/>
      <point x="116" y="143"/>
      <point x="70" y="143" type="curve" smooth="yes"/>
      <point x="40" y="143"/>
      <point x="4" y="109"/>
      <point x="4" y="69" type="curve" smooth="yes"/>
      <point x="4" y="-1"/>
      <point x="115" y="-14"/>
      <point x="253" y="-14" type="curve" smooth="yes"/>
      <point x="359" y="-14"/>
      <point x="538" y="29"/>
      <point x="538" y="190" type="curve" smooth="yes"/>
      <point x="538" y="296"/>
      <point x="457" y="364"/>
      <point x="368" y="395" type="curve"/>
      <point x="422" y="438"/>
      <point x="464" y="501"/>
      <point x="464" y="563" type="curve" smooth="yes"/>
      <point x="464" y="640"/>
      <point x="402" y="721"/>
    </contour>
  </outline>
</glyph>
<glyph name="four" format="1">
  <advance width="655"/>
  <unicode hex="0034"/>
  <outline>
    <contour>
      <point x="490" y="580" type="curve" smooth="yes"/>
      <point x="452" y="580"/>
      <point x="423" y="540"/>
      <point x="423" y="521" type="curve" smooth="yes"/>
      <point x="423" y="485"/>
      <point x="429" y="457"/>
      <point x="429" y="425" type="curve" smooth="yes"/>
      <point x="429" y="407"/>
      <point x="426" y="381"/>
      <point x="422" y="338" type="curve"/>
      <point x="358" y="336"/>
      <point x="278" y="333"/>
      <point x="200" y="331" type="curve"/>
      <point x="254" y="402"/>
      <point x="342" y="523"/>
      <point x="370" y="547" type="curve" smooth="yes"/>
      <point x="401" y="573"/>
      <point x="468" y="604"/>
      <point x="468" y="655" type="curve" smooth="yes"/>
      <point x="468" y="685"/>
      <point x="454" y="720"/>
      <point x="403" y="720" type="curve" smooth="yes"/>
      <point x="366" y="720"/>
      <point x="325" y="669"/>
      <point x="313" y="648" type="curve" smooth="yes"/>
      <point x="303" y="634"/>
      <point x="256" y="575"/>
      <point x="215" y="524" type="curve" smooth="yes"/>
      <point x="177" y="478"/>
      <point x="91" y="351"/>
      <point x="49" y="330" type="curve" smooth="yes"/>
      <point x="47" y="328"/>
      <point x="20" y="315"/>
      <point x="20" y="294" type="curve" smooth="yes"/>
      <point x="20" y="276"/>
      <point x="39" y="208"/>
      <point x="88" y="208" type="curve" smooth="yes"/>
      <point x="100" y="208"/>
      <point x="134" y="211"/>
      <point x="220" y="219" type="curve" smooth="yes"/>
      <point x="313" y="230"/>
      <point x="366" y="235"/>
      <point x="387" y="235" type="curve"/>
      <point x="411" y="235" type="line"/>
      <point x="401" y="151"/>
      <point x="393" y="80"/>
      <point x="393" y="52" type="curve" smooth="yes"/>
      <point x="393" y="15"/>
      <point x="418" y="-15"/>
      <point x="446" y="-15" type="curve" smooth="yes"/>
      <point x="476" y="-15"/>
      <point x="508" y="11"/>
      <point x="510" y="46" type="curve" smooth="yes"/>
      <point x="513" y="88"/>
      <point x="515" y="124"/>
      <point x="519" y="163" type="curve" smooth="yes"/>
      <point x="522" y="189"/>
      <point x="524" y="213"/>
      <point x="527" y="241" type="curve"/>
      <point x="549" y="243"/>
      <point x="567" y="244"/>
      <point x="586" y="244" type="curve" smooth="yes"/>
      <point x="617" y="244"/>
      <point x="634" y="285"/>
      <point x="634" y="305" type="curve" smooth="yes"/>
      <point x="634" y="326"/>
      <point x="609" y="353"/>
      <point x="588" y="353" type="curve" smooth="yes"/>
      <point x="575" y="353"/>
      <point x="549" y="348"/>
      <point x="534" y="347" type="curve"/>
      <point x="535" y="368"/>
      <point x="536" y="379"/>
      <point x="536" y="390" type="curve" smooth="yes"/>
      <point x="536" y="447"/>
      <point x="554" y="475"/>
      <point x="554" y="519" type="curve" smooth="yes"/>
      <point x="554" y="546"/>
      <point x="521" y="580"/>
    </contour>
  </outline>
</glyph>
<glyph name="five" format="1">
  <advance width="605"/>
  <unicode hex="0035"/>
  <outline>
    <contour>
      <point x="204" y="635" type="curve" smooth="yes"/>
      <point x="164" y="635"/>
      <point x="159" y="537"/>
      <point x="139" y="500" type="curve" smooth="yes"/>
      <point x="131" y="483"/>
      <point x="115" y="460"/>
      <point x="97" y="436" type="curve" smooth="yes"/>
      <point x="73" y="404"/>
      <point x="51" y="376"/>
      <point x="51" y="358" type="curve" smooth="yes"/>
      <point x="51" y="335"/>
      <point x="93" y="283"/>
      <point x="119" y="283" type="curve" smooth="yes"/>
      <point x="130" y="283"/>
      <point x="141" y="288"/>
      <point x="157" y="294" type="curve" smooth="yes"/>
      <point x="188" y="306"/>
      <point x="239" y="324"/>
      <point x="316" y="324" type="curve" smooth="yes"/>
      <point x="385" y="324"/>
      <point x="439" y="289"/>
      <point x="439" y="247" type="curve" smooth="yes"/>
      <point x="439" y="130"/>
      <point x="300" y="91"/>
      <point x="211" y="91" type="curve" smooth="yes"/>
      <point x="152" y="91"/>
      <point x="122" y="103"/>
      <point x="115" y="111" type="curve" smooth="yes"/>
      <point x="97" y="128"/>
      <point x="93" y="156"/>
      <point x="64" y="156" type="curve" smooth="yes"/>
      <point x="28" y="156"/>
      <point x="6" y="123"/>
      <point x="6" y="80" type="curve" smooth="yes"/>
      <point x="6" y="52"/>
      <point x="44" y="-15"/>
      <point x="219" y="-15" type="curve" smooth="yes"/>
      <point x="391" y="-15"/>
      <point x="555" y="108"/>
      <point x="555" y="235" type="curve" smooth="yes"/>
      <point x="555" y="365"/>
      <point x="444" y="425"/>
      <point x="290" y="425" type="curve" smooth="yes"/>
      <point x="266" y="425"/>
      <point x="239" y="421"/>
      <point x="205" y="411" type="curve"/>
      <point x="230" y="454"/>
      <point x="278" y="509"/>
      <point x="278" y="556" type="curve" smooth="yes"/>
      <point x="278" y="601"/>
      <point x="236" y="635"/>
    </contour>
    <contour>
      <point x="280" y="619" type="curve" smooth="yes"/>
      <point x="279" y="587"/>
      <point x="303" y="563"/>
      <point x="324" y="563" type="curve" smooth="yes"/>
      <point x="346" y="563"/>
      <point x="361" y="579"/>
      <point x="370" y="584" type="curve" smooth="yes"/>
      <point x="387" y="593"/>
      <point x="436" y="601"/>
      <point x="484" y="601" type="curve" smooth="yes"/>
      <point x="509" y="601"/>
      <point x="530" y="590"/>
      <point x="553" y="590" type="curve" smooth="yes"/>
      <point x="588" y="590"/>
      <point x="610" y="633"/>
      <point x="610" y="653" type="curve" smooth="yes"/>
      <point x="610" y="683"/>
      <point x="580" y="716"/>
      <point x="522" y="716" type="curve" smooth="yes"/>
      <point x="458" y="716"/>
      <point x="412" y="710"/>
      <point x="372" y="700" type="curve" smooth="yes"/>
      <point x="331" y="690"/>
      <point x="282" y="663"/>
    </contour>
  </outline>
</glyph>
<glyph name="six" format="1">
  <advance width="525"/>
  <unicode hex="0036"/>
  <outline>
    <contour>
      <point x="341" y="730" type="curve" smooth="yes"/>
      <point x="328" y="730"/>
      <point x="311" y="725"/>
      <point x="301" y="720" type="curve" smooth="yes"/>
      <point x="262" y="701"/>
      <point x="148" y="509"/>
      <point x="119" y="443" type="curve" smooth="yes"/>
      <point x="99" y="398"/>
      <point x="76" y="345"/>
      <point x="63" y="284" type="curve"/>
      <point x="37" y="260"/>
      <point x="25" y="237"/>
      <point x="25" y="205" type="curve" smooth="yes"/>
      <point x="25" y="187"/>
      <point x="38" y="166"/>
      <point x="56" y="155" type="curve"/>
      <point x="78" y="56"/>
      <point x="159" y="-11"/>
      <point x="268" y="-11" type="curve" smooth="yes"/>
      <point x="379" y="-11"/>
      <point x="497" y="37"/>
      <point x="497" y="138" type="curve" smooth="yes"/>
      <point x="497" y="278"/>
      <point x="358" y="342"/>
      <point x="269" y="342" type="curve" smooth="yes"/>
      <point x="251" y="342"/>
      <point x="218" y="341"/>
      <point x="188" y="334" type="curve"/>
      <point x="222" y="431"/>
      <point x="267" y="535"/>
      <point x="342" y="599" type="curve" smooth="yes"/>
      <point x="346" y="601"/>
      <point x="353" y="604"/>
      <point x="359" y="608" type="curve" smooth="yes"/>
      <point x="375" y="616"/>
      <point x="391" y="627"/>
      <point x="391" y="653" type="curve" smooth="yes"/>
      <point x="391" y="686"/>
      <point x="382" y="730"/>
    </contour>
    <contour>
      <point x="259" y="241" type="curve" smooth="yes"/>
      <point x="323" y="241"/>
      <point x="387" y="194"/>
      <point x="387" y="143" type="curve" smooth="yes"/>
      <point x="387" y="117"/>
      <point x="356" y="88"/>
      <point x="274" y="88" type="curve" smooth="yes"/>
      <point x="205" y="88"/>
      <point x="163" y="127"/>
      <point x="163" y="172" type="curve" smooth="yes"/>
      <point x="163" y="190"/>
      <point x="163" y="205"/>
      <point x="168" y="227" type="curve"/>
      <point x="192" y="236"/>
      <point x="222" y="241"/>
    </contour>
  </outline>
</glyph>
<glyph name="seven" format="1">
  <advance width="503"/>
  <unicode hex="0037"/>
  <outline>
    <contour>
      <point x="49" y="708" type="curve" smooth="yes"/>
      <point x="18" y="708"/>
      <point x="-5" y="679"/>
      <point x="-5" y="642" type="curve" smooth="yes"/>
      <point x="-5" y="615"/>
      <point x="18" y="573"/>
      <point x="54" y="573" type="curve" smooth="yes"/>
      <point x="132" y="573"/>
      <point x="207" y="601"/>
      <point x="290" y="601" type="curve" smooth="yes"/>
      <point x="306" y="601"/>
      <point x="320" y="603"/>
      <point x="347" y="604" type="curve"/>
      <point x="280" y="463"/>
      <point x="196" y="111"/>
      <point x="196" y="80" type="curve" smooth="yes"/>
      <point x="195" y="44"/>
      <point x="222" y="-8"/>
      <point x="261" y="-8" type="curve" smooth="yes"/>
      <point x="295" y="-8"/>
      <point x="339" y="29"/>
      <point x="339" y="57" type="curve" smooth="yes"/>
      <point x="339" y="68"/>
      <point x="335" y="78"/>
      <point x="331" y="87" type="curve" smooth="yes"/>
      <point x="327" y="97"/>
      <point x="322" y="106"/>
      <point x="322" y="114" type="curve" smooth="yes"/>
      <point x="322" y="135"/>
      <point x="356" y="293"/>
      <point x="377" y="368" type="curve" smooth="yes"/>
      <point x="404" y="459"/>
      <point x="434" y="536"/>
      <point x="466" y="607" type="curve" smooth="yes"/>
      <point x="478" y="633"/>
      <point x="483" y="644"/>
      <point x="483" y="653" type="curve" smooth="yes"/>
      <point x="483" y="691"/>
      <point x="444" y="730"/>
      <point x="412" y="730" type="curve" smooth="yes"/>
      <point x="389" y="730"/>
      <point x="369" y="716"/>
      <point x="349" y="707" type="curve"/>
      <point x="316" y="702"/>
      <point x="134" y="692"/>
      <point x="114" y="692" type="curve" smooth="yes"/>
      <point x="92" y="692"/>
      <point x="73" y="708"/>
    </contour>
  </outline>
</glyph>
<glyph name="eight" format="1">
  <advance width="533"/>
  <unicode hex="0038"/>
  <outline>
    <contour>
      <point x="450" y="538" type="curve" smooth="yes"/>
      <point x="450" y="635"/>
      <point x="376" y="715"/>
      <point x="277" y="715" type="curve" smooth="yes"/>
      <point x="210" y="715"/>
      <point x="39" y="640"/>
      <point x="39" y="466" type="curve" smooth="yes"/>
      <point x="39" y="358"/>
      <point x="115" y="303"/>
      <point x="168" y="274" type="curve"/>
      <point x="118" y="206"/>
      <point x="96" y="152"/>
      <point x="96" y="103" type="curve" smooth="yes"/>
      <point x="96" y="50"/>
      <point x="125" y="-18"/>
      <point x="264" y="-18" type="curve" smooth="yes"/>
      <point x="387" y="-18"/>
      <point x="486" y="64"/>
      <point x="486" y="150" type="curve" smooth="yes"/>
      <point x="486" y="230"/>
      <point x="393" y="280"/>
      <point x="325" y="313" type="curve"/>
      <point x="348" y="343"/>
      <point x="402" y="402"/>
      <point x="423" y="411" type="curve" smooth="yes"/>
      <point x="456" y="424"/>
      <point x="463" y="445"/>
      <point x="463" y="457" type="curve" smooth="yes"/>
      <point x="463" y="473"/>
      <point x="454" y="489"/>
      <point x="444" y="500" type="curve"/>
      <point x="448" y="516"/>
      <point x="450" y="527"/>
    </contour>
    <contour>
      <point x="373" y="125" type="curve" smooth="yes"/>
      <point x="373" y="87"/>
      <point x="310" y="75"/>
      <point x="268" y="75" type="curve" smooth="yes"/>
      <point x="232" y="75"/>
      <point x="205" y="92"/>
      <point x="205" y="110" type="curve" smooth="yes"/>
      <point x="205" y="148"/>
      <point x="221" y="180"/>
      <point x="257" y="228" type="curve"/>
      <point x="317" y="197"/>
      <point x="373" y="161"/>
    </contour>
    <contour>
      <point x="239" y="360" type="curve"/>
      <point x="179" y="388"/>
      <point x="139" y="443"/>
      <point x="139" y="494" type="curve" smooth="yes"/>
      <point x="139" y="556"/>
      <point x="231" y="609"/>
      <point x="280" y="609" type="curve" smooth="yes"/>
      <point x="305" y="609"/>
      <point x="335" y="591"/>
      <point x="335" y="567" type="curve" smooth="yes"/>
      <point x="335" y="532"/>
      <point x="325" y="510"/>
      <point x="314" y="486" type="curve" smooth="yes"/>
      <point x="308" y="475"/>
      <point x="303" y="463"/>
      <point x="303" y="451" type="curve" smooth="yes"/>
      <point x="303" y="447"/>
      <point x="303" y="441"/>
      <point x="307" y="437" type="curve"/>
      <point x="281" y="410"/>
      <point x="261" y="387"/>
    </contour>
  </outline>
</glyph>
<glyph name="nine" format="1">
  <advance width="510"/>
  <unicode hex="0039"/>
  <outline>
    <contour>
      <point x="401" y="607" type="curve" smooth="yes"/>
      <point x="401" y="677"/>
      <point x="310" y="718"/>
      <point x="246" y="718" type="curve" smooth="yes"/>
      <point x="119" y="718"/>
      <point x="15" y="632"/>
      <point x="15" y="527" type="curve" smooth="yes"/>
      <point x="15" y="426"/>
      <point x="71" y="370"/>
      <point x="167" y="370" type="curve" smooth="yes"/>
      <point x="219" y="370"/>
      <point x="274" y="384"/>
      <point x="335" y="412" type="curve"/>
      <point x="322" y="332"/>
      <point x="313" y="263"/>
      <point x="305" y="195" type="curve" smooth="yes"/>
      <point x="301" y="154"/>
      <point x="289" y="116"/>
      <point x="267" y="80" type="curve" smooth="yes"/>
      <point x="263" y="72"/>
      <point x="259" y="65"/>
      <point x="259" y="57" type="curve" smooth="yes"/>
      <point x="259" y="26"/>
      <point x="287" y="-30"/>
      <point x="328" y="-30" type="curve" smooth="yes"/>
      <point x="384" y="-30"/>
      <point x="390" y="78"/>
      <point x="390" y="101" type="curve" smooth="yes"/>
      <point x="390" y="104"/>
      <point x="390" y="112"/>
      <point x="399" y="143" type="curve" smooth="yes"/>
      <point x="414" y="207"/>
      <point x="422" y="267"/>
      <point x="433" y="326" type="curve" smooth="yes"/>
      <point x="443" y="378"/>
      <point x="449" y="429"/>
      <point x="451" y="449" type="curve" smooth="yes"/>
      <point x="452" y="454"/>
      <point x="457" y="466"/>
      <point x="461" y="470" type="curve" smooth="yes"/>
      <point x="466" y="477"/>
      <point x="469" y="481"/>
      <point x="469" y="494" type="curve" smooth="yes"/>
      <point x="469" y="514"/>
      <point x="445" y="577"/>
      <point x="419" y="577" type="curve" smooth="yes"/>
      <point x="410" y="577"/>
      <point x="393" y="561"/>
      <point x="388" y="555" type="curve"/>
      <point x="396" y="570"/>
      <point x="401" y="590"/>
    </contour>
    <contour>
      <point x="193" y="466" type="curve" smooth="yes"/>
      <point x="139" y="466"/>
      <point x="117" y="493"/>
      <point x="117" y="521" type="curve" smooth="yes"/>
      <point x="117" y="591"/>
      <point x="192" y="611"/>
      <point x="238" y="611" type="curve" smooth="yes"/>
      <point x="266" y="611"/>
      <point x="289" y="597"/>
      <point x="289" y="581" type="curve" smooth="yes"/>
      <point x="289" y="561"/>
      <point x="268" y="543"/>
      <point x="268" y="523" type="curve" smooth="yes"/>
      <point x="268" y="508"/>
      <point x="275" y="497"/>
      <point x="288" y="491" type="curve"/>
      <point x="252" y="473"/>
      <point x="223" y="466"/>
    </contour>
  </outline>
</glyph>
<glyph name="colon" format="1">
  <advance width="222"/>
  <unicode hex="003A"/>
  <outline>
    <contour>
      <point x="105" y="134" type="curve" smooth="yes"/>
      <point x="88" y="134"/>
      <point x="57" y="113"/>
      <point x="47" y="94" type="curve" smooth="yes"/>
      <point x="40" y="82"/>
      <point x="36" y="53"/>
      <point x="36" y="47" type="curve" smooth="yes"/>
      <point x="36" y="30"/>
      <point x="71" y="-11"/>
      <point x="105" y="-11" type="curve" smooth="yes"/>
      <point x="140" y="-11"/>
      <point x="179" y="26"/>
      <point x="179" y="49" type="curve" smooth="yes"/>
      <point x="179" y="60"/>
      <point x="171" y="67"/>
      <point x="171" y="76" type="curve" smooth="yes"/>
      <point x="170" y="97"/>
      <point x="130" y="134"/>
    </contour>
    <contour>
      <point x="108" y="439" type="curve" smooth="yes"/>
      <point x="82" y="439"/>
      <point x="66" y="425"/>
      <point x="60" y="415" type="curve" smooth="yes"/>
      <point x="56" y="407"/>
      <point x="46" y="385"/>
      <point x="46" y="354" type="curve" smooth="yes"/>
      <point x="46" y="334"/>
      <point x="71" y="300"/>
      <point x="91" y="303" type="curve" smooth="yes"/>
      <point x="106" y="305"/>
      <point x="114" y="296"/>
      <point x="124" y="296" type="curve" smooth="yes"/>
      <point x="140" y="297"/>
      <point x="182" y="322"/>
      <point x="182" y="352" type="curve" smooth="yes"/>
      <point x="182" y="384"/>
      <point x="158" y="439"/>
    </contour>
  </outline>
</glyph>
<glyph name="semicolon" format="1">
  <advance width="214"/>
  <unicode hex="003B"/>
  <outline>
    <contour>
      <point x="119" y="116" type="curve" smooth="yes"/>
      <point x="78" y="116"/>
      <point x="61" y="96"/>
      <point x="55" y="68" type="curve" smooth="yes"/>
      <point x="50" y="46"/>
      <point x="51" y="24"/>
      <point x="45" y="4" type="curve" smooth="yes"/>
      <point x="38" y="-18"/>
      <point x="41" y="-43"/>
      <point x="24" y="-75" type="curve" smooth="yes"/>
      <point x="18" y="-87"/>
      <point x="11" y="-93"/>
      <point x="11" y="-113" type="curve" smooth="yes"/>
      <point x="11" y="-128"/>
      <point x="18" y="-150"/>
      <point x="53" y="-150" type="curve" smooth="yes"/>
      <point x="92" y="-150"/>
      <point x="109" y="-111"/>
      <point x="131" y="-50" type="curve" smooth="yes"/>
      <point x="144" y="-16"/>
      <point x="171" y="37"/>
      <point x="171" y="57" type="curve" smooth="yes"/>
      <point x="171" y="78"/>
      <point x="156" y="116"/>
    </contour>
    <contour>
      <point x="98" y="443" type="curve" smooth="yes"/>
      <point x="67" y="443"/>
      <point x="39" y="398"/>
      <point x="39" y="379" type="curve" smooth="yes"/>
      <point x="39" y="319"/>
      <point x="72" y="300"/>
      <point x="117" y="300" type="curve" smooth="yes"/>
      <point x="149" y="300"/>
      <point x="175" y="337"/>
      <point x="175" y="355" type="curve" smooth="yes"/>
      <point x="175" y="380"/>
      <point x="169" y="411"/>
      <point x="143" y="417" type="curve" smooth="yes"/>
      <point x="126" y="421"/>
      <point x="114" y="443"/>
    </contour>
  </outline>
</glyph>
<glyph name="less" format="1">
  <advance width="695"/>
  <unicode hex="003C"/>
  <outline>
    <contour>
      <point x="550" y="596" type="curve" smooth="yes"/>
      <point x="535" y="596"/>
      <point x="504" y="581"/>
      <point x="489" y="566" type="curve" smooth="yes"/>
      <point x="467" y="543"/>
      <point x="173" y="404"/>
      <point x="142" y="402" type="curve" smooth="yes"/>
      <point x="93" y="400"/>
      <point x="66" y="374"/>
      <point x="66" y="327" type="curve" smooth="yes"/>
      <point x="66" y="254"/>
      <point x="137" y="273"/>
      <point x="168" y="255" type="curve" smooth="yes"/>
      <point x="184" y="248"/>
      <point x="432" y="94"/>
      <point x="480" y="64" type="curve" smooth="yes"/>
      <point x="497" y="53"/>
      <point x="524" y="38"/>
      <point x="550" y="38" type="curve" smooth="yes"/>
      <point x="590" y="38"/>
      <point x="602" y="75"/>
      <point x="602" y="97" type="curve" smooth="yes"/>
      <point x="602" y="141"/>
      <point x="491" y="182"/>
      <point x="456" y="204" type="curve" smooth="yes"/>
      <point x="404" y="236"/>
      <point x="307" y="293"/>
      <point x="242" y="332" type="curve"/>
      <point x="297" y="358"/>
      <point x="339" y="375"/>
      <point x="378" y="392" type="curve" smooth="yes"/>
      <point x="434" y="416"/>
      <point x="528" y="459"/>
      <point x="545" y="461" type="curve"/>
      <point x="583" y="462"/>
      <point x="601" y="524"/>
      <point x="601" y="539" type="curve" smooth="yes"/>
      <point x="601" y="565"/>
      <point x="576" y="596"/>
    </contour>
  </outline>
</glyph>
<glyph name="equal" format="1">
  <advance width="695"/>
  <unicode hex="003D"/>
  <outline>
    <contour>
      <point x="137" y="274" type="curve" smooth="yes"/>
      <point x="118" y="274"/>
      <point x="86" y="259"/>
      <point x="86" y="219" type="curve" smooth="yes"/>
      <point x="86" y="168"/>
      <point x="107" y="148"/>
      <point x="145" y="148" type="curve" smooth="yes"/>
      <point x="207" y="148"/>
      <point x="256" y="169"/>
      <point x="331" y="169" type="curve" smooth="yes"/>
      <point x="404" y="169"/>
      <point x="467" y="163"/>
      <point x="531" y="163" type="curve" smooth="yes"/>
      <point x="573" y="163"/>
      <point x="600" y="188"/>
      <point x="600" y="227" type="curve" smooth="yes"/>
      <point x="600" y="260"/>
      <point x="581" y="279"/>
      <point x="533" y="280" type="curve" smooth="yes"/>
      <point x="436" y="280"/>
      <point x="345" y="269"/>
      <point x="255" y="269" type="curve" smooth="yes"/>
      <point x="208" y="269"/>
      <point x="172" y="274"/>
    </contour>
    <contour>
      <point x="85" y="443" type="curve" smooth="yes"/>
      <point x="85" y="401"/>
      <point x="119" y="375"/>
      <point x="152" y="375" type="curve" smooth="yes"/>
      <point x="239" y="375"/>
      <point x="232" y="391"/>
      <point x="361" y="391" type="curve" smooth="yes"/>
      <point x="426" y="391"/>
      <point x="486" y="388"/>
      <point x="546" y="388" type="curve" smooth="yes"/>
      <point x="581" y="388"/>
      <point x="609" y="424"/>
      <point x="609" y="454" type="curve" smooth="yes"/>
      <point x="609" y="472"/>
      <point x="586" y="506"/>
      <point x="536" y="506" type="curve" smooth="yes"/>
      <point x="472" y="506"/>
      <point x="413" y="499"/>
      <point x="354" y="499" type="curve" smooth="yes"/>
      <point x="272" y="499"/>
      <point x="208" y="502"/>
      <point x="144" y="502" type="curve" smooth="yes"/>
      <point x="95" y="502"/>
      <point x="85" y="470"/>
    </contour>
  </outline>
</glyph>
<glyph name="greater" format="1">
  <advance width="695"/>
  <unicode hex="003E"/>
  <outline>
    <contour>
      <point x="175" y="593" type="curve" smooth="yes"/>
      <point x="139" y="593"/>
      <point x="111" y="559"/>
      <point x="111" y="533" type="curve" smooth="yes"/>
      <point x="111" y="510"/>
      <point x="131" y="473"/>
      <point x="162" y="460" type="curve" smooth="yes"/>
      <point x="231" y="433"/>
      <point x="393" y="365"/>
      <point x="476" y="322" type="curve"/>
      <point x="411" y="283"/>
      <point x="360" y="250"/>
      <point x="327" y="234" type="curve" smooth="yes"/>
      <point x="263" y="201"/>
      <point x="204" y="166"/>
      <point x="140" y="137" type="curve"/>
      <point x="80" y="108"/>
      <point x="78" y="16"/>
      <point x="148" y="16" type="curve" smooth="yes"/>
      <point x="198" y="16"/>
      <point x="295" y="96"/>
      <point x="399" y="158" type="curve" smooth="yes"/>
      <point x="448" y="187"/>
      <point x="556" y="268"/>
      <point x="585" y="269" type="curve" smooth="yes"/>
      <point x="626" y="271"/>
      <point x="627" y="301"/>
      <point x="627" y="323" type="curve" smooth="yes"/>
      <point x="627" y="344"/>
      <point x="618" y="384"/>
      <point x="589" y="390" type="curve"/>
      <point x="498" y="417"/>
      <point x="424" y="456"/>
      <point x="380" y="478" type="curve" smooth="yes"/>
      <point x="256" y="541"/>
      <point x="210" y="593"/>
    </contour>
  </outline>
</glyph>
<glyph name="question" format="1">
  <advance width="410"/>
  <unicode hex="003F"/>
  <outline>
    <contour>
      <point x="149" y="118" type="curve" smooth="yes"/>
      <point x="133" y="118"/>
      <point x="75" y="88"/>
      <point x="75" y="65" type="curve" smooth="yes"/>
      <point x="75" y="40"/>
      <point x="99" y="13"/>
      <point x="98" y="5" type="curve" smooth="yes"/>
      <point x="99" y="-12"/>
      <point x="133" y="-18"/>
      <point x="140" y="-18" type="curve" smooth="yes"/>
      <point x="176" y="-18"/>
      <point x="216" y="9"/>
      <point x="216" y="42" type="curve" smooth="yes"/>
      <point x="216" y="71"/>
      <point x="184" y="118"/>
    </contour>
    <contour>
      <point x="154" y="739" type="curve" smooth="yes"/>
      <point x="147" y="739"/>
      <point x="46" y="737"/>
      <point x="37" y="706" type="curve" smooth="yes"/>
      <point x="32" y="694"/>
      <point x="23" y="674"/>
      <point x="23" y="664" type="curve" smooth="yes"/>
      <point x="23" y="645"/>
      <point x="48" y="593"/>
      <point x="86" y="593" type="curve" smooth="yes"/>
      <point x="121" y="593"/>
      <point x="131" y="635"/>
      <point x="184" y="635" type="curve" smooth="yes"/>
      <point x="219" y="635"/>
      <point x="265" y="605"/>
      <point x="265" y="545" type="curve" smooth="yes"/>
      <point x="265" y="502"/>
      <point x="237" y="463"/>
      <point x="189" y="452" type="curve" smooth="yes"/>
      <point x="135" y="441"/>
      <point x="80" y="428"/>
      <point x="80" y="369" type="curve" smooth="yes"/>
      <point x="80" y="321"/>
      <point x="94" y="267"/>
      <point x="93" y="223" type="curve" smooth="yes"/>
      <point x="92" y="182"/>
      <point x="117" y="172"/>
      <point x="151" y="172" type="curve" smooth="yes"/>
      <point x="189" y="172"/>
      <point x="201" y="197"/>
      <point x="201" y="230" type="curve" smooth="yes"/>
      <point x="201" y="251"/>
      <point x="191" y="270"/>
      <point x="191" y="290" type="curve" smooth="yes"/>
      <point x="191" y="304"/>
      <point x="190" y="340"/>
      <point x="197" y="350" type="curve" smooth="yes"/>
      <point x="204" y="360"/>
      <point x="230" y="365"/>
      <point x="261" y="374" type="curve" smooth="yes"/>
      <point x="302" y="386"/>
      <point x="371" y="432"/>
      <point x="371" y="534" type="curve" smooth="yes"/>
      <point x="371" y="670"/>
      <point x="243" y="739"/>
    </contour>
  </outline>
</glyph>
<glyph name="at" format="1">
  <advance width="951"/>
  <unicode hex="0040"/>
  <outline>
    <contour>
      <point x="707" y="94" type="curve" smooth="yes"/>
      <point x="852" y="94"/>
      <point x="902" y="248"/>
      <point x="902" y="378" type="curve" smooth="yes"/>
      <point x="902" y="573"/>
      <point x="719" y="734"/>
      <point x="493" y="734" type="curve" smooth="yes"/>
      <point x="158" y="734"/>
      <point x="50" y="450"/>
      <point x="50" y="304" type="curve" smooth="yes"/>
      <point x="50" y="117"/>
      <point x="188" y="-75"/>
      <point x="449" y="-75" type="curve" smooth="yes"/>
      <point x="521" y="-75"/>
      <point x="537" y="-36"/>
      <point x="537" y="-17" type="curve" smooth="yes"/>
      <point x="537" y="54"/>
      <point x="436" y="11"/>
      <point x="399" y="18" type="curve" smooth="yes"/>
      <point x="189" y="55"/>
      <point x="156" y="199"/>
      <point x="156" y="319" type="curve" smooth="yes"/>
      <point x="156" y="421"/>
      <point x="238" y="637"/>
      <point x="480" y="637" type="curve" smooth="yes"/>
      <point x="669" y="637"/>
      <point x="803" y="523"/>
      <point x="803" y="365" type="curve" smooth="yes"/>
      <point x="803" y="279"/>
      <point x="780" y="187"/>
      <point x="715" y="187" type="curve" smooth="yes"/>
      <point x="671" y="187"/>
      <point x="669" y="253"/>
      <point x="670" y="306" type="curve" smooth="yes"/>
      <point x="671" y="359"/>
      <point x="696" y="396"/>
      <point x="696" y="438" type="curve" smooth="yes"/>
      <point x="696" y="460"/>
      <point x="680" y="483"/>
      <point x="653" y="483" type="curve" smooth="yes"/>
      <point x="649" y="483"/>
      <point x="644" y="481"/>
      <point x="640" y="478" type="curve"/>
      <point x="621" y="502"/>
      <point x="577" y="542"/>
      <point x="526" y="542" type="curve" smooth="yes"/>
      <point x="395" y="542"/>
      <point x="259" y="388"/>
      <point x="259" y="237" type="curve" smooth="yes"/>
      <point x="259" y="151"/>
      <point x="319" y="107"/>
      <point x="381" y="107" type="curve" smooth="yes"/>
      <point x="473" y="107"/>
      <point x="556" y="187"/>
      <point x="590" y="232" type="curve"/>
      <point x="595" y="155"/>
      <point x="629" y="94"/>
    </contour>
    <contour>
      <point x="526" y="456" type="curve" smooth="yes"/>
      <point x="546" y="456"/>
      <point x="569" y="432"/>
      <point x="569" y="413" type="curve" smooth="yes"/>
      <point x="569" y="334"/>
      <point x="475" y="196"/>
      <point x="390" y="196" type="curve" smooth="yes"/>
      <point x="368" y="196"/>
      <point x="361" y="219"/>
      <point x="361" y="231" type="curve" smooth="yes"/>
      <point x="361" y="306"/>
      <point x="434" y="456"/>
    </contour>
  </outline>
</glyph>
<glyph name="A" format="1">
  <advance width="588"/>
  <unicode hex="0041"/>
  <outline>
    <contour>
      <point x="260" y="771" type="move" name="top"/>
    </contour>
    <contour>
      <point x="281" y="721" type="curve" smooth="yes"/>
      <point x="276" y="721"/>
      <point x="269" y="720"/>
      <point x="262" y="716" type="curve"/>
      <point x="252" y="728"/>
      <point x="237" y="735"/>
      <point x="220" y="735" type="curve" smooth="yes"/>
      <point x="177" y="735"/>
      <point x="166" y="683"/>
      <point x="161" y="660" type="curve" smooth="yes"/>
      <point x="136" y="550"/>
      <point x="118" y="475"/>
      <point x="106" y="406" type="curve" smooth="yes"/>
      <point x="88" y="298"/>
      <point x="67" y="207"/>
      <point x="40" y="127" type="curve" smooth="yes"/>
      <point x="35" y="107"/>
      <point x="25" y="90"/>
      <point x="25" y="70" type="curve" smooth="yes"/>
      <point x="25" y="44"/>
      <point x="50" y="-17"/>
      <point x="91" y="-17" type="curve" smooth="yes"/>
      <point x="128" y="-17"/>
      <point x="162" y="26"/>
      <point x="162" y="60" type="curve" smooth="yes"/>
      <point x="162" y="69"/>
      <point x="163" y="107"/>
      <point x="174" y="185" type="curve"/>
      <point x="196" y="185"/>
      <point x="214" y="187"/>
      <point x="234" y="188" type="curve" smooth="yes"/>
      <point x="258" y="190"/>
      <point x="287" y="193"/>
      <point x="315" y="193" type="curve" smooth="yes"/>
      <point x="414" y="193" type="line"/>
      <point x="434" y="148"/>
      <point x="446" y="112"/>
      <point x="452" y="84" type="curve" smooth="yes"/>
      <point x="459" y="34"/>
      <point x="486" y="-4"/>
      <point x="528" y="-4" type="curve" smooth="yes"/>
      <point x="564" y="-4"/>
      <point x="590" y="27"/>
      <point x="590" y="65" type="curve" smooth="yes"/>
      <point x="590" y="82"/>
      <point x="580" y="104"/>
      <point x="559" y="134" type="curve" smooth="yes"/>
      <point x="553" y="142"/>
      <point x="551" y="146"/>
      <point x="548" y="152" type="curve" smooth="yes"/>
      <point x="532" y="192"/>
      <point x="469" y="331"/>
      <point x="447" y="377" type="curve" smooth="yes"/>
      <point x="424" y="424"/>
      <point x="374" y="578"/>
      <point x="366" y="605" type="curve" smooth="yes"/>
      <point x="359" y="622"/>
      <point x="361" y="642"/>
      <point x="355" y="659" type="curve" smooth="yes"/>
      <point x="345" y="685"/>
      <point x="322" y="721"/>
    </contour>
    <contour>
      <point x="200" y="336" type="curve" smooth="yes"/>
      <point x="214" y="411"/>
      <point x="229" y="478"/>
      <point x="245" y="532" type="curve" smooth="yes"/>
      <point x="249" y="544"/>
      <point x="252" y="554"/>
      <point x="254" y="563" type="curve"/>
      <point x="260" y="547"/>
      <point x="270" y="533"/>
      <point x="277" y="515" type="curve" smooth="yes"/>
      <point x="296" y="465"/>
      <point x="339" y="363"/>
      <point x="367" y="297" type="curve"/>
      <point x="338" y="294"/>
      <point x="312" y="294"/>
      <point x="279" y="294" type="curve" smooth="yes"/>
      <point x="265" y="294"/>
      <point x="238" y="294"/>
      <point x="192" y="295" type="curve"/>
      <point x="196" y="313"/>
      <point x="198" y="325"/>
    </contour>
  </outline>
</glyph>
<glyph name="C" format="1">
  <advance width="537"/>
  <unicode hex="0043"/>
  <outline>
    <contour>
      <point x="340" y="766" type="move" name="top"/>
    </contour>
    <contour>
      <point x="344" y="730" type="curve" smooth="yes"/>
      <point x="139" y="730"/>
      <point x="34" y="540"/>
      <point x="34" y="351" type="curve" smooth="yes"/>
      <point x="34" y="102"/>
      <point x="142" y="-17"/>
      <point x="366" y="-17" type="curve" smooth="yes"/>
      <point x="433" y="-17"/>
      <point x="530" y="-7"/>
      <point x="530" y="45" type="curve" smooth="yes"/>
      <point x="530" y="91"/>
      <point x="502" y="119"/>
      <point x="458" y="119" type="curve" smooth="yes"/>
      <point x="418" y="119"/>
      <point x="378" y="94"/>
      <point x="336" y="94" type="curve" smooth="yes"/>
      <point x="191" y="94"/>
      <point x="150" y="184"/>
      <point x="150" y="353" type="curve" smooth="yes"/>
      <point x="150" y="485"/>
      <point x="213" y="623"/>
      <point x="322" y="623" type="curve" smooth="yes"/>
      <point x="364" y="623"/>
      <point x="387" y="583"/>
      <point x="422" y="583" type="curve" smooth="yes"/>
      <point x="464" y="583"/>
      <point x="486" y="625"/>
      <point x="486" y="646" type="curve" smooth="yes"/>
      <point x="486" y="729"/>
      <point x="400" y="730"/>
    </contour>
  </outline>
</glyph>
<glyph name="D" format="1">
  <advance width="607"/>
  <unicode hex="0044"/>
  <outline>
    <contour>
      <point x="252" y="739" type="move" name="top"/>
    </contour>
    <contour>
      <point x="49" y="660" type="curve" smooth="yes"/>
      <point x="49" y="645"/>
      <point x="52" y="602"/>
      <point x="56" y="552" type="curve" smooth="yes"/>
      <point x="65" y="449"/>
      <point x="76" y="347"/>
      <point x="79" y="232" type="curve"/>
      <point x="73" y="216"/>
      <point x="62" y="202"/>
      <point x="62" y="184" type="curve" smooth="yes"/>
      <point x="62" y="161"/>
      <point x="95" y="113"/>
      <point x="137" y="113" type="curve" smooth="yes"/>
      <point x="178" y="113"/>
      <point x="190" y="176"/>
      <point x="190" y="203" type="curve" smooth="yes"/>
      <point x="190" y="284"/>
      <point x="173" y="364"/>
      <point x="173" y="438" type="curve" smooth="yes"/>
      <point x="173" y="527"/>
      <point x="173" y="557"/>
      <point x="172" y="590" type="curve" smooth="yes"/>
      <point x="172" y="600"/>
      <point x="178" y="609"/>
      <point x="187" y="609" type="curve" smooth="yes"/>
      <point x="204" y="609"/>
      <point x="277" y="593"/>
      <point x="325" y="566" type="curve" smooth="yes"/>
      <point x="393" y="527"/>
      <point x="474" y="465"/>
      <point x="474" y="333" type="curve" smooth="yes"/>
      <point x="474" y="182"/>
      <point x="273" y="88"/>
      <point x="173" y="88" type="curve" smooth="yes"/>
      <point x="150" y="88"/>
      <point x="142" y="108"/>
      <point x="109" y="108" type="curve" smooth="yes"/>
      <point x="87" y="108"/>
      <point x="70" y="67"/>
      <point x="70" y="56" type="curve" smooth="yes"/>
      <point x="70" y="36"/>
      <point x="89" y="-18"/>
      <point x="130" y="-18" type="curve" smooth="yes"/>
      <point x="324" y="-18"/>
      <point x="576" y="92"/>
      <point x="576" y="318" type="curve" smooth="yes"/>
      <point x="576" y="491"/>
      <point x="488" y="622"/>
      <point x="334" y="677" type="curve" smooth="yes"/>
      <point x="255" y="705"/>
      <point x="168" y="730"/>
      <point x="113" y="730" type="curve" smooth="yes"/>
      <point x="73" y="730"/>
      <point x="49" y="708"/>
    </contour>
  </outline>
</glyph>
<glyph name="E" format="1">
  <advance width="487"/>
  <unicode hex="0045"/>
  <outline>
    <contour>
      <point x="283" y="752" type="move" name="top"/>
    </contour>
    <contour>
      <point x="362" y="415" type="curve" smooth="yes"/>
      <point x="330" y="415"/>
      <point x="306" y="408"/>
      <point x="278" y="404" type="curve" smooth="yes"/>
      <point x="253" y="400"/>
      <point x="230" y="397"/>
      <point x="211" y="396" type="curve" smooth="yes"/>
      <point x="194" y="396"/>
      <point x="186" y="392"/>
      <point x="180" y="386" type="curve"/>
      <point x="184" y="425"/>
      <point x="187" y="470"/>
      <point x="191" y="501" type="curve" smooth="yes"/>
      <point x="195" y="533"/>
      <point x="199" y="564"/>
      <point x="200" y="589" type="curve"/>
      <point x="206" y="589" type="line" smooth="yes"/>
      <point x="257" y="589"/>
      <point x="294" y="625"/>
      <point x="340" y="625" type="curve" smooth="yes"/>
      <point x="365" y="625"/>
      <point x="387" y="618"/>
      <point x="413" y="618" type="curve" smooth="yes"/>
      <point x="441" y="618"/>
      <point x="471" y="638"/>
      <point x="471" y="667" type="curve" smooth="yes"/>
      <point x="471" y="696"/>
      <point x="451" y="730"/>
      <point x="392" y="730" type="curve" smooth="yes"/>
      <point x="342" y="730"/>
      <point x="296" y="713"/>
      <point x="244" y="713" type="curve" smooth="yes"/>
      <point x="227" y="713"/>
      <point x="211" y="719"/>
      <point x="192" y="719" type="curve" smooth="yes"/>
      <point x="174" y="719"/>
      <point x="156" y="701"/>
      <point x="146" y="677" type="curve"/>
      <point x="141" y="679"/>
      <point x="134" y="679"/>
      <point x="132" y="679" type="curve" smooth="yes"/>
      <point x="99" y="677"/>
      <point x="69" y="637"/>
      <point x="69" y="603" type="curve" smooth="yes"/>
      <point x="69" y="581"/>
      <point x="86" y="563"/>
      <point x="86" y="541" type="curve" smooth="yes"/>
      <point x="86" y="526"/>
      <point x="80" y="472"/>
      <point x="76" y="421" type="curve" smooth="yes"/>
      <point x="70" y="348"/>
      <point x="61" y="275"/>
      <point x="53" y="212" type="curve" smooth="yes"/>
      <point x="40" y="120"/>
      <point x="39" y="96"/>
      <point x="39" y="86" type="curve" smooth="yes"/>
      <point x="39" y="58"/>
      <point x="69" y="-22"/>
      <point x="120" y="-22" type="curve" smooth="yes"/>
      <point x="142" y="-22"/>
      <point x="157" y="-20"/>
      <point x="173" y="-17" type="curve" smooth="yes"/>
      <point x="201" y="-13"/>
      <point x="245" y="-7"/>
      <point x="369" y="-7" type="curve" smooth="yes"/>
      <point x="392" y="-7"/>
      <point x="426" y="7"/>
      <point x="426" y="37" type="curve" smooth="yes"/>
      <point x="426" y="82"/>
      <point x="363" y="120"/>
      <point x="337" y="120" type="curve" smooth="yes"/>
      <point x="316" y="120"/>
      <point x="304" y="102"/>
      <point x="287" y="96" type="curve"/>
      <point x="264" y="93"/>
      <point x="241" y="91"/>
      <point x="221" y="91" type="curve" smooth="yes"/>
      <point x="207" y="91"/>
      <point x="176" y="91"/>
      <point x="165" y="98" type="curve" smooth="yes"/>
      <point x="161" y="100"/>
      <point x="155" y="112"/>
      <point x="155" y="126" type="curve" smooth="yes"/>
      <point x="155" y="147"/>
      <point x="160" y="201"/>
      <point x="166" y="252" type="curve" smooth="yes"/>
      <point x="167" y="259"/>
      <point x="167" y="271"/>
      <point x="168" y="281" type="curve"/>
      <point x="172" y="277"/>
      <point x="183" y="275"/>
      <point x="191" y="275" type="curve" smooth="yes"/>
      <point x="240" y="275"/>
      <point x="284" y="310"/>
      <point x="333" y="310" type="curve" smooth="yes"/>
      <point x="351" y="310"/>
      <point x="369" y="307"/>
      <point x="389" y="307" type="curve" smooth="yes"/>
      <point x="408" y="307"/>
      <point x="431" y="324"/>
      <point x="431" y="346" type="curve" smooth="yes"/>
      <point x="431" y="392"/>
      <point x="406" y="415"/>
    </contour>
  </outline>
</glyph>
<glyph name="F" format="1">
  <advance width="500"/>
  <unicode hex="0046"/>
  <outline>
    <contour>
      <point x="410" y="436" type="curve" smooth="yes"/>
      <point x="400" y="436"/>
      <point x="384" y="430"/>
      <point x="362" y="424" type="curve" smooth="yes"/>
      <point x="310" y="408"/>
      <point x="256" y="404"/>
      <point x="201" y="404" type="curve" smooth="yes"/>
      <point x="190" y="404" type="line"/>
      <point x="192" y="434"/>
      <point x="195" y="457"/>
      <point x="195" y="475" type="curve" smooth="yes"/>
      <point x="195" y="549"/>
      <point x="192" y="573"/>
      <point x="197" y="581" type="curve" smooth="yes"/>
      <point x="210" y="605"/>
      <point x="321" y="618"/>
      <point x="360" y="618" type="curve" smooth="yes"/>
      <point x="385" y="618"/>
      <point x="404" y="601"/>
      <point x="427" y="601" type="curve" smooth="yes"/>
      <point x="456" y="601"/>
      <point x="490" y="624"/>
      <point x="490" y="654" type="curve" smooth="yes"/>
      <point x="490" y="701"/>
      <point x="461" y="731"/>
      <point x="413" y="731" type="curve" smooth="yes"/>
      <point x="366" y="731"/>
      <point x="227" y="709"/>
      <point x="186" y="695" type="curve" smooth="yes"/>
      <point x="160" y="686"/>
      <point x="137" y="668"/>
      <point x="121" y="653" type="curve"/>
      <point x="100" y="646"/>
      <point x="73" y="628"/>
      <point x="73" y="570" type="curve" smooth="yes"/>
      <point x="73" y="517"/>
      <point x="83" y="470"/>
      <point x="83" y="422" type="curve" smooth="yes"/>
      <point x="83" y="418"/>
      <point x="82" y="409"/>
      <point x="81" y="394" type="curve"/>
      <point x="66" y="381"/>
      <point x="57" y="363"/>
      <point x="57" y="346" type="curve" smooth="yes"/>
      <point x="57" y="333"/>
      <point x="61" y="322"/>
      <point x="70" y="311" type="curve"/>
      <point x="69" y="284"/>
      <point x="64" y="262"/>
      <point x="62" y="240" type="curve" smooth="yes"/>
      <point x="52" y="159"/>
      <point x="43" y="96"/>
      <point x="43" y="79" type="curve" smooth="yes"/>
      <point x="43" y="39"/>
      <point x="65" y="-3"/>
      <point x="96" y="-3" type="curve" smooth="yes"/>
      <point x="120" y="-3"/>
      <point x="165" y="20"/>
      <point x="165" y="46" type="curve" smooth="yes"/>
      <point x="165" y="75"/>
      <point x="158" y="101"/>
      <point x="158" y="126" type="curve" smooth="yes"/>
      <point x="158" y="168"/>
      <point x="166" y="226"/>
      <point x="174" y="288" type="curve"/>
      <point x="186" y="291"/>
      <point x="194" y="293"/>
      <point x="205" y="297" type="curve" smooth="yes"/>
      <point x="230" y="305"/>
      <point x="267" y="313"/>
      <point x="401" y="313" type="curve" smooth="yes"/>
      <point x="437" y="313"/>
      <point x="467" y="337"/>
      <point x="467" y="365" type="curve" smooth="yes"/>
      <point x="467" y="398"/>
      <point x="446" y="436"/>
    </contour>
  </outline>
</glyph>
<glyph name="G" format="1">
  <advance width="641"/>
  <unicode hex="0047"/>
  <outline>
    <contour>
      <point x="385" y="766" type="move" name="top"/>
    </contour>
    <contour>
      <point x="422" y="731" type="curve" smooth="yes"/>
      <point x="263" y="731"/>
      <point x="31" y="474"/>
      <point x="31" y="298" type="curve" smooth="yes"/>
      <point x="31" y="90"/>
      <point x="153" y="-10"/>
      <point x="405" y="-10" type="curve" smooth="yes"/>
      <point x="438" y="-10"/>
      <point x="475" y="5"/>
      <point x="475" y="38" type="curve" smooth="yes"/>
      <point x="475" y="66"/>
      <point x="457" y="117"/>
      <point x="424" y="117" type="curve" smooth="yes"/>
      <point x="405" y="117"/>
      <point x="401" y="96"/>
      <point x="378" y="96" type="curve" smooth="yes"/>
      <point x="223" y="96"/>
      <point x="143" y="156"/>
      <point x="143" y="281" type="curve" smooth="yes"/>
      <point x="143" y="343"/>
      <point x="193" y="452"/>
      <point x="247" y="505" type="curve" smooth="yes"/>
      <point x="302" y="560"/>
      <point x="370" y="612"/>
      <point x="411" y="612" type="curve" smooth="yes"/>
      <point x="429" y="612"/>
      <point x="444" y="596"/>
      <point x="461" y="596" type="curve" smooth="yes"/>
      <point x="480" y="596"/>
      <point x="518" y="617"/>
      <point x="518" y="654" type="curve" smooth="yes"/>
      <point x="518" y="688"/>
      <point x="474" y="731"/>
    </contour>
    <contour>
      <point x="605" y="109" type="curve" smooth="yes"/>
      <point x="604" y="161"/>
      <point x="600" y="203"/>
      <point x="600" y="246" type="curve" smooth="yes"/>
      <point x="600" y="332"/>
      <point x="555" y="399"/>
      <point x="477" y="399" type="curve" smooth="yes"/>
      <point x="418" y="399"/>
      <point x="389" y="403"/>
      <point x="363" y="408" type="curve" smooth="yes"/>
      <point x="342" y="412"/>
      <point x="326" y="414"/>
      <point x="304" y="414" type="curve" smooth="yes"/>
      <point x="256" y="414"/>
      <point x="204" y="386"/>
      <point x="204" y="350" type="curve" smooth="yes"/>
      <point x="204" y="317"/>
      <point x="227" y="281"/>
      <point x="258" y="281" type="curve" smooth="yes"/>
      <point x="276" y="281"/>
      <point x="289" y="287"/>
      <point x="300" y="292" type="curve" smooth="yes"/>
      <point x="320" y="303"/>
      <point x="442" y="309"/>
      <point x="464" y="291" type="curve"/>
      <point x="482" y="276"/>
      <point x="499" y="262"/>
      <point x="499" y="191" type="curve" smooth="yes"/>
      <point x="499" y="146"/>
      <point x="486" y="106"/>
      <point x="486" y="65" type="curve" smooth="yes"/>
      <point x="486" y="30"/>
      <point x="524" y="8"/>
      <point x="557" y="8" type="curve" smooth="yes"/>
      <point x="605" y="8"/>
      <point x="605" y="74"/>
    </contour>
  </outline>
</glyph>
<glyph name="H" format="1">
  <advance width="634"/>
  <unicode hex="0048"/>
  <outline>
    <contour>
      <point x="293" y="764" type="move" name="top"/>
    </contour>
    <contour>
      <point x="467" y="734" type="curve" smooth="yes"/>
      <point x="432" y="734"/>
      <point x="409" y="712"/>
      <point x="409" y="678" type="curve" smooth="yes"/>
      <point x="409" y="661"/>
      <point x="415" y="643"/>
      <point x="422" y="630" type="curve" smooth="yes"/>
      <point x="440" y="595"/>
      <point x="454" y="542"/>
      <point x="454" y="424" type="curve" smooth="yes"/>
      <point x="454" y="414"/>
      <point x="454" y="399"/>
      <point x="453" y="384" type="curve"/>
      <point x="410" y="380"/>
      <point x="367" y="378"/>
      <point x="317" y="378" type="curve" smooth="yes"/>
      <point x="264" y="378"/>
      <point x="227" y="378"/>
      <point x="185" y="379" type="curve"/>
      <point x="187" y="468"/>
      <point x="190" y="538"/>
      <point x="193" y="565" type="curve" smooth="yes"/>
      <point x="195" y="583"/>
      <point x="204" y="598"/>
      <point x="204" y="616" type="curve" smooth="yes"/>
      <point x="204" y="635"/>
      <point x="183" y="713"/>
      <point x="129" y="713" type="curve" smooth="yes"/>
      <point x="103" y="713"/>
      <point x="65" y="671"/>
      <point x="64" y="649" type="curve" smooth="yes"/>
      <point x="64" y="642"/>
      <point x="66" y="621"/>
      <point x="69" y="599" type="curve"/>
      <point x="74" y="557"/>
      <point x="79" y="501"/>
      <point x="79" y="476" type="curve" smooth="yes"/>
      <point x="79" y="460"/>
      <point x="79" y="411"/>
      <point x="77" y="353" type="curve"/>
      <point x="65" y="342"/>
      <point x="56" y="327"/>
      <point x="56" y="313" type="curve" smooth="yes"/>
      <point x="56" y="304"/>
      <point x="60" y="291"/>
      <point x="74" y="282" type="curve"/>
      <point x="73" y="235"/>
      <point x="74" y="185"/>
      <point x="68" y="138" type="curve"/>
      <point x="59" y="122"/>
      <point x="44" y="107"/>
      <point x="44" y="88" type="curve" smooth="yes"/>
      <point x="44" y="69"/>
      <point x="75" y="13"/>
      <point x="112" y="13" type="curve" smooth="yes"/>
      <point x="159" y="13"/>
      <point x="181" y="69"/>
      <point x="181" y="110" type="curve" smooth="yes"/>
      <point x="181" y="121"/>
      <point x="182" y="159"/>
      <point x="183" y="269" type="curve"/>
      <point x="227" y="273"/>
      <point x="269" y="277"/>
      <point x="317" y="277" type="curve" smooth="yes"/>
      <point x="366" y="277"/>
      <point x="406" y="277"/>
      <point x="452" y="275" type="curve"/>
      <point x="450" y="209"/>
      <point x="449" y="141"/>
      <point x="449" y="71" type="curve" smooth="yes"/>
      <point x="449" y="29"/>
      <point x="478" y="-3"/>
      <point x="515" y="-3" type="curve" smooth="yes"/>
      <point x="538" y="-3"/>
      <point x="567" y="9"/>
      <point x="567" y="75" type="curve" smooth="yes"/>
      <point x="567" y="84"/>
      <point x="564" y="168"/>
      <point x="564" y="232" type="curve" smooth="yes"/>
      <point x="564" y="260"/>
      <point x="564" y="288"/>
      <point x="564" y="301" type="curve"/>
      <point x="570" y="310"/>
      <point x="573" y="320"/>
      <point x="573" y="331" type="curve" smooth="yes"/>
      <point x="573" y="344"/>
      <point x="569" y="354"/>
      <point x="563" y="362" type="curve"/>
      <point x="563" y="496" type="line" smooth="yes"/>
      <point x="563" y="645"/>
      <point x="524" y="734"/>
    </contour>
  </outline>
</glyph>
<glyph name="I" format="1">
  <advance width="263"/>
  <unicode hex="0049"/>
  <outline>
    <contour>
      <point x="81" y="767" type="move" name="top"/>
    </contour>
    <contour>
      <point x="98" y="730" type="curve" smooth="yes"/>
      <point x="70" y="730"/>
      <point x="40" y="698"/>
      <point x="40" y="668" type="curve" smooth="yes"/>
      <point x="40" y="650"/>
      <point x="46" y="620"/>
      <point x="53" y="579" type="curve" smooth="yes"/>
      <point x="68" y="488"/>
      <point x="83" y="367"/>
      <point x="83" y="243" type="curve" smooth="yes"/>
      <point x="83" y="153"/>
      <point x="74" y="106"/>
      <point x="71" y="94" type="curve" smooth="yes"/>
      <point x="68" y="86"/>
      <point x="67" y="78"/>
      <point x="67" y="66" type="curve" smooth="yes"/>
      <point x="67" y="39"/>
      <point x="101" y="-9"/>
      <point x="142" y="-9" type="curve" smooth="yes"/>
      <point x="179" y="-9"/>
      <point x="197" y="39"/>
      <point x="197" y="82" type="curve" smooth="yes"/>
      <point x="197" y="101"/>
      <point x="193" y="206"/>
      <point x="189" y="294" type="curve" smooth="yes"/>
      <point x="187" y="347"/>
      <point x="186" y="366"/>
      <point x="186" y="380" type="curve" smooth="yes"/>
      <point x="182" y="504"/>
      <point x="178" y="597"/>
      <point x="169" y="674" type="curve" smooth="yes"/>
      <point x="165" y="706"/>
      <point x="128" y="730"/>
    </contour>
  </outline>
</glyph>
<glyph name="J" format="1">
  <advance width="601"/>
  <unicode hex="004A"/>
  <outline>
    <contour>
      <point x="361" y="752" type="move" name="top"/>
    </contour>
    <contour>
      <point x="134" y="727" type="curve" smooth="yes"/>
      <point x="106" y="727"/>
      <point x="84" y="692"/>
      <point x="84" y="662" type="curve" smooth="yes"/>
      <point x="84" y="630"/>
      <point x="126" y="596"/>
      <point x="154" y="596" type="curve" smooth="yes"/>
      <point x="173" y="596"/>
      <point x="187" y="602"/>
      <point x="202" y="607" type="curve" smooth="yes"/>
      <point x="234" y="617"/>
      <point x="267" y="618"/>
      <point x="304" y="618" type="curve"/>
      <point x="305" y="599"/>
      <point x="312" y="573"/>
      <point x="314" y="568" type="curve"/>
      <point x="336" y="442"/>
      <point x="334" y="287"/>
      <point x="334" y="215" type="curve" smooth="yes"/>
      <point x="334" y="133"/>
      <point x="318" y="68"/>
      <point x="235" y="68" type="curve" smooth="yes"/>
      <point x="202" y="68"/>
      <point x="158" y="82"/>
      <point x="102" y="111" type="curve" smooth="yes"/>
      <point x="82" y="121"/>
      <point x="65" y="138"/>
      <point x="42" y="138" type="curve" smooth="yes"/>
      <point x="10" y="138"/>
      <point x="-3" y="101"/>
      <point x="-3" y="66" type="curve" smooth="yes"/>
      <point x="-3" y="38"/>
      <point x="17" y="-5"/>
      <point x="64" y="-5" type="curve" smooth="yes"/>
      <point x="127" y="-5"/>
      <point x="184" y="-32"/>
      <point x="245" y="-32" type="curve" smooth="yes"/>
      <point x="284" y="-32"/>
      <point x="340" y="-18"/>
      <point x="365" y="0" type="curve" smooth="yes"/>
      <point x="437" y="55"/>
      <point x="446" y="91"/>
      <point x="446" y="178" type="curve" smooth="yes"/>
      <point x="446" y="185"/>
      <point x="445" y="204"/>
      <point x="441" y="262" type="curve" smooth="yes"/>
      <point x="439" y="300"/>
      <point x="429" y="436"/>
      <point x="429" y="528" type="curve" smooth="yes"/>
      <point x="429" y="562"/>
      <point x="429" y="575"/>
      <point x="431" y="587" type="curve" smooth="yes"/>
      <point x="433" y="594"/>
      <point x="435" y="605"/>
      <point x="434" y="616" type="curve"/>
      <point x="449" y="615"/>
      <point x="458" y="615"/>
      <point x="471" y="614" type="curve" smooth="yes"/>
      <point x="505" y="612"/>
      <point x="533" y="611"/>
      <point x="565" y="611" type="curve" smooth="yes"/>
      <point x="594" y="611"/>
      <point x="608" y="639"/>
      <point x="608" y="663" type="curve" smooth="yes"/>
      <point x="608" y="684"/>
      <point x="583" y="724"/>
      <point x="536" y="724" type="curve" smooth="yes"/>
      <point x="478" y="724"/>
      <point x="428" y="717"/>
      <point x="377" y="717" type="curve" smooth="yes"/>
      <point x="329" y="717"/>
      <point x="288" y="719"/>
      <point x="244" y="722" type="curve"/>
      <point x="205" y="725"/>
      <point x="169" y="727"/>
    </contour>
  </outline>
</glyph>
<glyph name="K" format="1">
  <advance width="547"/>
  <unicode hex="004B"/>
  <outline>
    <contour>
      <point x="456" y="731" type="curve" smooth="yes"/>
      <point x="423" y="731"/>
      <point x="409" y="696"/>
      <point x="394" y="674" type="curve"/>
      <point x="363" y="615"/>
      <point x="288" y="561"/>
      <point x="234" y="515" type="curve" smooth="yes"/>
      <point x="222" y="504"/>
      <point x="203" y="489"/>
      <point x="194" y="479" type="curve"/>
      <point x="187" y="674"/>
      <point x="163" y="731"/>
      <point x="122" y="731" type="curve" smooth="yes"/>
      <point x="111" y="731"/>
      <point x="105" y="728"/>
      <point x="98" y="724" type="curve" smooth="yes"/>
      <point x="94" y="721"/>
      <point x="90" y="721"/>
      <point x="83" y="719" type="curve" smooth="yes"/>
      <point x="63" y="714"/>
      <point x="46" y="684"/>
      <point x="46" y="661" type="curve" smooth="yes"/>
      <point x="46" y="649"/>
      <point x="50" y="637"/>
      <point x="54" y="625" type="curve" smooth="yes"/>
      <point x="62" y="598"/>
      <point x="86" y="522"/>
      <point x="86" y="371" type="curve"/>
      <point x="74" y="353"/>
      <point x="68" y="337"/>
      <point x="68" y="320" type="curve" smooth="yes"/>
      <point x="68" y="309"/>
      <point x="69" y="292"/>
      <point x="80" y="274" type="curve"/>
      <point x="75" y="229"/>
      <point x="69" y="185"/>
      <point x="60" y="127" type="curve" smooth="yes"/>
      <point x="57" y="102"/>
      <point x="53" y="73"/>
      <point x="53" y="63" type="curve" smooth="yes"/>
      <point x="53" y="28"/>
      <point x="70" y="-6"/>
      <point x="104" y="-6" type="curve" smooth="yes"/>
      <point x="146" y="-6"/>
      <point x="177" y="13"/>
      <point x="177" y="49" type="curve" smooth="yes"/>
      <point x="177" y="68"/>
      <point x="172" y="83"/>
      <point x="172" y="99" type="curve" smooth="yes"/>
      <point x="172" y="137"/>
      <point x="179" y="180"/>
      <point x="182" y="222" type="curve"/>
      <point x="224" y="206"/>
      <point x="284" y="166"/>
      <point x="307" y="152" type="curve" smooth="yes"/>
      <point x="333" y="137"/>
      <point x="397" y="81"/>
      <point x="413" y="63" type="curve" smooth="yes"/>
      <point x="448" y="19"/>
      <point x="474" y="-4"/>
      <point x="496" y="-4" type="curve" smooth="yes"/>
      <point x="520" y="-4"/>
      <point x="559" y="23"/>
      <point x="559" y="57" type="curve" smooth="yes"/>
      <point x="559" y="93"/>
      <point x="538" y="107"/>
      <point x="512" y="124" type="curve" smooth="yes"/>
      <point x="488" y="137"/>
      <point x="469" y="156"/>
      <point x="449" y="172" type="curve" smooth="yes"/>
      <point x="369" y="235"/>
      <point x="292" y="295"/>
      <point x="199" y="338" type="curve"/>
      <point x="281" y="425"/>
      <point x="378" y="514"/>
      <point x="482" y="592" type="curve"/>
      <point x="496" y="603"/>
      <point x="516" y="618"/>
      <point x="516" y="641" type="curve" smooth="yes"/>
      <point x="516" y="674"/>
      <point x="502" y="731"/>
    </contour>
  </outline>
</glyph>
<glyph name="L" format="1">
  <advance width="493"/>
  <unicode hex="004C"/>
  <outline>
    <contour>
      <point x="160" y="766" type="move" name="top"/>
    </contour>
    <contour>
      <point x="156" y="731" type="curve" smooth="yes"/>
      <point x="122" y="731"/>
      <point x="101" y="690"/>
      <point x="101" y="661" type="curve" smooth="yes"/>
      <point x="101" y="630"/>
      <point x="108" y="605"/>
      <point x="108" y="578" type="curve" smooth="yes"/>
      <point x="108" y="533"/>
      <point x="95" y="440"/>
      <point x="81" y="347" type="curve" smooth="yes"/>
      <point x="65" y="238"/>
      <point x="48" y="135"/>
      <point x="48" y="77" type="curve" smooth="yes"/>
      <point x="48" y="15"/>
      <point x="88" y="-15"/>
      <point x="112" y="-15" type="curve" smooth="yes"/>
      <point x="125" y="-15"/>
      <point x="134" y="-14"/>
      <point x="150" y="-11" type="curve" smooth="yes"/>
      <point x="174" y="-7"/>
      <point x="218" y="-1"/>
      <point x="380" y="-1" type="curve" smooth="yes"/>
      <point x="401" y="-1"/>
      <point x="417" y="-12"/>
      <point x="436" y="-12" type="curve" smooth="yes"/>
      <point x="465" y="-12"/>
      <point x="503" y="10"/>
      <point x="503" y="37" type="curve" smooth="yes"/>
      <point x="503" y="63"/>
      <point x="484" y="110"/>
      <point x="434" y="110" type="curve" smooth="yes"/>
      <point x="393" y="110"/>
      <point x="357" y="101"/>
      <point x="320" y="101" type="curve" smooth="yes"/>
      <point x="266" y="101"/>
      <point x="243" y="105"/>
      <point x="195" y="105" type="curve" smooth="yes"/>
      <point x="178" y="105"/>
      <point x="164" y="117"/>
      <point x="164" y="135" type="curve" smooth="yes"/>
      <point x="164" y="212"/>
      <point x="184" y="300"/>
      <point x="202" y="399" type="curve" smooth="yes"/>
      <point x="220" y="490"/>
      <point x="236" y="576"/>
      <point x="236" y="641" type="curve" smooth="yes"/>
      <point x="236" y="682"/>
      <point x="203" y="731"/>
    </contour>
  </outline>
</glyph>
<glyph name="M" format="1">
  <advance width="906"/>
  <unicode hex="004D"/>
  <outline>
    <contour>
      <point x="138" y="721" type="curve" smooth="yes"/>
      <point x="114" y="721"/>
      <point x="71" y="667"/>
      <point x="71" y="635" type="curve" smooth="yes"/>
      <point x="71" y="626"/>
      <point x="73" y="610"/>
      <point x="75" y="595" type="curve" smooth="yes"/>
      <point x="78" y="563"/>
      <point x="78" y="507"/>
      <point x="78" y="338" type="curve" smooth="yes"/>
      <point x="78" y="284"/>
      <point x="74" y="220"/>
      <point x="70" y="160" type="curve"/>
      <point x="68" y="131"/>
      <point x="65" y="99"/>
      <point x="65" y="58" type="curve" smooth="yes"/>
      <point x="65" y="30"/>
      <point x="101" y="-3"/>
      <point x="136" y="-3" type="curve" smooth="yes"/>
      <point x="152" y="-3"/>
      <point x="188" y="3"/>
      <point x="188" y="73" type="curve" smooth="yes"/>
      <point x="188" y="122"/>
      <point x="181" y="163"/>
      <point x="181" y="204" type="curve" smooth="yes"/>
      <point x="181" y="280"/>
      <point x="184" y="342"/>
      <point x="186" y="409" type="curve" smooth="yes"/>
      <point x="188" y="454"/>
      <point x="188" y="492"/>
      <point x="191" y="547" type="curve"/>
      <point x="232" y="495"/>
      <point x="264" y="444"/>
      <point x="294" y="394" type="curve" smooth="yes"/>
      <point x="406" y="200"/>
      <point x="442" y="188"/>
      <point x="460" y="188" type="curve" smooth="yes"/>
      <point x="521" y="188"/>
      <point x="542" y="254"/>
      <point x="563" y="295" type="curve" smooth="yes"/>
      <point x="603" y="367"/>
      <point x="644" y="443"/>
      <point x="701" y="543" type="curve"/>
      <point x="713" y="453"/>
      <point x="724" y="364"/>
      <point x="724" y="286" type="curve" smooth="yes"/>
      <point x="724" y="181"/>
      <point x="723" y="131"/>
      <point x="722" y="58" type="curve" smooth="yes"/>
      <point x="722" y="25"/>
      <point x="744" y="-18"/>
      <point x="787" y="-18" type="curve" smooth="yes"/>
      <point x="819" y="-18"/>
      <point x="842" y="18"/>
      <point x="842" y="49" type="curve" smooth="yes"/>
      <point x="842" y="348"/>
      <point x="808" y="428"/>
      <point x="808" y="592" type="curve" smooth="yes"/>
      <point x="808" y="608"/>
      <point x="807" y="631"/>
      <point x="810" y="656" type="curve"/>
      <point x="809" y="698"/>
      <point x="755" y="730"/>
      <point x="719" y="730" type="curve" smooth="yes"/>
      <point x="679" y="730"/>
      <point x="648" y="680"/>
      <point x="636" y="651" type="curve" smooth="yes"/>
      <point x="600" y="565"/>
      <point x="534" y="456"/>
      <point x="462" y="342" type="curve"/>
      <point x="406" y="423"/>
      <point x="361" y="494"/>
      <point x="322" y="555" type="curve"/>
      <point x="279" y="625"/>
      <point x="223" y="721"/>
    </contour>
  </outline>
</glyph>
<glyph name="O" format="1">
  <advance width="621"/>
  <unicode hex="004F"/>
  <outline>
    <contour>
      <point x="275" y="766" type="move" name="top"/>
    </contour>
    <contour>
      <point x="31" y="344" type="curve" smooth="yes"/>
      <point x="31" y="208"/>
      <point x="109" y="-9"/>
      <point x="316" y="-9" type="curve" smooth="yes"/>
      <point x="470" y="-9"/>
      <point x="590" y="136"/>
      <point x="590" y="321" type="curve" smooth="yes"/>
      <point x="590" y="479"/>
      <point x="540" y="598"/>
      <point x="439" y="674" type="curve" smooth="yes"/>
      <point x="391" y="710"/>
      <point x="333" y="731"/>
      <point x="283" y="731" type="curve" smooth="yes"/>
      <point x="250" y="731"/>
      <point x="192" y="720"/>
      <point x="171" y="693" type="curve"/>
      <point x="103" y="682"/>
      <point x="31" y="506"/>
    </contour>
    <contour>
      <point x="275" y="628" type="curve" smooth="yes"/>
      <point x="318" y="628"/>
      <point x="359" y="608"/>
      <point x="387" y="583" type="curve" smooth="yes"/>
      <point x="456" y="522"/>
      <point x="482" y="401"/>
      <point x="482" y="337" type="curve" smooth="yes"/>
      <point x="482" y="197"/>
      <point x="411" y="98"/>
      <point x="308" y="98" type="curve" smooth="yes"/>
      <point x="189" y="98"/>
      <point x="145" y="239"/>
      <point x="145" y="328" type="curve" smooth="yes"/>
      <point x="145" y="436"/>
      <point x="164" y="516"/>
      <point x="201" y="564" type="curve"/>
      <point x="218" y="581"/>
      <point x="246" y="584"/>
      <point x="246" y="611" type="curve" smooth="yes"/>
      <point x="246" y="612"/>
      <point x="246" y="617"/>
      <point x="244" y="624" type="curve"/>
      <point x="253" y="626"/>
      <point x="268" y="628"/>
    </contour>
  </outline>
</glyph>
<glyph name="P" format="1">
  <advance width="574"/>
  <unicode hex="0050"/>
  <outline>
    <contour>
      <point x="224" y="727" type="curve" smooth="yes"/>
      <point x="184" y="727"/>
      <point x="66" y="705"/>
      <point x="66" y="649" type="curve" smooth="yes"/>
      <point x="66" y="638"/>
      <point x="72" y="622"/>
      <point x="84" y="612" type="curve"/>
      <point x="68" y="600"/>
      <point x="60" y="582"/>
      <point x="60" y="569" type="curve" smooth="yes"/>
      <point x="60" y="542"/>
      <point x="78" y="520"/>
      <point x="79" y="491" type="curve" smooth="yes"/>
      <point x="79" y="479"/>
      <point x="78" y="426"/>
      <point x="77" y="364" type="curve"/>
      <point x="61" y="354"/>
      <point x="52" y="339"/>
      <point x="52" y="327" type="curve" smooth="yes"/>
      <point x="52" y="309"/>
      <point x="59" y="292"/>
      <point x="73" y="278" type="curve"/>
      <point x="70" y="203"/>
      <point x="66" y="152"/>
      <point x="62" y="124" type="curve" smooth="yes"/>
      <point x="59" y="98"/>
      <point x="30" y="83"/>
      <point x="30" y="53" type="curve" smooth="yes"/>
      <point x="30" y="11"/>
      <point x="71" y="-15"/>
      <point x="110" y="-15" type="curve" smooth="yes"/>
      <point x="162" y="-15"/>
      <point x="171" y="63"/>
      <point x="174" y="92" type="curve" smooth="yes"/>
      <point x="180" y="153"/>
      <point x="179" y="217"/>
      <point x="182" y="275" type="curve"/>
      <point x="188" y="278"/>
      <point x="194" y="280"/>
      <point x="199" y="280" type="curve" smooth="yes"/>
      <point x="266" y="280"/>
      <point x="563" y="299"/>
      <point x="563" y="499" type="curve" smooth="yes"/>
      <point x="563" y="566"/>
      <point x="465" y="727"/>
    </contour>
    <contour>
      <point x="191" y="614" type="curve"/>
      <point x="203" y="619"/>
      <point x="223" y="622"/>
      <point x="240" y="622" type="curve" smooth="yes"/>
      <point x="323" y="622"/>
      <point x="451" y="548"/>
      <point x="451" y="493" type="curve" smooth="yes"/>
      <point x="451" y="436"/>
      <point x="357" y="383"/>
      <point x="184" y="375" type="curve" smooth="yes"/>
      <point x="187" y="446"/>
      <point x="189" y="502"/>
      <point x="189" y="517" type="curve" smooth="yes"/>
      <point x="189" y="538"/>
      <point x="196" y="553"/>
      <point x="196" y="571" type="curve" smooth="yes"/>
      <point x="196" y="583"/>
      <point x="187" y="594"/>
      <point x="178" y="601" type="curve"/>
      <point x="186" y="605"/>
      <point x="188" y="612"/>
    </contour>
  </outline>
</glyph>
<glyph name="Q" format="1">
  <advance width="607"/>
  <unicode hex="0051"/>
  <outline>
    <contour>
      <point x="538" y="-53" type="curve" smooth="yes"/>
      <point x="538" y="-24"/>
      <point x="494" y="22"/>
      <point x="447" y="72" type="curve"/>
      <point x="530" y="148"/>
      <point x="577" y="246"/>
      <point x="577" y="301" type="curve" smooth="yes"/>
      <point x="577" y="523"/>
      <point x="449" y="731"/>
      <point x="390" y="731" type="curve" smooth="yes"/>
      <point x="349" y="731"/>
      <point x="219" y="679"/>
      <point x="199" y="625" type="curve"/>
      <point x="93" y="605"/>
      <point x="31" y="362"/>
      <point x="31" y="234" type="curve" smooth="yes"/>
      <point x="31" y="86"/>
      <point x="109" y="-22"/>
      <point x="216" y="-22" type="curve" smooth="yes"/>
      <point x="264" y="-22"/>
      <point x="313" y="-10"/>
      <point x="362" y="14" type="curve"/>
      <point x="390" y="-16"/>
      <point x="414" y="-49"/>
      <point x="427" y="-68" type="curve"/>
      <point x="430" y="-89"/>
      <point x="444" y="-127"/>
      <point x="474" y="-127" type="curve" smooth="yes"/>
      <point x="503" y="-127"/>
      <point x="538" y="-87"/>
    </contour>
    <contour>
      <point x="275" y="546" type="line"/>
      <point x="310" y="546"/>
      <point x="330" y="578"/>
      <point x="344" y="597" type="curve" smooth="yes"/>
      <point x="354" y="610"/>
      <point x="361" y="618"/>
      <point x="374" y="618" type="curve" smooth="yes"/>
      <point x="419" y="618"/>
      <point x="475" y="448"/>
      <point x="475" y="336" type="curve" smooth="yes"/>
      <point x="475" y="270"/>
      <point x="439" y="200"/>
      <point x="377" y="148" type="curve"/>
      <point x="342" y="188"/>
      <point x="332" y="212"/>
      <point x="332" y="227" type="curve" smooth="yes"/>
      <point x="332" y="233"/>
      <point x="335" y="239"/>
      <point x="336" y="248" type="curve" smooth="yes"/>
      <point x="341" y="282"/>
      <point x="307" y="291"/>
      <point x="283" y="291" type="curve" smooth="yes"/>
      <point x="251" y="291"/>
      <point x="229" y="246"/>
      <point x="229" y="212" type="curve" smooth="yes"/>
      <point x="229" y="183"/>
      <point x="250" y="146"/>
      <point x="287" y="99" type="curve"/>
      <point x="264" y="92"/>
      <point x="244" y="88"/>
      <point x="224" y="88" type="curve" smooth="yes"/>
      <point x="189" y="88"/>
      <point x="142" y="106"/>
      <point x="142" y="241" type="curve" smooth="yes"/>
      <point x="142" y="339"/>
      <point x="195" y="520"/>
      <point x="252" y="536" type="curve" smooth="yes"/>
      <point x="261" y="539"/>
      <point x="265" y="541"/>
      <point x="270" y="546" type="curve"/>
    </contour>
  </outline>
</glyph>
<glyph name="R" format="1">
  <advance width="604"/>
  <unicode hex="0052"/>
  <outline>
    <contour>
      <point x="284" y="759" type="move" name="top"/>
    </contour>
    <contour>
      <point x="106" y="689" type="curve" smooth="yes"/>
      <point x="88" y="688"/>
      <point x="53" y="666"/>
      <point x="53" y="637" type="curve" smooth="yes"/>
      <point x="53" y="613"/>
      <point x="65" y="584"/>
      <point x="73" y="566" type="curve" smooth="yes"/>
      <point x="81" y="545"/>
      <point x="89" y="519"/>
      <point x="89" y="489" type="curve" smooth="yes"/>
      <point x="89" y="453"/>
      <point x="89" y="414"/>
      <point x="87" y="376" type="curve"/>
      <point x="66" y="359"/>
      <point x="56" y="338"/>
      <point x="56" y="312" type="curve" smooth="yes"/>
      <point x="56" y="296"/>
      <point x="64" y="279"/>
      <point x="82" y="259" type="curve"/>
      <point x="78" y="206"/>
      <point x="72" y="166"/>
      <point x="64" y="136" type="curve"/>
      <point x="56" y="120"/>
      <point x="51" y="97"/>
      <point x="51" y="78" type="curve" smooth="yes"/>
      <point x="51" y="20"/>
      <point x="95" y="-6"/>
      <point x="123" y="-6" type="curve" smooth="yes"/>
      <point x="151" y="-6"/>
      <point x="175" y="30"/>
      <point x="175" y="81" type="curve"/>
      <point x="174" y="103"/>
      <point x="174" y="120"/>
      <point x="176" y="140" type="curve" smooth="yes"/>
      <point x="177" y="153"/>
      <point x="178" y="163"/>
      <point x="181" y="190" type="curve"/>
      <point x="220" y="165"/>
      <point x="252" y="147"/>
      <point x="284" y="127" type="curve"/>
      <point x="338" y="96"/>
      <point x="381" y="70"/>
      <point x="423" y="42" type="curve" smooth="yes"/>
      <point x="468" y="12"/>
      <point x="508" y="-13"/>
      <point x="551" y="-13" type="curve" smooth="yes"/>
      <point x="584" y="-13"/>
      <point x="613" y="29"/>
      <point x="613" y="59" type="curve" smooth="yes"/>
      <point x="613" y="94"/>
      <point x="558" y="106"/>
      <point x="532" y="111" type="curve" smooth="yes"/>
      <point x="403" y="159"/>
      <point x="282" y="235"/>
      <point x="201" y="294" type="curve"/>
      <point x="201" y="297"/>
      <point x="201" y="297"/>
      <point x="201" y="299" type="curve"/>
      <point x="458" y="323"/>
      <point x="554" y="426"/>
      <point x="554" y="538" type="curve" smooth="yes"/>
      <point x="554" y="652"/>
      <point x="406" y="728"/>
      <point x="179" y="728" type="curve" smooth="yes"/>
      <point x="158" y="728"/>
      <point x="129" y="712"/>
      <point x="116" y="688" type="curve"/>
      <point x="112" y="689"/>
      <point x="109" y="689"/>
    </contour>
    <contour>
      <point x="244" y="622" type="curve" smooth="yes"/>
      <point x="278" y="622"/>
      <point x="436" y="600"/>
      <point x="436" y="525" type="curve" smooth="yes"/>
      <point x="436" y="442"/>
      <point x="324" y="409"/>
      <point x="196" y="397" type="curve" smooth="yes"/>
      <point x="197" y="425"/>
      <point x="198" y="450"/>
      <point x="198" y="477" type="curve" smooth="yes"/>
      <point x="198" y="505"/>
      <point x="196" y="535"/>
      <point x="194" y="558" type="curve" smooth="yes"/>
      <point x="193" y="570"/>
      <point x="191" y="583"/>
      <point x="190" y="600" type="curve"/>
      <point x="213" y="602"/>
      <point x="227" y="622"/>
    </contour>
  </outline>
</glyph>
<glyph name="S" format="1">
  <advance width="555"/>
  <unicode hex="0053"/>
  <outline>
    <contour>
      <point x="331" y="776" type="move" name="top"/>
    </contour>
    <contour>
      <point x="327" y="741" type="curve" smooth="yes"/>
      <point x="221" y="741"/>
      <point x="84" y="588"/>
      <point x="84" y="473" type="curve" smooth="yes"/>
      <point x="84" y="423"/>
      <point x="106" y="347"/>
      <point x="183" y="341" type="curve" smooth="yes"/>
      <point x="307" y="331"/>
      <point x="414" y="286"/>
      <point x="414" y="197" type="curve" smooth="yes"/>
      <point x="414" y="109"/>
      <point x="315" y="87"/>
      <point x="269" y="87" type="curve" smooth="yes"/>
      <point x="175" y="87"/>
      <point x="145" y="166"/>
      <point x="144" y="178" type="curve" smooth="yes"/>
      <point x="144" y="199"/>
      <point x="158" y="216"/>
      <point x="158" y="238" type="curve" smooth="yes"/>
      <point x="158" y="264"/>
      <point x="129" y="307"/>
      <point x="101" y="307" type="curve" smooth="yes"/>
      <point x="54" y="307"/>
      <point x="25" y="265"/>
      <point x="25" y="224" type="curve" smooth="yes"/>
      <point x="25" y="88"/>
      <point x="133" y="-16"/>
      <point x="275" y="-16" type="curve" smooth="yes"/>
      <point x="438" y="-16"/>
      <point x="527" y="107"/>
      <point x="527" y="192" type="curve" smooth="yes"/>
      <point x="527" y="380"/>
      <point x="354" y="416"/>
      <point x="275" y="436" type="curve" smooth="yes"/>
      <point x="255" y="441"/>
      <point x="197" y="446"/>
      <point x="197" y="479" type="curve" smooth="yes"/>
      <point x="197" y="548"/>
      <point x="295" y="634"/>
      <point x="337" y="634" type="curve" smooth="yes"/>
      <point x="371" y="634"/>
      <point x="391" y="619"/>
      <point x="405" y="602" type="curve" smooth="yes"/>
      <point x="418" y="586"/>
      <point x="431" y="566"/>
      <point x="461" y="566" type="curve" smooth="yes"/>
      <point x="487" y="566"/>
      <point x="516" y="600"/>
      <point x="516" y="642" type="curve" smooth="yes"/>
      <point x="516" y="684"/>
      <point x="436" y="741"/>
    </contour>
  </outline>
</glyph>
<glyph name="T" format="1">
  <advance width="559"/>
  <unicode hex="0054"/>
  <outline>
    <contour>
      <point x="279" y="752" type="move" name="top"/>
    </contour>
    <contour>
      <point x="52" y="726" type="curve" smooth="yes"/>
      <point x="27" y="726"/>
      <point x="-23" y="702"/>
      <point x="-23" y="657" type="curve" smooth="yes"/>
      <point x="-23" y="632"/>
      <point x="9" y="597"/>
      <point x="45" y="597" type="curve" smooth="yes"/>
      <point x="82" y="597"/>
      <point x="114" y="606"/>
      <point x="147" y="610" type="curve" smooth="yes"/>
      <point x="159" y="612"/>
      <point x="186" y="615"/>
      <point x="225" y="616" type="curve"/>
      <point x="225" y="591"/>
      <point x="241" y="567"/>
      <point x="241" y="533" type="curve" smooth="yes"/>
      <point x="241" y="371"/>
      <point x="220" y="216"/>
      <point x="208" y="126" type="curve" smooth="yes"/>
      <point x="202" y="82"/>
      <point x="201" y="70"/>
      <point x="201" y="62" type="curve" smooth="yes"/>
      <point x="201" y="39"/>
      <point x="226" y="-8"/>
      <point x="259" y="-8" type="curve" smooth="yes"/>
      <point x="288" y="-8"/>
      <point x="343" y="39"/>
      <point x="343" y="80" type="curve" smooth="yes"/>
      <point x="343" y="91"/>
      <point x="337" y="103"/>
      <point x="325" y="118" type="curve"/>
      <point x="326" y="131"/>
      <point x="328" y="159"/>
      <point x="334" y="244" type="curve" smooth="yes"/>
      <point x="340" y="334"/>
      <point x="350" y="503"/>
      <point x="350" y="538" type="curve" smooth="yes"/>
      <point x="350" y="568"/>
      <point x="348" y="593"/>
      <point x="344" y="618" type="curve"/>
      <point x="399" y="616"/>
      <point x="448" y="608"/>
      <point x="497" y="608" type="curve" smooth="yes"/>
      <point x="534" y="608"/>
      <point x="569" y="633"/>
      <point x="569" y="659" type="curve" smooth="yes"/>
      <point x="569" y="697"/>
      <point x="529" y="726"/>
      <point x="492" y="726" type="curve" smooth="yes"/>
      <point x="484" y="726"/>
      <point x="463" y="725"/>
      <point x="416" y="722" type="curve" smooth="yes"/>
      <point x="366" y="719"/>
      <point x="313" y="718"/>
      <point x="290" y="718" type="curve" smooth="yes"/>
      <point x="257" y="718"/>
      <point x="173" y="719"/>
      <point x="128" y="720" type="curve" smooth="yes"/>
      <point x="99" y="720"/>
      <point x="76" y="726"/>
    </contour>
  </outline>
</glyph>
<glyph name="U" format="1">
  <advance width="662"/>
  <unicode hex="0055"/>
  <outline>
    <contour>
      <point x="284" y="763" type="move" name="top"/>
    </contour>
    <contour>
      <point x="117" y="727" type="curve" smooth="yes"/>
      <point x="89" y="727"/>
      <point x="53" y="691"/>
      <point x="53" y="642" type="curve" smooth="yes"/>
      <point x="53" y="615"/>
      <point x="60" y="592"/>
      <point x="60" y="569" type="curve" smooth="yes"/>
      <point x="60" y="537"/>
      <point x="59" y="504"/>
      <point x="58" y="473" type="curve" smooth="yes"/>
      <point x="57" y="444"/>
      <point x="56" y="417"/>
      <point x="56" y="394" type="curve" smooth="yes"/>
      <point x="56" y="159"/>
      <point x="134" y="-13"/>
      <point x="312" y="-13" type="curve" smooth="yes"/>
      <point x="442" y="-13"/>
      <point x="619" y="99"/>
      <point x="619" y="300" type="curve" smooth="yes"/>
      <point x="619" y="466"/>
      <point x="555" y="597"/>
      <point x="526" y="645" type="curve"/>
      <point x="517" y="671"/>
      <point x="493" y="730"/>
      <point x="446" y="730" type="curve" smooth="yes"/>
      <point x="418" y="730"/>
      <point x="383" y="689"/>
      <point x="383" y="661" type="curve" smooth="yes"/>
      <point x="383" y="619"/>
      <point x="430" y="568"/>
      <point x="461" y="546" type="curve"/>
      <point x="494" y="484"/>
      <point x="510" y="403"/>
      <point x="510" y="280" type="curve" smooth="yes"/>
      <point x="510" y="193"/>
      <point x="430" y="100"/>
      <point x="312" y="100" type="curve" smooth="yes"/>
      <point x="210" y="100"/>
      <point x="167" y="242"/>
      <point x="167" y="387" type="curve" smooth="yes"/>
      <point x="167" y="452"/>
      <point x="171" y="558"/>
      <point x="177" y="581" type="curve"/>
      <point x="184" y="594"/>
      <point x="192" y="617"/>
      <point x="192" y="636" type="curve" smooth="yes"/>
      <point x="192" y="667"/>
      <point x="160" y="727"/>
    </contour>
  </outline>
</glyph>
<glyph name="V" format="1">
  <advance width="569"/>
  <unicode hex="0056"/>
  <outline>
    <contour>
      <point x="59" y="704" type="curve" smooth="yes"/>
      <point x="35" y="704"/>
      <point x="-10" y="659"/>
      <point x="-10" y="631" type="curve" smooth="yes"/>
      <point x="-10" y="599"/>
      <point x="14" y="581"/>
      <point x="28" y="573" type="curve" smooth="yes"/>
      <point x="33" y="570"/>
      <point x="38" y="564"/>
      <point x="41" y="559" type="curve" smooth="yes"/>
      <point x="97" y="467"/>
      <point x="201" y="119"/>
      <point x="201" y="78" type="curve" smooth="yes"/>
      <point x="201" y="71"/>
      <point x="194" y="60"/>
      <point x="194" y="52" type="curve" smooth="yes"/>
      <point x="194" y="30"/>
      <point x="231" y="-9"/>
      <point x="257" y="-9" type="curve" smooth="yes"/>
      <point x="283" y="-9"/>
      <point x="321" y="2"/>
      <point x="341" y="66" type="curve" smooth="yes"/>
      <point x="370" y="158"/>
      <point x="408" y="242"/>
      <point x="437" y="327" type="curve" smooth="yes"/>
      <point x="460" y="402"/>
      <point x="488" y="481"/>
      <point x="523" y="576" type="curve" smooth="yes"/>
      <point x="533" y="608"/>
      <point x="556" y="635"/>
      <point x="556" y="669" type="curve" smooth="yes"/>
      <point x="556" y="702"/>
      <point x="524" y="730"/>
      <point x="499" y="730" type="curve" smooth="yes"/>
      <point x="455" y="730"/>
      <point x="424" y="709"/>
      <point x="420" y="683" type="curve" smooth="yes"/>
      <point x="412" y="617"/>
      <point x="352" y="389"/>
      <point x="279" y="203" type="curve"/>
      <point x="205" y="482"/>
      <point x="134" y="704"/>
    </contour>
  </outline>
</glyph>
<glyph name="W" format="1">
  <advance width="873"/>
  <unicode hex="0057"/>
  <outline>
    <contour>
      <point x="424" y="705" type="move" name="top"/>
    </contour>
    <contour>
      <point x="82" y="727" type="curve" smooth="yes"/>
      <point x="48" y="727"/>
      <point x="17" y="676"/>
      <point x="17" y="633" type="curve" smooth="yes"/>
      <point x="17" y="603"/>
      <point x="35" y="570"/>
      <point x="53" y="547" type="curve" smooth="yes"/>
      <point x="71" y="524"/>
      <point x="101" y="333"/>
      <point x="112" y="221" type="curve" smooth="yes"/>
      <point x="116" y="181"/>
      <point x="116" y="143"/>
      <point x="116" y="60" type="curve" smooth="yes"/>
      <point x="116" y="23"/>
      <point x="147" y="-20"/>
      <point x="185" y="-20" type="curve" smooth="yes"/>
      <point x="222" y="-20"/>
      <point x="265" y="17"/>
      <point x="265" y="44" type="curve" smooth="yes"/>
      <point x="268" y="92"/>
      <point x="414" y="382"/>
      <point x="432" y="382" type="curve" smooth="yes"/>
      <point x="443" y="382"/>
      <point x="452" y="328"/>
      <point x="460" y="296" type="curve"/>
      <point x="491" y="172"/>
      <point x="540" y="24"/>
      <point x="656" y="24" type="curve" smooth="yes"/>
      <point x="795" y="24"/>
      <point x="807" y="279"/>
      <point x="807" y="349" type="curve" smooth="yes"/>
      <point x="807" y="390"/>
      <point x="795" y="625"/>
      <point x="782" y="655" type="curve" smooth="yes"/>
      <point x="774" y="675"/>
      <point x="761" y="708"/>
      <point x="718" y="708" type="curve" smooth="yes"/>
      <point x="679" y="708"/>
      <point x="651" y="685"/>
      <point x="651" y="652" type="curve" smooth="yes"/>
      <point x="651" y="630"/>
      <point x="670" y="609"/>
      <point x="673" y="598" type="curve" smooth="yes"/>
      <point x="675" y="589"/>
      <point x="677" y="579"/>
      <point x="680" y="552" type="curve" smooth="yes"/>
      <point x="688" y="494"/>
      <point x="698" y="397"/>
      <point x="698" y="350" type="curve" smooth="yes"/>
      <point x="698" y="205"/>
      <point x="676" y="147"/>
      <point x="653" y="147" type="curve" smooth="yes"/>
      <point x="624" y="147"/>
      <point x="592" y="204"/>
      <point x="574" y="283" type="curve" smooth="yes"/>
      <point x="539" y="441"/>
      <point x="496" y="528"/>
      <point x="445" y="528" type="curve" smooth="yes"/>
      <point x="380" y="528"/>
      <point x="297" y="373"/>
      <point x="272" y="323" type="curve" smooth="yes"/>
      <point x="259" y="297"/>
      <point x="241" y="253"/>
      <point x="222" y="206" type="curve"/>
      <point x="211" y="327"/>
      <point x="181" y="498"/>
      <point x="159" y="597" type="curve" smooth="yes"/>
      <point x="154" y="620"/>
      <point x="160" y="642"/>
      <point x="154" y="663" type="curve"/>
      <point x="148" y="690"/>
      <point x="128" y="727"/>
    </contour>
  </outline>
</glyph>
<glyph name="X" format="1">
  <advance width="573"/>
  <unicode hex="0058"/>
  <outline>
    <contour>
      <point x="107" y="714" type="curve" smooth="yes"/>
      <point x="72" y="714"/>
      <point x="43" y="672"/>
      <point x="43" y="645" type="curve" smooth="yes"/>
      <point x="43" y="601"/>
      <point x="78" y="576"/>
      <point x="99" y="543" type="curve" smooth="yes"/>
      <point x="123" y="504"/>
      <point x="178" y="416"/>
      <point x="212" y="366" type="curve"/>
      <point x="187" y="329"/>
      <point x="163" y="295"/>
      <point x="139" y="260" type="curve" smooth="yes"/>
      <point x="70" y="157"/>
      <point x="26" y="86"/>
      <point x="26" y="60" type="curve" smooth="yes"/>
      <point x="26" y="11"/>
      <point x="66" y="-11"/>
      <point x="92" y="-11" type="curve" smooth="yes"/>
      <point x="121" y="-11"/>
      <point x="146" y="29"/>
      <point x="153" y="71" type="curve" smooth="yes"/>
      <point x="156" y="89"/>
      <point x="215" y="183"/>
      <point x="276" y="278" type="curve"/>
      <point x="292" y="258"/>
      <point x="305" y="241"/>
      <point x="332" y="206" type="curve" smooth="yes"/>
      <point x="383" y="141"/>
      <point x="419" y="95"/>
      <point x="425" y="84" type="curve"/>
      <point x="435" y="55"/>
      <point x="463" y="13"/>
      <point x="505" y="13" type="curve" smooth="yes"/>
      <point x="535" y="13"/>
      <point x="569" y="30"/>
      <point x="569" y="65" type="curve" smooth="yes"/>
      <point x="569" y="118"/>
      <point x="528" y="138"/>
      <point x="496" y="169" type="curve" smooth="yes"/>
      <point x="479" y="184"/>
      <point x="418" y="262"/>
      <point x="339" y="374" type="curve"/>
      <point x="343" y="380"/>
      <point x="360" y="404"/>
      <point x="362" y="408" type="curve" smooth="yes"/>
      <point x="410" y="479"/>
      <point x="447" y="551"/>
      <point x="490" y="604" type="curve" smooth="yes"/>
      <point x="503" y="619"/>
      <point x="526" y="629"/>
      <point x="526" y="655" type="curve" smooth="yes"/>
      <point x="526" y="678"/>
      <point x="509" y="742"/>
      <point x="454" y="742" type="curve" smooth="yes"/>
      <point x="406" y="742"/>
      <point x="376" y="630"/>
      <point x="358" y="595" type="curve" smooth="yes"/>
      <point x="336" y="554"/>
      <point x="311" y="512"/>
      <point x="278" y="464" type="curve"/>
      <point x="222" y="548"/>
      <point x="188" y="615"/>
      <point x="181" y="642" type="curve" smooth="yes"/>
      <point x="172" y="673"/>
      <point x="141" y="714"/>
    </contour>
  </outline>
</glyph>
<glyph name="Y" format="1">
  <advance width="491"/>
  <unicode hex="0059"/>
  <outline>
    <contour>
      <point x="236" y="773" type="move" name="top"/>
    </contour>
    <contour>
      <point x="42" y="738" type="curve" smooth="yes"/>
      <point x="7" y="738"/>
      <point x="-13" y="698"/>
      <point x="-13" y="669" type="curve" smooth="yes"/>
      <point x="-13" y="657"/>
      <point x="-5" y="640"/>
      <point x="125" y="454" type="curve" smooth="yes"/>
      <point x="173" y="387"/>
      <point x="195" y="329"/>
      <point x="228" y="298" type="curve"/>
      <point x="176" y="170"/>
      <point x="138" y="79"/>
      <point x="138" y="52" type="curve" smooth="yes"/>
      <point x="138" y="8"/>
      <point x="178" y="-17"/>
      <point x="199" y="-17" type="curve" smooth="yes"/>
      <point x="226" y="-17"/>
      <point x="258" y="-1"/>
      <point x="261" y="40" type="curve" smooth="yes"/>
      <point x="266" y="112"/>
      <point x="288" y="161"/>
      <point x="309" y="212" type="curve" smooth="yes"/>
      <point x="323" y="244"/>
      <point x="330" y="261"/>
      <point x="338" y="281" type="curve"/>
      <point x="353" y="290"/>
      <point x="361" y="305"/>
      <point x="361" y="316" type="curve" smooth="yes"/>
      <point x="361" y="323"/>
      <point x="360" y="327"/>
      <point x="358" y="331" type="curve"/>
      <point x="406" y="449"/>
      <point x="454" y="576"/>
      <point x="458" y="593" type="curve" smooth="yes"/>
      <point x="468" y="623"/>
      <point x="487" y="648"/>
      <point x="487" y="681" type="curve" smooth="yes"/>
      <point x="487" y="712"/>
      <point x="462" y="738"/>
      <point x="427" y="738" type="curve"/>
      <point x="388" y="738"/>
      <point x="358" y="712"/>
      <point x="358" y="684" type="curve" smooth="yes"/>
      <point x="358" y="667"/>
      <point x="357" y="652"/>
      <point x="355" y="639" type="curve" smooth="yes"/>
      <point x="350" y="600"/>
      <point x="313" y="506"/>
      <point x="278" y="420" type="curve"/>
      <point x="209" y="503"/>
      <point x="123" y="637"/>
      <point x="120" y="662" type="curve" smooth="yes"/>
      <point x="116" y="692"/>
      <point x="85" y="738"/>
    </contour>
  </outline>
</glyph>
<glyph name="Z" format="1">
  <advance width="654"/>
  <unicode hex="005A"/>
  <outline>
    <contour>
      <point x="332" y="754" type="move" name="top"/>
    </contour>
    <contour>
      <point x="43" y="645" type="curve" smooth="yes"/>
      <point x="43" y="617"/>
      <point x="84" y="571"/>
      <point x="116" y="571" type="curve" smooth="yes"/>
      <point x="139" y="571"/>
      <point x="150" y="588"/>
      <point x="167" y="597" type="curve" smooth="yes"/>
      <point x="192" y="611"/>
      <point x="348" y="624"/>
      <point x="408" y="624" type="curve" smooth="yes"/>
      <point x="418" y="624"/>
      <point x="428" y="623"/>
      <point x="450" y="622" type="curve"/>
      <point x="386" y="540"/>
      <point x="335" y="470"/>
      <point x="282" y="404" type="curve"/>
      <point x="232" y="346"/>
      <point x="13" y="76"/>
      <point x="13" y="57" type="curve" smooth="yes"/>
      <point x="13" y="31"/>
      <point x="42" y="-20"/>
      <point x="79" y="-20" type="curve" smooth="yes"/>
      <point x="92" y="-20"/>
      <point x="106" y="-14"/>
      <point x="119" y="-2" type="curve"/>
      <point x="169" y="-2"/>
      <point x="198" y="-2"/>
      <point x="227" y="-2" type="curve" smooth="yes"/>
      <point x="294" y="-2"/>
      <point x="383" y="-3"/>
      <point x="575" y="-3" type="curve" smooth="yes"/>
      <point x="605" y="-3"/>
      <point x="639" y="17"/>
      <point x="639" y="47" type="curve" smooth="yes"/>
      <point x="639" y="81"/>
      <point x="613" y="119"/>
      <point x="569" y="119" type="curve" smooth="yes"/>
      <point x="543" y="119"/>
      <point x="523" y="105"/>
      <point x="500" y="105" type="curve" smooth="yes"/>
      <point x="435" y="105"/>
      <point x="419" y="104"/>
      <point x="405" y="104" type="curve" smooth="yes"/>
      <point x="329" y="102"/>
      <point x="260" y="102"/>
      <point x="185" y="102" type="curve"/>
      <point x="191" y="112"/>
      <point x="191" y="112"/>
      <point x="193" y="115" type="curve" smooth="yes"/>
      <point x="242" y="185"/>
      <point x="300" y="256"/>
      <point x="350" y="321" type="curve" smooth="yes"/>
      <point x="391" y="379"/>
      <point x="543" y="564"/>
      <point x="564" y="585" type="curve"/>
      <point x="580" y="593"/>
      <point x="615" y="620"/>
      <point x="620" y="642" type="curve"/>
      <point x="622" y="648"/>
      <point x="625" y="656"/>
      <point x="625" y="664" type="curve" smooth="yes"/>
      <point x="625" y="703"/>
      <point x="600" y="730"/>
      <point x="553" y="730" type="curve" smooth="yes"/>
      <point x="540" y="730"/>
      <point x="521" y="729"/>
      <point x="465" y="726" type="curve"/>
      <point x="376" y="720"/>
      <point x="259" y="713"/>
      <point x="138" y="713" type="curve" smooth="yes"/>
      <point x="104" y="713"/>
      <point x="43" y="695"/>
    </contour>
  </outline>
</glyph>
<glyph name="bracketleft" format="1">
  <advance width="438"/>
  <unicode hex="005B"/>
  <outline>
    <contour>
      <point x="159" y="741" type="curve" smooth="yes"/>
      <point x="136" y="741"/>
      <point x="99" y="699"/>
      <point x="99" y="680" type="curve" smooth="yes"/>
      <point x="99" y="670"/>
      <point x="101" y="657"/>
      <point x="112" y="646" type="curve"/>
      <point x="112" y="633" type="line" smooth="yes"/>
      <point x="112" y="578"/>
      <point x="107" y="490"/>
      <point x="104" y="363" type="curve" smooth="yes"/>
      <point x="97" y="194"/>
      <point x="34" y="-20"/>
      <point x="34" y="-86" type="curve" smooth="yes"/>
      <point x="34" y="-112"/>
      <point x="61" y="-152"/>
      <point x="87" y="-152" type="curve" smooth="yes"/>
      <point x="132" y="-152"/>
      <point x="171" y="-131"/>
      <point x="208" y="-131" type="curve" smooth="yes"/>
      <point x="246" y="-131"/>
      <point x="274" y="-140"/>
      <point x="308" y="-140" type="curve" smooth="yes"/>
      <point x="322" y="-140"/>
      <point x="352" y="-118"/>
      <point x="352" y="-103" type="curve" smooth="yes"/>
      <point x="352" y="-83"/>
      <point x="338" y="-31"/>
      <point x="295" y="-31" type="curve" smooth="yes"/>
      <point x="245" y="-31"/>
      <point x="198" y="-42"/>
      <point x="153" y="-42" type="curve"/>
      <point x="155" y="-7"/>
      <point x="165" y="75"/>
      <point x="181" y="176" type="curve" smooth="yes"/>
      <point x="197" y="280"/>
      <point x="209" y="474"/>
      <point x="222" y="586" type="curve" smooth="yes"/>
      <point x="223" y="600"/>
      <point x="227" y="612"/>
      <point x="230" y="623" type="curve"/>
      <point x="265" y="619"/>
      <point x="302" y="608"/>
      <point x="335" y="608" type="curve" smooth="yes"/>
      <point x="360" y="608"/>
      <point x="375" y="631"/>
      <point x="375" y="657" type="curve" smooth="yes"/>
      <point x="375" y="699"/>
      <point x="339" y="719"/>
      <point x="318" y="719" type="curve" smooth="yes"/>
      <point x="293" y="719"/>
      <point x="280" y="714"/>
      <point x="259" y="714" type="curve" smooth="yes"/>
      <point x="223" y="714"/>
      <point x="193" y="741"/>
    </contour>
  </outline>
</glyph>
<glyph name="backslash" format="1">
  <advance width="451"/>
  <unicode hex="005C"/>
  <outline>
    <contour>
      <point x="376" y="-129" type="curve" smooth="yes"/>
      <point x="405" y="-129"/>
      <point x="435" y="-109"/>
      <point x="435" y="-69" type="curve" smooth="yes"/>
      <point x="435" y="-52"/>
      <point x="405" y="-14"/>
      <point x="399" y="10" type="curve" smooth="yes"/>
      <point x="394" y="28"/>
      <point x="235" y="448"/>
      <point x="196" y="541" type="curve" smooth="yes"/>
      <point x="173" y="593"/>
      <point x="151" y="726"/>
      <point x="80" y="726" type="curve" smooth="yes"/>
      <point x="43" y="726"/>
      <point x="24" y="682"/>
      <point x="24" y="664" type="curve" smooth="yes"/>
      <point x="24" y="629"/>
      <point x="40" y="613"/>
      <point x="45" y="607" type="curve" smooth="yes"/>
      <point x="76" y="571"/>
      <point x="85" y="548"/>
      <point x="166" y="349" type="curve" smooth="yes"/>
      <point x="217" y="222"/>
      <point x="256" y="101"/>
      <point x="302" y="-27" type="curve" smooth="yes"/>
      <point x="319" y="-73"/>
      <point x="317" y="-129"/>
    </contour>
  </outline>
</glyph>
<glyph name="bracketright" format="1">
  <advance width="436"/>
  <unicode hex="005D"/>
  <outline>
    <contour>
      <point x="129" y="723" type="curve" smooth="yes"/>
      <point x="99" y="723"/>
      <point x="81" y="696"/>
      <point x="81" y="666" type="curve" smooth="yes"/>
      <point x="81" y="642"/>
      <point x="110" y="611"/>
      <point x="139" y="611" type="curve" smooth="yes"/>
      <point x="170" y="611"/>
      <point x="205" y="628"/>
      <point x="236" y="628" type="curve" smooth="yes"/>
      <point x="264" y="628" type="line"/>
      <point x="259" y="616"/>
      <point x="257" y="600"/>
      <point x="257" y="591" type="curve" smooth="yes"/>
      <point x="257" y="544"/>
      <point x="257" y="506"/>
      <point x="241" y="347" type="curve" smooth="yes"/>
      <point x="217" y="108"/>
      <point x="214" y="70"/>
      <point x="211" y="53" type="curve" smooth="yes"/>
      <point x="201" y="0"/>
      <point x="195" y="-29"/>
      <point x="190" y="-47" type="curve"/>
      <point x="137" y="-44"/>
      <point x="88" y="-31"/>
      <point x="65" y="-40" type="curve" smooth="yes"/>
      <point x="40" y="-49"/>
      <point x="25" y="-63"/>
      <point x="25" y="-91" type="curve" smooth="yes"/>
      <point x="25" y="-112"/>
      <point x="48" y="-139"/>
      <point x="84" y="-139" type="curve" smooth="yes"/>
      <point x="231" y="-139"/>
      <point x="202" y="-151"/>
      <point x="251" y="-151" type="curve" smooth="yes"/>
      <point x="286" y="-151"/>
      <point x="305" y="-120"/>
      <point x="305" y="-84" type="curve" smooth="yes"/>
      <point x="305" y="-70"/>
      <point x="308" y="-9"/>
      <point x="313" y="43" type="curve" smooth="yes"/>
      <point x="314" y="56"/>
      <point x="323" y="161"/>
      <point x="339" y="346" type="curve" smooth="yes"/>
      <point x="345" y="414"/>
      <point x="356" y="483"/>
      <point x="364" y="543" type="curve" smooth="yes"/>
      <point x="368" y="578"/>
      <point x="372" y="609"/>
      <point x="372" y="635" type="curve" smooth="yes"/>
      <point x="372" y="637"/>
      <point x="371" y="642"/>
      <point x="368" y="645" type="curve"/>
      <point x="372" y="650"/>
      <point x="374" y="657"/>
      <point x="374" y="660" type="curve" smooth="yes"/>
      <point x="374" y="717"/>
      <point x="347" y="739"/>
      <point x="317" y="739" type="curve" smooth="yes"/>
      <point x="284" y="739"/>
      <point x="255" y="719"/>
      <point x="223" y="719" type="curve" smooth="yes"/>
      <point x="178" y="719"/>
      <point x="157" y="723"/>
    </contour>
  </outline>
</glyph>
<glyph name="asciicircum" format="1">
  <advance width="538"/>
  <unicode hex="005E"/>
  <outline>
    <contour>
      <point x="279" y="690" type="curve" smooth="yes"/>
      <point x="276" y="690"/>
      <point x="274" y="689"/>
      <point x="272" y="687" type="curve"/>
      <point x="270" y="690"/>
      <point x="270" y="697"/>
      <point x="270" y="700" type="curve" smooth="yes"/>
      <point x="268" y="715"/>
      <point x="247" y="738"/>
      <point x="217" y="738" type="curve" smooth="yes"/>
      <point x="189" y="738"/>
      <point x="174" y="704"/>
      <point x="154" y="638" type="curve" smooth="yes"/>
      <point x="145" y="609"/>
      <point x="71" y="477"/>
      <point x="64" y="466" type="curve" smooth="yes"/>
      <point x="53" y="451"/>
      <point x="42" y="436"/>
      <point x="42" y="410" type="curve" smooth="yes"/>
      <point x="42" y="384"/>
      <point x="60" y="353"/>
      <point x="105" y="353" type="curve" smooth="yes"/>
      <point x="133" y="353"/>
      <point x="153" y="384"/>
      <point x="167" y="433" type="curve" smooth="yes"/>
      <point x="169" y="440"/>
      <point x="187" y="491"/>
      <point x="193" y="499" type="curve" smooth="yes"/>
      <point x="206" y="514"/>
      <point x="221" y="555"/>
      <point x="237" y="583" type="curve"/>
      <point x="262" y="541"/>
      <point x="295" y="495"/>
      <point x="316" y="464" type="curve" smooth="yes"/>
      <point x="347" y="421"/>
      <point x="386" y="366"/>
      <point x="438" y="366" type="curve" smooth="yes"/>
      <point x="485" y="366"/>
      <point x="500" y="394"/>
      <point x="500" y="419" type="curve" smooth="yes"/>
      <point x="500" y="440"/>
      <point x="479" y="464"/>
      <point x="461" y="464" type="curve" smooth="yes"/>
      <point x="458" y="464"/>
      <point x="455" y="465"/>
      <point x="440" y="474" type="curve"/>
      <point x="424" y="485"/>
      <point x="352" y="565"/>
      <point x="325" y="623" type="curve" smooth="yes"/>
      <point x="320" y="636"/>
      <point x="314" y="648"/>
      <point x="311" y="659" type="curve" smooth="yes"/>
      <point x="307" y="673"/>
      <point x="294" y="690"/>
    </contour>
  </outline>
</glyph>
<glyph name="underscore" format="1">
  <advance width="510"/>
  <unicode hex="005F"/>
  <outline>
    <contour>
      <point x="510" y="-181" type="curve" smooth="yes"/>
      <point x="510" y="-156"/>
      <point x="499" y="-132"/>
      <point x="452" y="-132" type="curve" smooth="yes"/>
      <point x="405" y="-132"/>
      <point x="366" y="-134"/>
      <point x="314" y="-134" type="curve" smooth="yes"/>
      <point x="293" y="-134"/>
      <point x="161" y="-135"/>
      <point x="62" y="-141" type="curve" smooth="yes"/>
      <point x="4" y="-145"/>
      <point x="0" y="-177"/>
      <point x="0" y="-190" type="curve" smooth="yes"/>
      <point x="0" y="-228"/>
      <point x="32" y="-252"/>
      <point x="56" y="-252" type="curve" smooth="yes"/>
      <point x="93" y="-252"/>
      <point x="105" y="-239"/>
      <point x="338" y="-239" type="curve" smooth="yes"/>
      <point x="383" y="-239"/>
      <point x="416" y="-249"/>
      <point x="456" y="-249" type="curve" smooth="yes"/>
      <point x="482" y="-249"/>
      <point x="510" y="-213"/>
    </contour>
  </outline>
</glyph>
<glyph name="grave" format="1">
  <advance width="400"/>
  <unicode hex="0060"/>
  <outline>
    <contour>
      <point x="242" y="528" type="move" name="_top"/>
    </contour>
    <contour>
      <point x="87" y="705" type="curve" smooth="yes"/>
      <point x="88" y="678"/>
      <point x="119" y="669"/>
      <point x="139" y="653" type="curve" smooth="yes"/>
      <point x="177" y="619"/>
      <point x="220" y="548"/>
      <point x="258" y="548" type="curve" smooth="yes"/>
      <point x="295" y="548"/>
      <point x="311" y="578"/>
      <point x="311" y="591" type="curve" smooth="yes"/>
      <point x="311" y="620"/>
      <point x="263" y="658"/>
      <point x="244" y="680" type="curve" smooth="yes"/>
      <point x="223" y="702"/>
      <point x="204" y="724"/>
      <point x="191" y="749" type="curve" smooth="yes"/>
      <point x="184" y="762"/>
      <point x="165" y="774"/>
      <point x="141" y="774" type="curve" smooth="yes"/>
      <point x="107" y="774"/>
      <point x="87" y="737"/>
    </contour>
  </outline>
</glyph>
<glyph name="a" format="1">
  <advance width="553"/>
  <unicode hex="0061"/>
  <outline>
    <contour>
      <point x="321" y="532" type="move" name="top"/>
    </contour>
    <contour>
      <point x="314" y="491" type="curve" smooth="yes"/>
      <point x="184" y="491"/>
      <point x="25" y="300"/>
      <point x="25" y="136" type="curve" smooth="yes"/>
      <point x="25" y="43"/>
      <point x="73" y="-14"/>
      <point x="150" y="-14" type="curve" smooth="yes"/>
      <point x="251" y="-14"/>
      <point x="334" y="67"/>
      <point x="390" y="152" type="curve"/>
      <point x="389" y="143"/>
      <point x="385" y="118"/>
      <point x="384" y="106" type="curve" smooth="yes"/>
      <point x="381" y="86"/>
      <point x="379" y="64"/>
      <point x="379" y="53" type="curve" smooth="yes"/>
      <point x="379" y="17"/>
      <point x="384" y="-9"/>
      <point x="441" y="-9" type="curve" smooth="yes"/>
      <point x="460" y="-9"/>
      <point x="498" y="7"/>
      <point x="498" y="38" type="curve" smooth="yes"/>
      <point x="498" y="54"/>
      <point x="495" y="67"/>
      <point x="493" y="84" type="curve" smooth="yes"/>
      <point x="490" y="109"/>
      <point x="485" y="138"/>
      <point x="485" y="221" type="curve" smooth="yes"/>
      <point x="485" y="258"/>
      <point x="493" y="291"/>
      <point x="498" y="313" type="curve" smooth="yes"/>
      <point x="503" y="339"/>
      <point x="507" y="352"/>
      <point x="507" y="364" type="curve" smooth="yes"/>
      <point x="507" y="385"/>
      <point x="496" y="416"/>
      <point x="467" y="416" type="curve" smooth="yes"/>
      <point x="461" y="416"/>
      <point x="455" y="414"/>
      <point x="449" y="410" type="curve"/>
      <point x="431" y="434"/>
      <point x="377" y="491"/>
    </contour>
    <contour>
      <point x="314" y="390" type="curve" smooth="yes"/>
      <point x="340" y="390"/>
      <point x="367" y="359"/>
      <point x="367" y="336" type="curve" smooth="yes"/>
      <point x="367" y="249"/>
      <point x="255" y="86"/>
      <point x="161" y="86" type="curve" smooth="yes"/>
      <point x="137" y="86"/>
      <point x="127" y="113"/>
      <point x="127" y="127" type="curve" smooth="yes"/>
      <point x="127" y="214"/>
      <point x="212" y="390"/>
    </contour>
  </outline>
</glyph>
<glyph name="b" format="1">
  <advance width="559"/>
  <unicode hex="0062"/>
  <outline>
    <contour>
      <point x="238" y="-9" type="curve" smooth="yes"/>
      <point x="468" y="-9"/>
      <point x="534" y="190"/>
      <point x="534" y="275" type="curve" smooth="yes"/>
      <point x="534" y="389"/>
      <point x="458" y="481"/>
      <point x="364" y="481" type="curve" smooth="yes"/>
      <point x="299" y="481"/>
      <point x="234" y="447"/>
      <point x="186" y="380" type="curve"/>
      <point x="194" y="481"/>
      <point x="198" y="610"/>
      <point x="198" y="636" type="curve" smooth="yes"/>
      <point x="198" y="677"/>
      <point x="167" y="727"/>
      <point x="126" y="727" type="curve" smooth="yes"/>
      <point x="99" y="727"/>
      <point x="63" y="688"/>
      <point x="63" y="664" type="curve" smooth="yes"/>
      <point x="63" y="644"/>
      <point x="81" y="630"/>
      <point x="81" y="612" type="curve" smooth="yes"/>
      <point x="81" y="414"/>
      <point x="72" y="244"/>
      <point x="50" y="120" type="curve" smooth="yes"/>
      <point x="50" y="116"/>
      <point x="49" y="113"/>
      <point x="47" y="108" type="curve" smooth="yes"/>
      <point x="39" y="85"/>
      <point x="29" y="65"/>
      <point x="29" y="49" type="curve" smooth="yes"/>
      <point x="29" y="-9"/>
      <point x="65" y="-18"/>
      <point x="82" y="-18" type="curve" smooth="yes"/>
      <point x="101" y="-18"/>
      <point x="116" y="-12"/>
      <point x="127" y="0" type="curve"/>
      <point x="163" y="-6"/>
      <point x="206" y="-9"/>
    </contour>
    <contour>
      <point x="358" y="381" type="curve" smooth="yes"/>
      <point x="392" y="381"/>
      <point x="429" y="336"/>
      <point x="429" y="273" type="curve" smooth="yes"/>
      <point x="429" y="200"/>
      <point x="369" y="85"/>
      <point x="238" y="85" type="curve" smooth="yes"/>
      <point x="203" y="85"/>
      <point x="180" y="89"/>
      <point x="162" y="95" type="curve"/>
      <point x="177" y="179"/>
      <point x="233" y="381"/>
    </contour>
  </outline>
</glyph>
<glyph name="c" format="1">
  <advance width="475"/>
  <unicode hex="0063"/>
  <outline>
    <contour>
      <point x="293" y="528" type="move" name="top"/>
    </contour>
    <contour>
      <point x="354" y="487" type="curve" smooth="yes"/>
      <point x="196" y="487"/>
      <point x="29" y="378"/>
      <point x="29" y="176" type="curve" smooth="yes"/>
      <point x="29" y="51"/>
      <point x="105" y="-17"/>
      <point x="241" y="-17" type="curve" smooth="yes"/>
      <point x="293" y="-17"/>
      <point x="344" y="-6"/>
      <point x="400" y="-6" type="curve" smooth="yes"/>
      <point x="434" y="-6"/>
      <point x="453" y="23"/>
      <point x="453" y="48" type="curve" smooth="yes"/>
      <point x="453" y="73"/>
      <point x="439" y="111"/>
      <point x="406" y="111" type="curve" smooth="yes"/>
      <point x="382" y="111"/>
      <point x="361" y="99"/>
      <point x="340" y="89" type="curve" smooth="yes"/>
      <point x="322" y="80"/>
      <point x="268" y="78"/>
      <point x="249" y="78" type="curve" smooth="yes"/>
      <point x="163" y="78"/>
      <point x="139" y="125"/>
      <point x="139" y="172" type="curve" smooth="yes"/>
      <point x="139" y="275"/>
      <point x="204" y="379"/>
      <point x="305" y="379" type="curve" smooth="yes"/>
      <point x="324" y="379"/>
      <point x="340" y="362"/>
      <point x="360" y="362" type="curve" smooth="yes"/>
      <point x="391" y="362"/>
      <point x="424" y="395"/>
      <point x="424" y="419" type="curve" smooth="yes"/>
      <point x="424" y="463"/>
      <point x="399" y="487"/>
    </contour>
  </outline>
</glyph>
<glyph name="d" format="1">
  <advance width="582"/>
  <unicode hex="0064"/>
  <outline>
    <contour>
      <point x="474" y="-12" type="curve" smooth="yes"/>
      <point x="487" y="-12"/>
      <point x="525" y="-9"/>
      <point x="525" y="56" type="curve" smooth="yes"/>
      <point x="525" y="71"/>
      <point x="524" y="97"/>
      <point x="522" y="124" type="curve" smooth="yes"/>
      <point x="518" y="190"/>
      <point x="517" y="248"/>
      <point x="517" y="304" type="curve" smooth="yes"/>
      <point x="517" y="332"/>
      <point x="516" y="346"/>
      <point x="518" y="361" type="curve" smooth="yes"/>
      <point x="525" y="448"/>
      <point x="534" y="573"/>
      <point x="534" y="626" type="curve" smooth="yes"/>
      <point x="534" y="694"/>
      <point x="503" y="731"/>
      <point x="464" y="731" type="curve" smooth="yes"/>
      <point x="423" y="731"/>
      <point x="392" y="685"/>
      <point x="411" y="650" type="curve" smooth="yes"/>
      <point x="415" y="644"/>
      <point x="418" y="629"/>
      <point x="418" y="577" type="curve" smooth="yes"/>
      <point x="418" y="534"/>
      <point x="417" y="490"/>
      <point x="416" y="466" type="curve" smooth="yes"/>
      <point x="416" y="453"/>
      <point x="415" y="362"/>
      <point x="409" y="316" type="curve" smooth="yes"/>
      <point x="393" y="177"/>
      <point x="279" y="81"/>
      <point x="205" y="81" type="curve" smooth="yes"/>
      <point x="170" y="81"/>
      <point x="132" y="116"/>
      <point x="132" y="177" type="curve" smooth="yes"/>
      <point x="132" y="298"/>
      <point x="209" y="390"/>
      <point x="266" y="390" type="curve" smooth="yes"/>
      <point x="291" y="390"/>
      <point x="311" y="375"/>
      <point x="311" y="364" type="curve" smooth="yes"/>
      <point x="311" y="340"/>
      <point x="323" y="324"/>
      <point x="347" y="324" type="curve" smooth="yes"/>
      <point x="372" y="324"/>
      <point x="404" y="352"/>
      <point x="404" y="380" type="curve" smooth="yes"/>
      <point x="404" y="437"/>
      <point x="345" y="490"/>
      <point x="275" y="490" type="curve" smooth="yes"/>
      <point x="127" y="490"/>
      <point x="29" y="323"/>
      <point x="29" y="182" type="curve" smooth="yes"/>
      <point x="29" y="43"/>
      <point x="109" y="-20"/>
      <point x="189" y="-20" type="curve" smooth="yes"/>
      <point x="274" y="-20"/>
      <point x="352" y="23"/>
      <point x="414" y="117" type="curve"/>
      <point x="414" y="106"/>
      <point x="413" y="68"/>
      <point x="413" y="55" type="curve" smooth="yes"/>
      <point x="413" y="14"/>
      <point x="422" y="-12"/>
    </contour>
  </outline>
</glyph>
<glyph name="e" format="1">
  <advance width="507"/>
  <unicode hex="0065"/>
  <outline>
    <contour>
      <point x="282" y="522" type="move" name="top"/>
    </contour>
    <contour>
      <point x="318" y="482" type="curve" smooth="yes"/>
      <point x="129" y="482"/>
      <point x="28" y="346"/>
      <point x="28" y="215" type="curve" smooth="yes"/>
      <point x="28" y="115"/>
      <point x="79" y="-18"/>
      <point x="306" y="-18" type="curve" smooth="yes"/>
      <point x="363" y="-18"/>
      <point x="462" y="-14"/>
      <point x="462" y="49" type="curve" smooth="yes"/>
      <point x="462" y="94"/>
      <point x="438" y="106"/>
      <point x="415" y="106" type="curve" smooth="yes"/>
      <point x="400" y="106"/>
      <point x="390" y="101"/>
      <point x="380" y="94" type="curve" smooth="yes"/>
      <point x="365" y="85"/>
      <point x="347" y="74"/>
      <point x="295" y="74" type="curve" smooth="yes"/>
      <point x="198" y="74"/>
      <point x="135" y="109"/>
      <point x="135" y="224" type="curve" smooth="yes"/>
      <point x="135" y="338"/>
      <point x="226" y="392"/>
      <point x="308" y="392" type="curve" smooth="yes"/>
      <point x="360" y="392"/>
      <point x="383" y="369"/>
      <point x="383" y="344" type="curve" smooth="yes"/>
      <point x="383" y="291"/>
      <point x="300" y="272"/>
      <point x="193" y="272" type="curve" smooth="yes"/>
      <point x="179" y="272"/>
      <point x="152" y="263"/>
      <point x="152" y="233" type="curve" smooth="yes"/>
      <point x="152" y="188"/>
      <point x="191" y="177"/>
      <point x="209" y="177" type="curve" smooth="yes"/>
      <point x="240" y="177"/>
      <point x="255" y="186"/>
      <point x="281" y="188" type="curve" smooth="yes"/>
      <point x="385" y="198"/>
      <point x="484" y="241"/>
      <point x="484" y="334" type="curve" smooth="yes"/>
      <point x="484" y="425"/>
      <point x="396" y="482"/>
    </contour>
  </outline>
</glyph>
<glyph name="f" format="1">
  <advance width="385"/>
  <unicode hex="0066"/>
  <outline>
    <contour>
      <point x="59" y="474" type="curve" smooth="yes"/>
      <point x="33" y="474"/>
      <point x="10" y="445"/>
      <point x="10" y="420" type="curve" smooth="yes"/>
      <point x="10" y="405"/>
      <point x="23" y="364"/>
      <point x="58" y="364" type="curve" smooth="yes"/>
      <point x="72" y="364"/>
      <point x="79" y="367"/>
      <point x="92" y="368" type="curve" smooth="yes"/>
      <point x="108" y="370"/>
      <point x="113" y="370"/>
      <point x="123" y="371" type="curve"/>
      <point x="119" y="342"/>
      <point x="117" y="316"/>
      <point x="116" y="294" type="curve" smooth="yes"/>
      <point x="112" y="183"/>
      <point x="101" y="133"/>
      <point x="93" y="98" type="curve" smooth="yes"/>
      <point x="90" y="82"/>
      <point x="88" y="70"/>
      <point x="88" y="50" type="curve" smooth="yes"/>
      <point x="88" y="19"/>
      <point x="106" y="-13"/>
      <point x="157" y="-13" type="curve" smooth="yes"/>
      <point x="180" y="-13"/>
      <point x="216" y="-10"/>
      <point x="216" y="52" type="curve" smooth="yes"/>
      <point x="216" y="154"/>
      <point x="218" y="270"/>
      <point x="231" y="376" type="curve"/>
      <point x="264" y="377"/>
      <point x="304" y="374"/>
      <point x="349" y="374" type="curve" smooth="yes"/>
      <point x="371" y="374"/>
      <point x="402" y="376"/>
      <point x="402" y="416" type="curve" smooth="yes"/>
      <point x="402" y="443"/>
      <point x="388" y="477"/>
      <point x="356" y="477" type="curve" smooth="yes"/>
      <point x="335" y="477"/>
      <point x="313" y="475"/>
      <point x="289" y="472" type="curve" smooth="yes"/>
      <point x="276" y="471"/>
      <point x="265" y="470"/>
      <point x="245" y="469" type="curve"/>
      <point x="270" y="582"/>
      <point x="307" y="636"/>
      <point x="361" y="636" type="curve" smooth="yes"/>
      <point x="373" y="636"/>
      <point x="389" y="630"/>
      <point x="389" y="616" type="curve" smooth="yes"/>
      <point x="389" y="596"/>
      <point x="374" y="580"/>
      <point x="374" y="564" type="curve" smooth="yes"/>
      <point x="374" y="535"/>
      <point x="406" y="527"/>
      <point x="428" y="527" type="curve" smooth="yes"/>
      <point x="496" y="527"/>
      <point x="495" y="575"/>
      <point x="495" y="631" type="curve" smooth="yes"/>
      <point x="495" y="678"/>
      <point x="452" y="733"/>
      <point x="376" y="733" type="curve" smooth="yes"/>
      <point x="284" y="733"/>
      <point x="185" y="677"/>
      <point x="138" y="470" type="curve"/>
      <point x="128" y="470"/>
      <point x="120" y="471"/>
      <point x="112" y="472" type="curve" smooth="yes"/>
      <point x="95" y="473"/>
      <point x="79" y="474"/>
    </contour>
  </outline>
</glyph>
<glyph name="g" format="1">
  <advance width="531"/>
  <unicode hex="0067"/>
  <outline>
    <contour>
      <point x="294" y="518" type="move" name="top"/>
    </contour>
    <contour>
      <point x="306" y="479" type="curve" smooth="yes"/>
      <point x="125" y="479"/>
      <point x="29" y="296"/>
      <point x="29" y="167" type="curve" smooth="yes"/>
      <point x="29" y="27"/>
      <point x="125" y="-10"/>
      <point x="197" y="-10" type="curve" smooth="yes"/>
      <point x="242" y="-10"/>
      <point x="306" y="4"/>
      <point x="359" y="48" type="curve"/>
      <point x="346" y="-69"/>
      <point x="318" y="-260"/>
      <point x="224" y="-260" type="curve" smooth="yes"/>
      <point x="199" y="-260"/>
      <point x="145" y="-241"/>
      <point x="133" y="-229" type="curve" smooth="yes"/>
      <point x="113" y="-214"/>
      <point x="109" y="-185"/>
      <point x="75" y="-185" type="curve" smooth="yes"/>
      <point x="40" y="-185"/>
      <point x="28" y="-239"/>
      <point x="28" y="-260" type="curve" smooth="yes"/>
      <point x="28" y="-297"/>
      <point x="68" y="-309"/>
      <point x="87" y="-319" type="curve" smooth="yes"/>
      <point x="130" y="-340"/>
      <point x="179" y="-361"/>
      <point x="228" y="-361" type="curve" smooth="yes"/>
      <point x="341" y="-361"/>
      <point x="392" y="-281"/>
      <point x="412" y="-212" type="curve" smooth="yes"/>
      <point x="454" y="-69"/>
      <point x="480" y="179"/>
      <point x="480" y="283" type="curve" smooth="yes"/>
      <point x="480" y="335"/>
      <point x="465" y="479"/>
    </contour>
    <contour>
      <point x="353" y="186" type="curve" smooth="yes"/>
      <point x="337" y="158"/>
      <point x="290" y="86"/>
      <point x="201" y="86" type="curve" smooth="yes"/>
      <point x="158" y="86"/>
      <point x="141" y="128"/>
      <point x="141" y="158" type="curve" smooth="yes"/>
      <point x="141" y="270"/>
      <point x="211" y="379"/>
      <point x="286" y="379" type="curve" smooth="yes"/>
      <point x="362" y="379"/>
      <point x="371" y="328"/>
      <point x="371" y="313" type="curve" smooth="yes"/>
      <point x="371" y="280"/>
      <point x="370" y="243"/>
      <point x="369" y="203" type="curve"/>
      <point x="362" y="200"/>
      <point x="357" y="192"/>
    </contour>
  </outline>
</glyph>
<glyph name="h" format="1">
  <advance width="569"/>
  <unicode hex="0068"/>
  <outline>
    <contour>
      <point x="127" y="765" type="move" name="top"/>
    </contour>
    <contour>
      <point x="136" y="730" type="curve" smooth="yes"/>
      <point x="112" y="730"/>
      <point x="63" y="707"/>
      <point x="63" y="674" type="curve" smooth="yes"/>
      <point x="63" y="656"/>
      <point x="74" y="640"/>
      <point x="74" y="622" type="curve" smooth="yes"/>
      <point x="74" y="579" type="line" smooth="yes"/>
      <point x="74" y="472"/>
      <point x="71" y="221"/>
      <point x="56" y="121" type="curve"/>
      <point x="52" y="98"/>
      <point x="43" y="75"/>
      <point x="43" y="49" type="curve" smooth="yes"/>
      <point x="43" y="8"/>
      <point x="77" y="-6"/>
      <point x="108" y="-6" type="curve" smooth="yes"/>
      <point x="148" y="-6"/>
      <point x="171" y="57"/>
      <point x="173" y="206" type="curve"/>
      <point x="184" y="263"/>
      <point x="235" y="380"/>
      <point x="324" y="380" type="curve" smooth="yes"/>
      <point x="380" y="380"/>
      <point x="414" y="313"/>
      <point x="414" y="201" type="curve" smooth="yes"/>
      <point x="414" y="155"/>
      <point x="408" y="128"/>
      <point x="404" y="105" type="curve" smooth="yes"/>
      <point x="401" y="88"/>
      <point x="398" y="71"/>
      <point x="398" y="48" type="curve" smooth="yes"/>
      <point x="398" y="21"/>
      <point x="430" y="-10"/>
      <point x="453" y="-10" type="curve" smooth="yes"/>
      <point x="486" y="-10"/>
      <point x="513" y="22"/>
      <point x="511" y="54" type="curve" smooth="yes"/>
      <point x="508" y="97"/>
      <point x="517" y="138"/>
      <point x="517" y="184" type="curve" smooth="yes"/>
      <point x="517" y="411"/>
      <point x="423" y="481"/>
      <point x="335" y="481" type="curve" smooth="yes"/>
      <point x="264" y="481"/>
      <point x="214" y="440"/>
      <point x="175" y="396" type="curve"/>
      <point x="178" y="487"/>
      <point x="188" y="629"/>
      <point x="194" y="668" type="curve"/>
      <point x="197" y="704"/>
      <point x="171" y="730"/>
    </contour>
  </outline>
</glyph>
<glyph name="i" format="1">
  <advance width="238"/>
  <unicode hex="0069"/>
  <outline>
    <contour>
      <point x="131" y="481" type="curve" smooth="yes"/>
      <point x="95" y="481"/>
      <point x="66" y="451"/>
      <point x="66" y="415" type="curve" smooth="yes"/>
      <point x="66" y="377"/>
      <point x="72" y="344"/>
      <point x="72" y="311" type="curve" smooth="yes"/>
      <point x="72" y="242"/>
      <point x="64" y="174"/>
      <point x="58" y="131" type="curve" smooth="yes"/>
      <point x="55" y="106"/>
      <point x="54" y="100"/>
      <point x="53" y="89" type="curve" smooth="yes"/>
      <point x="48" y="26"/>
      <point x="68" y="-8"/>
      <point x="131" y="-8" type="curve" smooth="yes"/>
      <point x="185" y="-8"/>
      <point x="193" y="19"/>
      <point x="195" y="34" type="curve" smooth="yes"/>
      <point x="197" y="56"/>
      <point x="186" y="61"/>
      <point x="177" y="65" type="curve" smooth="yes"/>
      <point x="163" y="73"/>
      <point x="160" y="91"/>
      <point x="160" y="105" type="curve" smooth="yes"/>
      <point x="160" y="153"/>
      <point x="169" y="238"/>
      <point x="178" y="325" type="curve" smooth="yes"/>
      <point x="183" y="380"/>
      <point x="186" y="415"/>
      <point x="186" y="425" type="curve" smooth="yes"/>
      <point x="186" y="450"/>
      <point x="161" y="481"/>
    </contour>
    <contour>
      <point x="129" y="707" type="curve" smooth="yes"/>
      <point x="107" y="707"/>
      <point x="74" y="678"/>
      <point x="74" y="647" type="curve" smooth="yes"/>
      <point x="74" y="609"/>
      <point x="97" y="567"/>
      <point x="133" y="567" type="curve" smooth="yes"/>
      <point x="182" y="567"/>
      <point x="201" y="605"/>
      <point x="201" y="628" type="curve" smooth="yes"/>
      <point x="201" y="662"/>
      <point x="164" y="707"/>
    </contour>
  </outline>
</glyph>
<glyph name="j" format="1">
  <advance width="239"/>
  <unicode hex="006A"/>
  <outline>
    <contour>
      <point x="116" y="478" type="curve" smooth="yes"/>
      <point x="89" y="478"/>
      <point x="45" y="450"/>
      <point x="45" y="411" type="curve" smooth="yes"/>
      <point x="45" y="391"/>
      <point x="52" y="364"/>
      <point x="57" y="353" type="curve" smooth="yes"/>
      <point x="66" y="331"/>
      <point x="76" y="178"/>
      <point x="76" y="-67" type="curve" smooth="yes"/>
      <point x="76" y="-140"/>
      <point x="57" y="-177"/>
      <point x="16" y="-177" type="curve" smooth="yes"/>
      <point x="-18" y="-177"/>
      <point x="-38" y="-165"/>
      <point x="-57" y="-154" type="curve" smooth="yes"/>
      <point x="-74" y="-144"/>
      <point x="-93" y="-131"/>
      <point x="-122" y="-131" type="curve" smooth="yes"/>
      <point x="-151" y="-131"/>
      <point x="-168" y="-158"/>
      <point x="-168" y="-190" type="curve" smooth="yes"/>
      <point x="-168" y="-219"/>
      <point x="-142" y="-247"/>
      <point x="-122" y="-249" type="curve" smooth="yes"/>
      <point x="-103" y="-250"/>
      <point x="-86" y="-254"/>
      <point x="-60" y="-261" type="curve" smooth="yes"/>
      <point x="-36" y="-266"/>
      <point x="-7" y="-275"/>
      <point x="26" y="-275" type="curve" smooth="yes"/>
      <point x="86" y="-275"/>
      <point x="182" y="-244"/>
      <point x="182" y="-79" type="curve" smooth="yes"/>
      <point x="182" y="-38"/>
      <point x="180" y="-7"/>
      <point x="179" y="24" type="curve" smooth="yes"/>
      <point x="178" y="93"/>
      <point x="175" y="198"/>
      <point x="174" y="261" type="curve" smooth="yes"/>
      <point x="173" y="333"/>
      <point x="176" y="367"/>
      <point x="179" y="389" type="curve" smooth="yes"/>
      <point x="180" y="397"/>
      <point x="181" y="412"/>
      <point x="181" y="417" type="curve" smooth="yes"/>
      <point x="181" y="450"/>
      <point x="151" y="478"/>
    </contour>
    <contour>
      <point x="109" y="725" type="curve" smooth="yes"/>
      <point x="83" y="725"/>
      <point x="41" y="700"/>
      <point x="41" y="649" type="curve" smooth="yes"/>
      <point x="41" y="614"/>
      <point x="81" y="584"/>
      <point x="109" y="584" type="curve" smooth="yes"/>
      <point x="140" y="584"/>
      <point x="175" y="622"/>
      <point x="175" y="664" type="curve" smooth="yes"/>
      <point x="175" y="687"/>
      <point x="141" y="725"/>
    </contour>
  </outline>
</glyph>
<glyph name="k" format="1">
  <advance width="497"/>
  <unicode hex="006B"/>
  <outline>
    <contour>
      <point x="408" y="469" type="curve" smooth="yes"/>
      <point x="374" y="469"/>
      <point x="356" y="433"/>
      <point x="335" y="411" type="curve" smooth="yes"/>
      <point x="304" y="381"/>
      <point x="222" y="330"/>
      <point x="169" y="294" type="curve"/>
      <point x="170" y="314"/>
      <point x="171" y="333"/>
      <point x="171" y="351" type="curve" smooth="yes"/>
      <point x="173" y="478"/>
      <point x="174" y="616"/>
      <point x="174" y="638" type="curve" smooth="yes"/>
      <point x="174" y="705"/>
      <point x="146" y="717"/>
      <point x="124" y="717" type="curve" smooth="yes"/>
      <point x="89" y="717"/>
      <point x="52" y="675"/>
      <point x="52" y="649" type="curve" smooth="yes"/>
      <point x="52" y="628"/>
      <point x="63" y="611"/>
      <point x="63" y="593" type="curve" smooth="yes"/>
      <point x="64" y="575"/>
      <point x="66" y="553"/>
      <point x="66" y="526" type="curve" smooth="yes"/>
      <point x="66" y="421"/>
      <point x="64" y="355"/>
      <point x="64" y="289" type="curve" smooth="yes"/>
      <point x="64" y="271"/>
      <point x="64" y="255"/>
      <point x="63" y="238" type="curve"/>
      <point x="58" y="233"/>
      <point x="52" y="226"/>
      <point x="52" y="216" type="curve" smooth="yes"/>
      <point x="52" y="206"/>
      <point x="56" y="194"/>
      <point x="62" y="182" type="curve"/>
      <point x="59" y="121"/>
      <point x="55" y="87"/>
      <point x="51" y="69" type="curve" smooth="yes"/>
      <point x="49" y="59"/>
      <point x="47" y="52"/>
      <point x="47" y="46" type="curve" smooth="yes"/>
      <point x="47" y="21"/>
      <point x="78" y="-10"/>
      <point x="102" y="-10" type="curve" smooth="yes"/>
      <point x="128" y="-10"/>
      <point x="166" y="12"/>
      <point x="166" y="51" type="curve" smooth="yes"/>
      <point x="166" y="74"/>
      <point x="167" y="125"/>
      <point x="167" y="143" type="curve"/>
      <point x="170" y="143"/>
      <point x="173" y="144"/>
      <point x="176" y="144" type="curve"/>
      <point x="222" y="125"/>
      <point x="347" y="39"/>
      <point x="360" y="26" type="curve" smooth="yes"/>
      <point x="385" y="1"/>
      <point x="409" y="-12"/>
      <point x="435" y="-12" type="curve" smooth="yes"/>
      <point x="462" y="-12"/>
      <point x="481" y="18"/>
      <point x="481" y="38" type="curve" smooth="yes"/>
      <point x="481" y="77"/>
      <point x="467" y="89"/>
      <point x="445" y="99" type="curve"/>
      <point x="415" y="114"/>
      <point x="387" y="131"/>
      <point x="351" y="152" type="curve" smooth="yes"/>
      <point x="301" y="182"/>
      <point x="266" y="203"/>
      <point x="232" y="223" type="curve"/>
      <point x="252" y="235"/>
      <point x="269" y="247"/>
      <point x="287" y="258" type="curve" smooth="yes"/>
      <point x="308" y="272"/>
      <point x="326" y="284"/>
      <point x="356" y="303" type="curve" smooth="yes"/>
      <point x="407" y="334"/>
      <point x="445" y="357"/>
      <point x="454" y="380" type="curve"/>
      <point x="464" y="418"/>
      <point x="451" y="469"/>
    </contour>
  </outline>
</glyph>
<glyph name="l" format="1">
  <advance width="254"/>
  <unicode hex="006C"/>
  <outline>
    <contour>
      <point x="123" y="743" type="move" name="top"/>
    </contour>
    <contour>
      <point x="230" y="42" type="curve" smooth="yes"/>
      <point x="230" y="80"/>
      <point x="214" y="81"/>
      <point x="201" y="85" type="curve" smooth="yes"/>
      <point x="195" y="87"/>
      <point x="189" y="88"/>
      <point x="182" y="91" type="curve"/>
      <point x="175" y="105"/>
      <point x="168" y="128"/>
      <point x="168" y="185" type="curve" smooth="yes"/>
      <point x="168" y="329"/>
      <point x="180" y="481"/>
      <point x="199" y="599" type="curve" smooth="yes"/>
      <point x="202" y="614"/>
      <point x="203" y="626"/>
      <point x="203" y="631" type="curve" smooth="yes"/>
      <point x="203" y="657"/>
      <point x="177" y="708"/>
      <point x="132" y="708" type="curve" smooth="yes"/>
      <point x="107" y="708"/>
      <point x="71" y="685"/>
      <point x="71" y="653" type="curve" smooth="yes"/>
      <point x="73" y="636"/>
      <point x="79" y="618"/>
      <point x="79" y="600" type="curve" smooth="yes"/>
      <point x="76" y="493"/>
      <point x="71" y="381"/>
      <point x="66" y="275" type="curve" smooth="yes"/>
      <point x="62" y="205"/>
      <point x="59" y="140"/>
      <point x="59" y="85" type="curve" smooth="yes"/>
      <point x="59" y="22"/>
      <point x="117" y="-16"/>
      <point x="159" y="-16" type="curve" smooth="yes"/>
      <point x="192" y="-16"/>
      <point x="230" y="5"/>
    </contour>
  </outline>
</glyph>
<glyph name="m" format="1">
  <advance width="872"/>
  <unicode hex="006D"/>
  <outline>
    <contour>
      <point x="141" y="476" type="curve" smooth="yes"/>
      <point x="117" y="476"/>
      <point x="64" y="472"/>
      <point x="64" y="414" type="curve" smooth="yes"/>
      <point x="64" y="381"/>
      <point x="73" y="354"/>
      <point x="73" y="325" type="curve" smooth="yes"/>
      <point x="73" y="177"/>
      <point x="62" y="129"/>
      <point x="53" y="96" type="curve" smooth="yes"/>
      <point x="48" y="81"/>
      <point x="45" y="67"/>
      <point x="45" y="47" type="curve" smooth="yes"/>
      <point x="45" y="4"/>
      <point x="75" y="-11"/>
      <point x="110" y="-11" type="curve" smooth="yes"/>
      <point x="139" y="-11"/>
      <point x="171" y="12"/>
      <point x="171" y="101" type="curve" smooth="yes"/>
      <point x="171" y="165"/>
      <point x="181" y="222"/>
      <point x="181" y="279" type="curve"/>
      <point x="198" y="330"/>
      <point x="254" y="377"/>
      <point x="303" y="377" type="curve" smooth="yes"/>
      <point x="338" y="377"/>
      <point x="384" y="360"/>
      <point x="384" y="235" type="curve" smooth="yes"/>
      <point x="384" y="203"/>
      <point x="380" y="160"/>
      <point x="376" y="125" type="curve" smooth="yes"/>
      <point x="371" y="88"/>
      <point x="368" y="58"/>
      <point x="368" y="47" type="curve" smooth="yes"/>
      <point x="368" y="-2"/>
      <point x="398" y="-5"/>
      <point x="415" y="-5" type="curve" smooth="yes"/>
      <point x="463" y="-5"/>
      <point x="484" y="34"/>
      <point x="484" y="62" type="curve" smooth="yes"/>
      <point x="484" y="88"/>
      <point x="492" y="219"/>
      <point x="500" y="255" type="curve"/>
      <point x="518" y="287"/>
      <point x="567" y="371"/>
      <point x="629" y="371" type="curve" smooth="yes"/>
      <point x="658" y="371"/>
      <point x="706" y="364"/>
      <point x="706" y="243" type="curve" smooth="yes"/>
      <point x="706" y="211"/>
      <point x="701" y="173"/>
      <point x="692" y="117" type="curve" smooth="yes"/>
      <point x="687" y="87"/>
      <point x="682" y="59"/>
      <point x="682" y="37" type="curve" smooth="yes"/>
      <point x="682" y="10"/>
      <point x="705" y="-8"/>
      <point x="740" y="-8" type="curve" smooth="yes"/>
      <point x="770" y="-8"/>
      <point x="802" y="7"/>
      <point x="803" y="39" type="curve" smooth="yes"/>
      <point x="803" y="64"/>
      <point x="806" y="87"/>
      <point x="809" y="121" type="curve" smooth="yes"/>
      <point x="813" y="170"/>
      <point x="817" y="212"/>
      <point x="817" y="251" type="curve" smooth="yes"/>
      <point x="817" y="384"/>
      <point x="748" y="471"/>
      <point x="638" y="471" type="curve" smooth="yes"/>
      <point x="550" y="471"/>
      <point x="496" y="418"/>
      <point x="462" y="376" type="curve"/>
      <point x="437" y="441"/>
      <point x="377" y="476"/>
      <point x="321" y="476" type="curve" smooth="yes"/>
      <point x="263" y="476"/>
      <point x="211" y="446"/>
      <point x="179" y="409" type="curve"/>
      <point x="179" y="418"/>
      <point x="180" y="423"/>
      <point x="180" y="427" type="curve" smooth="yes"/>
      <point x="183" y="456"/>
      <point x="172" y="476"/>
    </contour>
  </outline>
</glyph>
<glyph name="n" format="1">
  <advance width="579"/>
  <unicode hex="006E"/>
  <outline>
    <contour>
      <point x="297" y="520" type="move" name="top"/>
    </contour>
    <contour>
      <point x="57" y="413" type="curve"/>
      <point x="58" y="391"/>
      <point x="71" y="369"/>
      <point x="71" y="345" type="curve" smooth="yes"/>
      <point x="71" y="292"/>
      <point x="68" y="239"/>
      <point x="62" y="180" type="curve" smooth="yes"/>
      <point x="57" y="134"/>
      <point x="52" y="84"/>
      <point x="52" y="46" type="curve" smooth="yes"/>
      <point x="52" y="12"/>
      <point x="92" y="-11"/>
      <point x="112" y="-11" type="curve" smooth="yes"/>
      <point x="171" y="-11"/>
      <point x="172" y="121"/>
      <point x="172" y="227" type="curve" smooth="yes"/>
      <point x="172" y="246"/>
      <point x="180" y="267"/>
      <point x="187" y="282" type="curve" smooth="yes"/>
      <point x="195" y="298"/>
      <point x="252" y="385"/>
      <point x="330" y="385" type="curve" smooth="yes"/>
      <point x="410" y="385"/>
      <point x="422" y="281"/>
      <point x="422" y="243" type="curve" smooth="yes"/>
      <point x="422" y="147"/>
      <point x="410" y="105"/>
      <point x="399" y="80" type="curve" smooth="yes"/>
      <point x="395" y="72"/>
      <point x="392" y="63"/>
      <point x="392" y="56" type="curve" smooth="yes"/>
      <point x="392" y="19"/>
      <point x="411" y="-9"/>
      <point x="440" y="-9" type="curve" smooth="yes"/>
      <point x="497" y="-9"/>
      <point x="509" y="39"/>
      <point x="516" y="71" type="curve" smooth="yes"/>
      <point x="522" y="105"/>
      <point x="526" y="174"/>
      <point x="526" y="242" type="curve" smooth="yes"/>
      <point x="526" y="388"/>
      <point x="460" y="480"/>
      <point x="348" y="480" type="curve" smooth="yes"/>
      <point x="272" y="480"/>
      <point x="210" y="438"/>
      <point x="174" y="393" type="curve"/>
      <point x="177" y="412"/>
      <point x="177" y="415"/>
      <point x="177" y="420" type="curve" smooth="yes"/>
      <point x="174" y="469"/>
      <point x="160" y="481"/>
      <point x="136" y="481" type="curve" smooth="yes"/>
      <point x="94" y="481"/>
      <point x="57" y="455"/>
    </contour>
  </outline>
</glyph>
<glyph name="p" format="1">
  <advance width="540"/>
  <unicode hex="0070"/>
  <outline>
    <contour>
      <point x="105" y="481" type="curve" smooth="yes"/>
      <point x="74" y="481"/>
      <point x="51" y="458"/>
      <point x="51" y="424" type="curve" smooth="yes"/>
      <point x="51" y="411"/>
      <point x="53" y="386"/>
      <point x="56" y="356" type="curve" smooth="yes"/>
      <point x="62" y="296"/>
      <point x="65" y="251"/>
      <point x="65" y="215" type="curve" smooth="yes"/>
      <point x="65" y="184"/>
      <point x="61" y="114"/>
      <point x="53" y="-17" type="curve" smooth="yes"/>
      <point x="46" y="-115"/>
      <point x="42" y="-198"/>
      <point x="42" y="-226" type="curve" smooth="yes"/>
      <point x="42" y="-263"/>
      <point x="78" y="-304"/>
      <point x="110" y="-304" type="curve" smooth="yes"/>
      <point x="148" y="-304"/>
      <point x="162" y="-264"/>
      <point x="162" y="-229" type="curve" smooth="yes"/>
      <point x="162" y="-202"/>
      <point x="153" y="-180"/>
      <point x="153" y="-156" type="curve" smooth="yes"/>
      <point x="153" y="-146"/>
      <point x="158" y="-57"/>
      <point x="158" y="-36" type="curve" smooth="yes"/>
      <point x="158" y="-31"/>
      <point x="159" y="-16"/>
      <point x="160" y="-10" type="curve"/>
      <point x="173" y="-7"/>
      <point x="185" y="-6"/>
      <point x="204" y="-6" type="curve" smooth="yes"/>
      <point x="367" y="-5"/>
      <point x="512" y="107"/>
      <point x="512" y="232" type="curve" smooth="yes"/>
      <point x="512" y="359"/>
      <point x="398" y="489"/>
      <point x="180" y="489" type="curve" smooth="yes"/>
      <point x="154" y="489"/>
      <point x="136" y="483"/>
      <point x="125" y="473" type="curve"/>
      <point x="121" y="478"/>
      <point x="110" y="481"/>
    </contour>
    <contour>
      <point x="213" y="389" type="curve" smooth="yes"/>
      <point x="328" y="389"/>
      <point x="398" y="332"/>
      <point x="398" y="235" type="curve" smooth="yes"/>
      <point x="398" y="161"/>
      <point x="321" y="90"/>
      <point x="203" y="90" type="curve" smooth="yes"/>
      <point x="194" y="90"/>
      <point x="177" y="91"/>
      <point x="167" y="92" type="curve"/>
      <point x="171" y="154"/>
      <point x="173" y="200"/>
      <point x="173" y="221" type="curve" smooth="yes"/>
      <point x="173" y="258"/>
      <point x="173" y="323"/>
      <point x="171" y="376" type="curve"/>
      <point x="187" y="378"/>
      <point x="201" y="389"/>
    </contour>
  </outline>
</glyph>
<glyph name="q" format="1">
  <advance width="546"/>
  <unicode hex="0071"/>
  <outline>
    <contour>
      <point x="515" y="-241" type="curve" smooth="yes"/>
      <point x="514" y="-214"/>
      <point x="503" y="-192"/>
      <point x="499" y="-169" type="curve" smooth="yes"/>
      <point x="492" y="-127"/>
      <point x="484" y="59"/>
      <point x="484" y="151" type="curve" smooth="yes"/>
      <point x="484" y="188"/>
      <point x="486" y="223"/>
      <point x="489" y="255" type="curve" smooth="yes"/>
      <point x="492" y="282"/>
      <point x="494" y="314"/>
      <point x="494" y="340" type="curve" smooth="yes"/>
      <point x="494" y="454"/>
      <point x="450" y="479"/>
      <point x="411" y="479" type="curve" smooth="yes"/>
      <point x="386" y="479"/>
      <point x="366" y="464"/>
      <point x="361" y="440" type="curve"/>
      <point x="333" y="464"/>
      <point x="287" y="482"/>
      <point x="233" y="482" type="curve" smooth="yes"/>
      <point x="138" y="482"/>
      <point x="36" y="406"/>
      <point x="36" y="240" type="curve" smooth="yes"/>
      <point x="36" y="120"/>
      <point x="104" y="-7"/>
      <point x="240" y="-7" type="curve" smooth="yes"/>
      <point x="298" y="-7"/>
      <point x="339" y="12"/>
      <point x="386" y="50" type="curve"/>
      <point x="387" y="31"/>
      <point x="389" y="-5"/>
      <point x="389" y="-23" type="curve" smooth="yes"/>
      <point x="389" y="-93"/>
      <point x="387" y="-184"/>
      <point x="386" y="-212" type="curve" smooth="yes"/>
      <point x="385" y="-227"/>
      <point x="384" y="-240"/>
      <point x="384" y="-243" type="curve" smooth="yes"/>
      <point x="384" y="-280"/>
      <point x="416" y="-298"/>
      <point x="445" y="-298" type="curve" smooth="yes"/>
      <point x="471" y="-298"/>
      <point x="515" y="-280"/>
    </contour>
    <contour>
      <point x="240" y="91" type="curve" smooth="yes"/>
      <point x="181" y="91"/>
      <point x="138" y="154"/>
      <point x="138" y="242" type="curve" smooth="yes"/>
      <point x="138" y="327"/>
      <point x="183" y="382"/>
      <point x="233" y="382" type="curve" smooth="yes"/>
      <point x="276" y="382"/>
      <point x="297" y="366"/>
      <point x="304" y="351" type="curve" smooth="yes"/>
      <point x="309" y="339"/>
      <point x="316" y="321"/>
      <point x="343" y="321" type="curve" smooth="yes"/>
      <point x="357" y="321"/>
      <point x="368" y="329"/>
      <point x="370" y="340" type="curve"/>
      <point x="376" y="298"/>
      <point x="380" y="235"/>
      <point x="383" y="173" type="curve"/>
      <point x="346" y="133"/>
      <point x="305" y="91"/>
    </contour>
  </outline>
</glyph>
<glyph name="r" format="1">
  <advance width="448"/>
  <unicode hex="0072"/>
  <outline>
    <contour>
      <point x="223" y="513" type="move" name="top"/>
    </contour>
    <contour>
      <point x="346" y="474" type="curve" smooth="yes"/>
      <point x="275" y="474"/>
      <point x="202" y="430"/>
      <point x="160" y="351" type="curve"/>
      <point x="161" y="368"/>
      <point x="164" y="394"/>
      <point x="164" y="409" type="curve" smooth="yes"/>
      <point x="164" y="453"/>
      <point x="139" y="475"/>
      <point x="97" y="475" type="curve" smooth="yes"/>
      <point x="75" y="475"/>
      <point x="43" y="467"/>
      <point x="43" y="429" type="curve" smooth="yes"/>
      <point x="43" y="410"/>
      <point x="61" y="385"/>
      <point x="61" y="368" type="curve"/>
      <point x="65" y="284"/>
      <point x="66" y="235"/>
      <point x="66" y="199" type="curve" smooth="yes"/>
      <point x="66" y="155"/>
      <point x="64" y="128"/>
      <point x="63" y="84" type="curve"/>
      <point x="63" y="65"/>
      <point x="55" y="44"/>
      <point x="55" y="25" type="curve" smooth="yes"/>
      <point x="55" y="8"/>
      <point x="85" y="-9"/>
      <point x="115" y="-9" type="curve" smooth="yes"/>
      <point x="142" y="-9"/>
      <point x="173" y="26"/>
      <point x="173" y="55" type="curve" smooth="yes"/>
      <point x="173" y="87"/>
      <point x="168" y="138"/>
      <point x="168" y="165" type="curve" smooth="yes"/>
      <point x="168" y="192"/>
      <point x="212" y="376"/>
      <point x="338" y="376" type="curve" smooth="yes"/>
      <point x="370" y="376"/>
      <point x="384" y="338"/>
      <point x="409" y="338" type="curve" smooth="yes"/>
      <point x="431" y="338"/>
      <point x="458" y="371"/>
      <point x="458" y="411" type="curve" smooth="yes"/>
      <point x="458" y="437"/>
      <point x="420" y="474"/>
    </contour>
  </outline>
</glyph>
<glyph name="s" format="1">
  <advance width="461"/>
  <unicode hex="0073"/>
  <outline>
    <contour>
      <point x="227" y="521" type="move" name="top"/>
    </contour>
    <contour>
      <point x="288" y="488" type="curve" smooth="yes"/>
      <point x="270" y="488"/>
      <point x="256" y="481"/>
      <point x="241" y="481" type="curve" smooth="yes"/>
      <point x="114" y="481"/>
      <point x="40" y="397"/>
      <point x="40" y="325" type="curve" smooth="yes"/>
      <point x="40" y="248"/>
      <point x="83" y="204"/>
      <point x="173" y="198" type="curve" smooth="yes"/>
      <point x="251" y="194"/>
      <point x="330" y="183"/>
      <point x="330" y="121" type="curve" smooth="yes"/>
      <point x="330" y="96"/>
      <point x="297" y="69"/>
      <point x="247" y="69" type="curve" smooth="yes"/>
      <point x="191" y="69"/>
      <point x="160" y="85"/>
      <point x="136" y="100" type="curve" smooth="yes"/>
      <point x="119" y="111"/>
      <point x="102" y="121"/>
      <point x="76" y="121" type="curve" smooth="yes"/>
      <point x="57" y="121"/>
      <point x="24" y="94"/>
      <point x="24" y="65" type="curve" smooth="yes"/>
      <point x="24" y="36"/>
      <point x="47" y="5"/>
      <point x="81" y="5" type="curve" smooth="yes"/>
      <point x="100" y="5"/>
      <point x="113" y="1"/>
      <point x="130" y="-4" type="curve" smooth="yes"/>
      <point x="150" y="-10"/>
      <point x="174" y="-16"/>
      <point x="218" y="-16" type="curve" smooth="yes"/>
      <point x="353" y="-16"/>
      <point x="432" y="40"/>
      <point x="432" y="137" type="curve" smooth="yes"/>
      <point x="432" y="269"/>
      <point x="284" y="287"/>
      <point x="196" y="288" type="curve" smooth="yes"/>
      <point x="160" y="289"/>
      <point x="145" y="300"/>
      <point x="145" y="324" type="curve" smooth="yes"/>
      <point x="145" y="349"/>
      <point x="171" y="392"/>
      <point x="216" y="392" type="curve" smooth="yes"/>
      <point x="255" y="392"/>
      <point x="273" y="373"/>
      <point x="277" y="368" type="curve" smooth="yes"/>
      <point x="286" y="358"/>
      <point x="297" y="347"/>
      <point x="318" y="347" type="curve" smooth="yes"/>
      <point x="341" y="347"/>
      <point x="380" y="372"/>
      <point x="380" y="397" type="curve" smooth="yes"/>
      <point x="380" y="439"/>
      <point x="323" y="488"/>
    </contour>
  </outline>
</glyph>
<glyph name="t" format="1">
  <advance width="372"/>
  <unicode hex="0074"/>
  <outline>
    <contour>
      <point x="45" y="469" type="curve" smooth="yes"/>
      <point x="20" y="469"/>
      <point x="-3" y="443"/>
      <point x="-3" y="414" type="curve" smooth="yes"/>
      <point x="-3" y="386"/>
      <point x="10" y="360"/>
      <point x="42" y="360" type="curve" smooth="yes"/>
      <point x="54" y="360"/>
      <point x="70" y="360"/>
      <point x="83" y="363" type="curve"/>
      <point x="90" y="364"/>
      <point x="96" y="366"/>
      <point x="108" y="367" type="curve" smooth="yes"/>
      <point x="105" y="345"/>
      <point x="103" y="328"/>
      <point x="101" y="310" type="curve" smooth="yes"/>
      <point x="93" y="238"/>
      <point x="86" y="172"/>
      <point x="86" y="100" type="curve" smooth="yes"/>
      <point x="86" y="25"/>
      <point x="148" y="-11"/>
      <point x="181" y="-11" type="curve" smooth="yes"/>
      <point x="207" y="-11"/>
      <point x="227" y="-7"/>
      <point x="247" y="-2" type="curve" smooth="yes"/>
      <point x="266" y="3"/>
      <point x="281" y="6"/>
      <point x="299" y="6" type="curve" smooth="yes"/>
      <point x="321" y="6"/>
      <point x="342" y="35"/>
      <point x="342" y="56" type="curve" smooth="yes"/>
      <point x="342" y="73"/>
      <point x="318" y="111"/>
      <point x="296" y="111" type="curve" smooth="yes"/>
      <point x="276" y="111"/>
      <point x="265" y="105"/>
      <point x="251" y="99" type="curve" smooth="yes"/>
      <point x="237" y="93"/>
      <point x="217" y="87"/>
      <point x="206" y="87" type="curve" smooth="yes"/>
      <point x="201" y="87"/>
      <point x="189" y="119"/>
      <point x="189" y="126" type="curve" smooth="yes"/>
      <point x="189" y="181"/>
      <point x="198" y="276"/>
      <point x="208" y="370" type="curve"/>
      <point x="224" y="370"/>
      <point x="251" y="371"/>
      <point x="257" y="371" type="curve" smooth="yes"/>
      <point x="300" y="371" type="line" smooth="yes"/>
      <point x="332" y="371"/>
      <point x="360" y="401"/>
      <point x="360" y="427" type="curve" smooth="yes"/>
      <point x="360" y="453"/>
      <point x="334" y="474"/>
      <point x="304" y="474" type="curve" smooth="yes"/>
      <point x="280" y="474"/>
      <point x="264" y="466"/>
      <point x="243" y="466" type="curve" smooth="yes"/>
      <point x="222" y="466" type="line"/>
      <point x="223" y="473"/>
      <point x="225" y="486"/>
      <point x="228" y="502" type="curve" smooth="yes"/>
      <point x="232" y="526"/>
      <point x="238" y="565"/>
      <point x="238" y="579" type="curve" smooth="yes"/>
      <point x="238" y="621"/>
      <point x="205" y="645"/>
      <point x="157" y="645" type="curve" smooth="yes"/>
      <point x="134" y="645"/>
      <point x="104" y="600"/>
      <point x="104" y="574" type="curve" smooth="yes"/>
      <point x="104" y="558"/>
      <point x="110" y="545"/>
      <point x="118" y="532" type="curve"/>
      <point x="118" y="512"/>
      <point x="116" y="486"/>
      <point x="115" y="466" type="curve"/>
      <point x="95" y="466" type="line" smooth="yes"/>
      <point x="74" y="466"/>
      <point x="59" y="469"/>
    </contour>
  </outline>
</glyph>
<glyph name="u" format="1">
  <advance width="531"/>
  <unicode hex="0075"/>
  <outline>
    <contour>
      <point x="278" y="516" type="move" name="top"/>
    </contour>
    <contour>
      <point x="133" y="478" type="curve" smooth="yes"/>
      <point x="94" y="478"/>
      <point x="62" y="445"/>
      <point x="62" y="414" type="curve" smooth="yes"/>
      <point x="62" y="396"/>
      <point x="66" y="383"/>
      <point x="66" y="369" type="curve" smooth="yes"/>
      <point x="66" y="368"/>
      <point x="66" y="361"/>
      <point x="61" y="325" type="curve" smooth="yes"/>
      <point x="56" y="280"/>
      <point x="48" y="223"/>
      <point x="48" y="185" type="curve" smooth="yes"/>
      <point x="48" y="47"/>
      <point x="129" y="-12"/>
      <point x="206" y="-12" type="curve" smooth="yes"/>
      <point x="276" y="-12"/>
      <point x="332" y="24"/>
      <point x="368" y="63" type="curve"/>
      <point x="368" y="12"/>
      <point x="364" y="-12"/>
      <point x="407" y="-12" type="curve" smooth="yes"/>
      <point x="449" y="-12"/>
      <point x="482" y="19"/>
      <point x="482" y="43" type="curve" smooth="yes"/>
      <point x="482" y="77"/>
      <point x="463" y="102"/>
      <point x="463" y="137" type="curve" smooth="yes"/>
      <point x="463" y="177"/>
      <point x="470" y="334"/>
      <point x="473" y="365" type="curve" smooth="yes"/>
      <point x="476" y="386"/>
      <point x="483" y="405"/>
      <point x="483" y="425" type="curve" smooth="yes"/>
      <point x="483" y="446"/>
      <point x="467" y="477"/>
      <point x="437" y="477" type="curve" smooth="yes"/>
      <point x="411" y="477"/>
      <point x="358" y="448"/>
      <point x="358" y="415" type="curve" smooth="yes"/>
      <point x="358" y="409"/>
      <point x="358" y="404"/>
      <point x="360" y="386" type="curve" smooth="yes"/>
      <point x="362" y="359"/>
      <point x="364" y="321"/>
      <point x="364" y="273" type="curve" smooth="yes"/>
      <point x="364" y="239"/>
      <point x="363" y="202"/>
      <point x="359" y="165" type="curve"/>
      <point x="330" y="123"/>
      <point x="269" y="81"/>
      <point x="211" y="81" type="curve" smooth="yes"/>
      <point x="187" y="81"/>
      <point x="150" y="111"/>
      <point x="150" y="167" type="curve" smooth="yes"/>
      <point x="150" y="232"/>
      <point x="159" y="278"/>
      <point x="170" y="321" type="curve" smooth="yes"/>
      <point x="177" y="354"/>
      <point x="189" y="389"/>
      <point x="189" y="431" type="curve" smooth="yes"/>
      <point x="189" y="459"/>
      <point x="172" y="478"/>
    </contour>
  </outline>
</glyph>
<glyph name="v" format="1">
  <advance width="440"/>
  <unicode hex="0076"/>
  <outline>
    <contour>
      <point x="71" y="478" type="curve" smooth="yes"/>
      <point x="41" y="478"/>
      <point x="14" y="434"/>
      <point x="14" y="414" type="curve" smooth="yes"/>
      <point x="14" y="380"/>
      <point x="35" y="354"/>
      <point x="51" y="328" type="curve" smooth="yes"/>
      <point x="73" y="286"/>
      <point x="152" y="33"/>
      <point x="156" y="18" type="curve" smooth="yes"/>
      <point x="160" y="3"/>
      <point x="169" y="-17"/>
      <point x="210" y="-17" type="curve" smooth="yes"/>
      <point x="242" y="-17"/>
      <point x="266" y="1"/>
      <point x="276" y="37" type="curve"/>
      <point x="309" y="119"/>
      <point x="358" y="237"/>
      <point x="409" y="338" type="curve" smooth="yes"/>
      <point x="428" y="377"/>
      <point x="440" y="402"/>
      <point x="440" y="420" type="curve" smooth="yes"/>
      <point x="440" y="457"/>
      <point x="390" y="478"/>
      <point x="365" y="478" type="curve" smooth="yes"/>
      <point x="335" y="478"/>
      <point x="322" y="442"/>
      <point x="311" y="404" type="curve" smooth="yes"/>
      <point x="305" y="384"/>
      <point x="255" y="228"/>
      <point x="219" y="147" type="curve"/>
      <point x="204" y="201"/>
      <point x="183" y="265"/>
      <point x="169" y="308" type="curve" smooth="yes"/>
      <point x="156" y="345"/>
      <point x="153" y="354"/>
      <point x="151" y="361" type="curve" smooth="yes"/>
      <point x="147" y="376"/>
      <point x="140" y="402"/>
      <point x="133" y="441" type="curve" smooth="yes"/>
      <point x="129" y="461"/>
      <point x="114" y="478"/>
    </contour>
  </outline>
</glyph>
